<?xml version="1.0" encoding="utf-8" standalone="no"?>
<!DOCTYPE svg PUBLIC "-//W3C//DTD SVG 1.1//EN"
  "http://www.w3.org/Graphics/SVG/1.1/DTD/svg11.dtd">
<svg xmlns:xlink="http://www.w3.org/1999/xlink" width="412.782705pt" height="272.845937pt" viewBox="0 0 412.782705 272.845937" xmlns="http://www.w3.org/2000/svg" version="1.1">
 <metadata>
  <rdf:RDF xmlns:dc="http://purl.org/dc/elements/1.1/" xmlns:cc="http://creativecommons.org/ns#" xmlns:rdf="http://www.w3.org/1999/02/22-rdf-syntax-ns#">
   <cc:Work>
    <dc:type rdf:resource="http://purl.org/dc/dcmitype/StillImage"/>
    <dc:date>2022-06-03T12:19:01.793913</dc:date>
    <dc:format>image/svg+xml</dc:format>
    <dc:creator>
     <cc:Agent>
      <dc:title>Matplotlib v3.5.2, https://matplotlib.org/</dc:title>
     </cc:Agent>
    </dc:creator>
   </cc:Work>
  </rdf:RDF>
 </metadata>
 <defs>
  <style type="text/css">*{stroke-linejoin: round; stroke-linecap: butt}</style>
 </defs>
 <g id="figure_1">
  <g id="patch_1">
   <path d="M 0 272.845937 
L 412.782705 272.845937 
L 412.782705 0 
L 0 0 
L 0 272.845937 
z
" style="fill: none"/>
  </g>
  <g id="axes_1">
   <g id="patch_2">
    <path d="M 58.59 224.64 
L 393.39 224.64 
L 393.39 7.2 
L 58.59 7.2 
z
" style="fill: #ffffff"/>
   </g>
   <g id="matplotlib.axis_1">
    <g id="xtick_1">
     <g id="line2d_1">
      <path d="M 117.288701 224.64 
L 117.288701 7.2 
" clip-path="url(#p445f5241ff)" style="fill: none; stroke: #b0b0b0; stroke-width: 0.8; stroke-linecap: square"/>
     </g>
     <g id="line2d_2">
      <defs>
       <path id="m0501916c79" d="M 0 0 
L 0 3.5 
" style="stroke: #000000; stroke-width: 0.8"/>
      </defs>
      <g>
       <use xlink:href="#m0501916c79" x="117.288701" y="224.64" style="stroke: #000000; stroke-width: 0.8"/>
      </g>
     </g>
     <g id="text_1">
      <!-- Male -->
      <g transform="translate(101.777139 241.76375)scale(0.14 -0.14)">
       <defs>
        <path id="PalatinoLinotype-Roman-4d" d="M 5878 4406 
L 5906 4381 
L 5906 4228 
L 5881 4206 
Q 5538 4197 5455 4172 
Q 5372 4147 5337 4089 
Q 5303 4031 5298 3862 
Q 5294 3694 5281 2909 
L 5281 1469 
Q 5281 1156 5290 762 
Q 5300 369 5329 305 
Q 5359 241 5437 211 
Q 5516 181 5881 172 
L 5906 150 
L 5906 -3 
L 5878 -28 
Q 5369 0 4991 0 
Q 4734 0 4119 -28 
L 4091 -3 
L 4091 147 
L 4116 172 
Q 4459 181 4542 206 
Q 4625 231 4659 289 
Q 4694 347 4700 519 
Q 4706 691 4716 1469 
L 4716 3763 
L 3638 1506 
Q 3231 659 2928 -88 
L 2806 -88 
Q 2631 316 2519 556 
L 1025 3659 
L 1025 1475 
Q 1025 1169 1033 770 
Q 1041 372 1072 309 
Q 1103 247 1181 215 
Q 1259 184 1625 178 
L 1650 153 
L 1650 3 
L 1622 -25 
L 1422 -16 
Q 1113 0 891 0 
Q 791 0 144 -25 
L 119 0 
L 119 150 
L 144 178 
Q 488 184 569 209 
Q 650 234 686 293 
Q 722 353 726 515 
Q 731 678 741 1475 
L 741 2906 
Q 741 3191 733 3598 
Q 725 4006 695 4070 
Q 666 4134 587 4165 
Q 509 4197 144 4203 
L 119 4228 
L 119 4378 
L 147 4406 
Q 363 4391 728 4391 
Q 1072 4391 1328 4406 
Q 1591 3800 1831 3309 
L 3016 878 
L 4084 3106 
Q 4519 4009 4669 4406 
Q 4969 4391 5259 4391 
Q 5522 4391 5878 4406 
z
" transform="scale(0.015625)"/>
        <path id="PalatinoLinotype-Roman-61" d="M 663 2119 
L 541 2150 
L 516 2181 
L 516 2569 
Q 1072 2981 1597 2981 
Q 1956 2981 2193 2847 
Q 2431 2713 2537 2511 
Q 2644 2309 2644 2041 
L 2628 1413 
L 2628 481 
Q 2628 291 2654 250 
Q 2681 209 2715 195 
Q 2750 181 2844 172 
L 3022 156 
L 3047 128 
L 3047 3 
L 3022 -22 
Q 2794 -3 2597 -3 
Q 2409 -3 2147 -22 
L 2100 22 
L 2113 525 
L 1431 -6 
Q 1259 -78 1056 -78 
Q 806 -78 626 12 
Q 447 103 351 265 
Q 256 428 256 659 
Q 256 1119 543 1376 
Q 831 1634 2113 1816 
Q 2113 2278 1906 2467 
Q 1700 2656 1353 2656 
Q 1172 2656 1023 2603 
Q 875 2550 853 2517 
Q 831 2484 684 2134 
L 663 2119 
z
M 2113 1625 
Q 1238 1478 1022 1309 
Q 806 1141 806 788 
Q 806 300 1291 300 
Q 1706 300 2113 781 
L 2113 1625 
z
M 1581 3175 
L 1581 3175 
z
M 1516 -188 
L 1516 -188 
z
" transform="scale(0.015625)"/>
        <path id="PalatinoLinotype-Roman-6c" d="M 1169 4628 
L 1228 4591 
Q 1194 4231 1194 3150 
L 1194 1191 
Q 1194 1122 1206 748 
Q 1219 375 1233 312 
Q 1247 250 1275 222 
Q 1303 194 1343 186 
Q 1384 178 1681 159 
L 1709 134 
L 1709 3 
L 1684 -25 
Q 1294 0 931 0 
Q 572 0 181 -25 
L 153 3 
L 153 134 
L 181 159 
Q 484 178 523 187 
Q 563 197 592 226 
Q 622 256 633 317 
Q 644 378 658 720 
Q 672 1063 672 1238 
L 672 2856 
L 659 3519 
Q 650 3866 639 4000 
Q 628 4134 609 4159 
Q 591 4184 544 4196 
Q 497 4209 166 4209 
L 138 4238 
L 138 4369 
L 163 4397 
Q 759 4466 1169 4628 
z
" transform="scale(0.015625)"/>
        <path id="PalatinoLinotype-Roman-65" d="M 2763 459 
L 2663 234 
Q 2338 25 2083 -37 
Q 1828 -100 1628 -100 
Q 1253 -100 917 47 
Q 581 194 370 544 
Q 159 894 159 1388 
Q 159 1716 240 1980 
Q 322 2244 411 2372 
Q 500 2500 712 2656 
Q 925 2813 1162 2906 
Q 1400 3000 1675 3000 
Q 2050 3000 2336 2823 
Q 2622 2647 2737 2372 
Q 2853 2097 2853 1788 
Q 2853 1691 2844 1600 
L 2809 1566 
Q 2597 1519 2237 1503 
Q 1878 1488 1763 1488 
L 759 1488 
Q 766 841 1084 534 
Q 1403 228 1866 228 
Q 2084 228 2286 303 
Q 2488 378 2713 513 
L 2763 459 
z
M 759 1738 
Q 816 1728 1192 1715 
Q 1569 1703 1750 1703 
Q 2184 1703 2278 1719 
Q 2281 1794 2281 1834 
Q 2281 2319 2084 2555 
Q 1888 2791 1547 2791 
Q 1175 2791 967 2525 
Q 759 2259 759 1738 
z
M 1631 3175 
L 1631 3175 
z
M 1594 -188 
L 1594 -188 
z
" transform="scale(0.015625)"/>
       </defs>
       <use xlink:href="#PalatinoLinotype-Roman-4d"/>
       <use xlink:href="#PalatinoLinotype-Roman-61" x="94.580078"/>
       <use xlink:href="#PalatinoLinotype-Roman-6c" x="144.580078"/>
       <use xlink:href="#PalatinoLinotype-Roman-65" x="173.681641"/>
      </g>
     </g>
    </g>
    <g id="xtick_2">
     <g id="line2d_3">
      <path d="M 225.99 224.64 
L 225.99 7.2 
" clip-path="url(#p445f5241ff)" style="fill: none; stroke: #b0b0b0; stroke-width: 0.8; stroke-linecap: square"/>
     </g>
     <g id="line2d_4">
      <g>
       <use xlink:href="#m0501916c79" x="225.99" y="224.64" style="stroke: #000000; stroke-width: 0.8"/>
      </g>
     </g>
     <g id="text_2">
      <!-- Female -->
      <g transform="translate(203.673125 241.76375)scale(0.14 -0.14)">
       <defs>
        <path id="PalatinoLinotype-Roman-46" d="M 1363 2106 
L 1363 1472 
L 1366 863 
Q 1369 522 1384 411 
Q 1400 300 1429 267 
Q 1459 234 1543 211 
Q 1628 188 1959 175 
L 1984 156 
L 1984 0 
L 1959 -25 
Q 1166 0 1063 0 
Q 963 0 169 -25 
L 144 0 
L 144 156 
L 169 175 
Q 463 188 558 206 
Q 653 225 686 256 
Q 719 288 739 381 
Q 759 475 763 806 
L 766 1472 
L 766 2919 
L 759 3528 
Q 756 3884 742 3987 
Q 728 4091 698 4125 
Q 669 4159 584 4181 
Q 500 4203 169 4216 
L 144 4238 
L 144 4394 
L 169 4416 
Q 1494 4397 1716 4397 
Q 2459 4397 3241 4416 
L 3266 4394 
Q 3216 4238 3200 4039 
Q 3184 3841 3166 3478 
L 3141 3453 
L 2994 3453 
L 2972 3478 
Q 2966 3500 2944 3719 
Q 2928 3891 2894 4034 
Q 2569 4144 1997 4144 
Q 1741 4144 1397 4106 
Q 1363 3863 1363 2919 
L 1363 2378 
Q 1759 2372 1903 2372 
Q 2169 2372 2359 2392 
Q 2550 2413 2587 2431 
Q 2625 2450 2645 2501 
Q 2666 2553 2684 2728 
L 2703 2897 
L 2725 2922 
L 2884 2922 
L 2909 2894 
L 2888 2209 
Q 2888 2091 2897 1866 
Q 2909 1609 2909 1469 
L 2881 1444 
L 2725 1444 
L 2703 1469 
L 2691 1734 
Q 2681 1891 2659 1962 
Q 2638 2034 2588 2056 
Q 2538 2078 2366 2097 
Q 2194 2116 1838 2116 
Q 1522 2116 1363 2106 
z
" transform="scale(0.015625)"/>
        <path id="PalatinoLinotype-Roman-6d" d="M 1150 2978 
L 1209 2938 
Q 1191 2731 1184 2444 
L 1481 2716 
Q 1606 2831 1647 2864 
Q 1688 2897 1838 2940 
Q 1988 2984 2153 2984 
Q 2466 2984 2700 2829 
Q 2934 2675 3047 2403 
Q 3469 2803 3539 2847 
Q 3609 2891 3762 2936 
Q 3916 2981 4069 2981 
Q 4316 2981 4522 2875 
Q 4728 2769 4850 2597 
Q 4972 2425 4992 2225 
Q 5013 2025 5013 1675 
L 5013 1347 
Q 5013 1294 5031 569 
Q 5038 272 5097 215 
Q 5156 159 5481 159 
L 5506 134 
L 5506 0 
L 5481 -25 
Q 5084 0 4944 0 
Q 4866 0 4491 -25 
L 4450 9 
Q 4491 416 4491 1069 
L 4491 1444 
Q 4491 1941 4444 2139 
Q 4397 2338 4225 2464 
Q 4053 2591 3816 2591 
Q 3647 2591 3500 2523 
Q 3353 2456 3236 2323 
Q 3119 2191 3106 2077 
Q 3094 1963 3094 1656 
L 3094 1266 
Q 3094 1128 3106 750 
Q 3119 372 3133 309 
Q 3147 247 3176 220 
Q 3206 194 3245 186 
Q 3284 178 3581 159 
L 3609 134 
L 3609 3 
L 3584 -25 
Q 3194 0 2831 0 
Q 2497 0 2081 -25 
L 2053 3 
L 2053 134 
L 2081 159 
Q 2384 178 2423 187 
Q 2463 197 2492 226 
Q 2522 256 2533 317 
Q 2544 378 2558 720 
Q 2572 1063 2572 1238 
L 2572 1594 
Q 2572 1947 2523 2137 
Q 2475 2328 2315 2459 
Q 2156 2591 1916 2591 
Q 1728 2591 1573 2517 
Q 1419 2444 1320 2336 
Q 1222 2228 1198 2134 
Q 1175 2041 1175 1728 
L 1175 1266 
Q 1175 1128 1187 750 
Q 1200 372 1214 309 
Q 1228 247 1258 220 
Q 1288 194 1327 186 
Q 1366 178 1663 159 
L 1691 134 
L 1691 3 
L 1666 -25 
Q 1275 0 913 0 
Q 553 0 163 -25 
L 134 3 
L 134 134 
L 163 159 
Q 466 178 505 187 
Q 544 197 573 226 
Q 603 256 614 317 
Q 625 378 639 720 
Q 653 1063 653 1238 
L 653 1853 
Q 653 1978 640 2193 
Q 628 2409 620 2459 
Q 613 2509 572 2532 
Q 531 2556 409 2556 
L 147 2559 
L 119 2584 
L 119 2719 
L 144 2744 
Q 741 2816 1150 2978 
z
" transform="scale(0.015625)"/>
       </defs>
       <use xlink:href="#PalatinoLinotype-Roman-46"/>
       <use xlink:href="#PalatinoLinotype-Roman-65" x="55.615234"/>
       <use xlink:href="#PalatinoLinotype-Roman-6d" x="103.515625"/>
       <use xlink:href="#PalatinoLinotype-Roman-61" x="191.796875"/>
       <use xlink:href="#PalatinoLinotype-Roman-6c" x="241.796875"/>
       <use xlink:href="#PalatinoLinotype-Roman-65" x="270.898438"/>
      </g>
     </g>
    </g>
    <g id="xtick_3">
     <g id="line2d_5">
      <path d="M 334.691299 224.64 
L 334.691299 7.2 
" clip-path="url(#p445f5241ff)" style="fill: none; stroke: #b0b0b0; stroke-width: 0.8; stroke-linecap: square"/>
     </g>
     <g id="line2d_6">
      <g>
       <use xlink:href="#m0501916c79" x="334.691299" y="224.64" style="stroke: #000000; stroke-width: 0.8"/>
      </g>
     </g>
     <g id="text_3">
      <!-- Other/prefer not to say -->
      <g transform="translate(263.799892 241.818437)scale(0.14 -0.14)">
       <defs>
        <path id="PalatinoLinotype-Roman-4f" d="M 150 2153 
Q 150 2622 284 3028 
Q 419 3434 742 3779 
Q 1066 4125 1522 4314 
Q 1978 4503 2553 4503 
Q 3619 4503 4250 3923 
Q 4881 3344 4881 2341 
Q 4881 1634 4572 1071 
Q 4263 509 3686 196 
Q 3109 -116 2391 -116 
Q 1881 -116 1453 54 
Q 1025 225 723 562 
Q 422 900 286 1344 
Q 150 1788 150 2153 
z
M 800 2359 
Q 800 1978 923 1539 
Q 1047 1100 1292 786 
Q 1538 472 1858 319 
Q 2178 166 2588 166 
Q 3072 166 3450 387 
Q 3828 609 4025 1076 
Q 4222 1544 4222 2125 
Q 4222 2756 3997 3265 
Q 3772 3775 3356 4006 
Q 2941 4238 2434 4238 
Q 1675 4238 1237 3763 
Q 800 3288 800 2359 
z
M 2469 4647 
L 2469 4647 
z
M 2484 -188 
L 2484 -188 
z
" transform="scale(0.015625)"/>
        <path id="PalatinoLinotype-Roman-74" d="M 144 2453 
L 144 2534 
L 166 2566 
Q 459 2675 641 2769 
Q 641 3584 622 3719 
Q 944 3831 1150 3959 
L 1225 3897 
Q 1194 3700 1150 2753 
Q 1306 2750 1488 2750 
Q 1856 2750 2016 2769 
L 2038 2747 
L 1978 2484 
L 1953 2456 
Q 1794 2459 1600 2459 
Q 1425 2459 1150 2456 
L 1131 1184 
Q 1131 744 1151 608 
Q 1172 472 1264 395 
Q 1356 319 1538 319 
Q 1747 319 1925 428 
L 2000 316 
Q 1925 263 1641 3 
Q 1478 -72 1309 -72 
Q 606 -72 606 609 
Q 606 859 619 1034 
Q 622 1088 622 1144 
L 622 2441 
L 494 2441 
Q 353 2441 172 2428 
L 144 2453 
z
" transform="scale(0.015625)"/>
        <path id="PalatinoLinotype-Roman-68" d="M 1063 4628 
L 1122 4591 
Q 1088 4231 1088 3150 
L 1088 2378 
Q 1350 2594 1575 2806 
Q 1641 2866 1700 2894 
Q 1759 2922 1892 2953 
Q 2025 2984 2166 2984 
Q 2403 2984 2626 2887 
Q 2850 2791 2964 2658 
Q 3078 2525 3122 2344 
Q 3166 2163 3166 1897 
L 3166 1347 
Q 3166 1294 3181 569 
Q 3191 272 3248 215 
Q 3306 159 3634 159 
L 3659 134 
L 3659 0 
L 3634 -25 
Q 3238 0 3097 0 
Q 3025 0 2641 -25 
L 2603 9 
Q 2644 416 2644 1069 
L 2644 1478 
Q 2644 1847 2626 2009 
Q 2609 2172 2521 2305 
Q 2434 2438 2289 2511 
Q 2144 2584 1938 2584 
Q 1725 2584 1583 2526 
Q 1441 2469 1294 2331 
Q 1147 2194 1117 2101 
Q 1088 2009 1088 1747 
L 1088 1191 
Q 1088 1122 1100 748 
Q 1113 375 1127 312 
Q 1141 250 1169 222 
Q 1197 194 1237 186 
Q 1278 178 1575 159 
L 1603 134 
L 1603 3 
L 1578 -25 
Q 1188 0 825 0 
Q 466 0 75 -25 
L 47 3 
L 47 134 
L 75 159 
Q 378 178 417 187 
Q 456 197 486 226 
Q 516 256 527 317 
Q 538 378 552 720 
Q 566 1063 566 1238 
L 566 2856 
L 553 3519 
Q 544 3866 533 4000 
Q 522 4134 503 4159 
Q 484 4184 437 4196 
Q 391 4209 59 4209 
L 31 4238 
L 31 4369 
L 56 4397 
Q 653 4466 1063 4628 
z
" transform="scale(0.015625)"/>
        <path id="PalatinoLinotype-Roman-72" d="M 1200 2978 
L 1259 2938 
Q 1241 2756 1231 2294 
L 1466 2591 
Q 1581 2738 1670 2817 
Q 1759 2897 1878 2940 
Q 1997 2984 2122 2984 
Q 2259 2984 2381 2928 
L 2403 2884 
Q 2353 2469 2347 2153 
L 2206 2153 
Q 2081 2441 1803 2441 
Q 1609 2441 1465 2317 
Q 1322 2194 1273 2008 
Q 1225 1822 1225 1538 
L 1225 1191 
Q 1225 1097 1237 731 
Q 1250 366 1264 309 
Q 1278 253 1308 226 
Q 1338 200 1386 190 
Q 1434 181 1831 159 
L 1859 134 
L 1859 3 
L 1831 -25 
Q 1416 0 963 0 
Q 603 0 213 -25 
L 184 3 
L 184 134 
L 213 159 
Q 516 178 555 187 
Q 594 197 623 226 
Q 653 256 664 317 
Q 675 378 689 720 
Q 703 1063 703 1238 
L 703 1853 
Q 703 1978 690 2193 
Q 678 2409 670 2459 
Q 663 2509 622 2532 
Q 581 2556 459 2556 
L 197 2559 
L 169 2584 
L 169 2719 
L 194 2744 
Q 791 2816 1200 2978 
z
" transform="scale(0.015625)"/>
        <path id="PalatinoLinotype-Roman-2f" d="M 0 -738 
L 1688 4628 
L 1719 4653 
L 2031 4653 
L 2050 4622 
L 363 -741 
L 328 -769 
L 22 -769 
L 0 -738 
z
" transform="scale(0.015625)"/>
        <path id="PalatinoLinotype-Roman-70" d="M 1156 3016 
L 1216 2978 
Q 1184 2622 1181 2347 
Q 1606 2734 1773 2859 
Q 1941 2984 2350 2984 
Q 2606 2984 2815 2914 
Q 3025 2844 3203 2683 
Q 3381 2522 3484 2280 
Q 3588 2038 3588 1719 
Q 3588 1494 3516 1262 
Q 3444 1031 3326 834 
Q 3209 638 3139 573 
Q 3069 509 2850 381 
Q 2653 263 2459 125 
Q 2325 28 2272 0 
Q 2219 -28 2094 -56 
Q 1969 -84 1828 -84 
Q 1503 -84 1181 81 
L 1181 -584 
Q 1181 -653 1193 -1026 
Q 1206 -1400 1220 -1462 
Q 1234 -1525 1262 -1553 
Q 1291 -1581 1331 -1589 
Q 1372 -1597 1669 -1616 
L 1697 -1641 
L 1697 -1772 
L 1672 -1800 
Q 1281 -1775 922 -1775 
Q 563 -1775 172 -1800 
L 144 -1772 
L 144 -1641 
L 172 -1616 
Q 472 -1597 512 -1587 
Q 553 -1578 583 -1548 
Q 613 -1519 623 -1453 
Q 634 -1388 648 -1034 
Q 663 -681 663 -503 
L 663 1891 
Q 663 2053 648 2267 
Q 634 2481 625 2515 
Q 616 2550 580 2572 
Q 544 2594 419 2594 
L 156 2597 
L 128 2622 
L 128 2756 
L 153 2781 
Q 750 2853 1156 3016 
z
M 1181 619 
Q 1325 472 1537 364 
Q 1750 256 2006 256 
Q 2309 256 2542 409 
Q 2775 563 2903 858 
Q 3031 1153 3031 1513 
Q 3031 1803 2917 2053 
Q 2803 2303 2564 2447 
Q 2325 2591 2056 2591 
Q 1891 2591 1734 2533 
Q 1578 2475 1442 2362 
Q 1306 2250 1247 2148 
Q 1188 2047 1184 1980 
Q 1181 1913 1181 1831 
L 1181 619 
z
" transform="scale(0.015625)"/>
        <path id="PalatinoLinotype-Roman-66" d="M 1800 159 
L 1825 134 
L 1825 3 
L 1800 -25 
Q 1703 -25 1434 -13 
Q 1191 0 931 0 
Q 594 0 178 -25 
L 153 3 
L 153 134 
L 178 159 
Q 481 178 522 187 
Q 563 197 591 226 
Q 619 256 630 317 
Q 641 378 655 720 
Q 669 1063 669 1238 
L 669 2444 
L 266 2422 
L 238 2447 
L 238 2525 
L 259 2556 
L 669 2766 
L 669 2953 
Q 669 3266 697 3427 
Q 725 3588 801 3723 
Q 878 3859 1068 4067 
Q 1259 4275 1403 4408 
Q 1547 4541 1653 4586 
Q 1759 4631 1903 4631 
Q 2022 4631 2159 4584 
L 2156 4072 
L 2084 4044 
Q 1909 4200 1678 4200 
Q 1516 4200 1397 4133 
Q 1278 4066 1234 3914 
Q 1191 3763 1191 3413 
L 1191 2766 
L 1525 2766 
Q 1784 2766 2016 2784 
L 2044 2750 
L 1988 2475 
L 1959 2444 
Q 1866 2447 1838 2447 
L 1431 2450 
L 1191 2450 
L 1191 1191 
Q 1191 1091 1205 733 
Q 1219 375 1231 312 
Q 1244 250 1273 222 
Q 1303 194 1370 181 
Q 1438 169 1800 159 
z
" transform="scale(0.015625)"/>
        <path id="PalatinoLinotype-Roman-20" transform="scale(0.015625)"/>
        <path id="PalatinoLinotype-Roman-6e" d="M 1069 2978 
L 1128 2938 
Q 1109 2728 1103 2388 
Q 1353 2594 1578 2806 
Q 1644 2866 1701 2894 
Q 1759 2922 1893 2953 
Q 2028 2984 2169 2984 
Q 2406 2984 2629 2887 
Q 2853 2791 2967 2658 
Q 3081 2525 3125 2344 
Q 3169 2163 3169 1897 
L 3169 1347 
Q 3169 1294 3184 569 
Q 3191 272 3250 215 
Q 3309 159 3638 159 
L 3663 134 
L 3663 0 
L 3638 -25 
Q 3241 0 3100 0 
Q 3019 0 2644 -25 
L 2606 9 
Q 2647 416 2647 1069 
L 2647 1478 
Q 2647 1847 2630 2009 
Q 2613 2172 2525 2305 
Q 2438 2438 2291 2511 
Q 2144 2584 1941 2584 
Q 1778 2584 1662 2551 
Q 1547 2519 1403 2417 
Q 1259 2316 1190 2227 
Q 1122 2138 1108 2061 
Q 1094 1984 1094 1734 
L 1094 1191 
Q 1094 1122 1106 748 
Q 1119 375 1133 312 
Q 1147 250 1175 222 
Q 1203 194 1243 186 
Q 1284 178 1581 159 
L 1609 134 
L 1609 3 
L 1584 -25 
Q 1194 0 831 0 
Q 472 0 81 -25 
L 53 3 
L 53 134 
L 81 159 
Q 384 178 423 187 
Q 463 197 492 226 
Q 522 256 533 317 
Q 544 378 558 720 
Q 572 1063 572 1238 
L 572 1853 
Q 572 1978 559 2193 
Q 547 2409 539 2459 
Q 531 2509 490 2532 
Q 450 2556 328 2556 
L 66 2559 
L 38 2584 
L 38 2719 
L 63 2744 
Q 659 2816 1069 2978 
z
" transform="scale(0.015625)"/>
        <path id="PalatinoLinotype-Roman-6f" d="M 213 1431 
Q 213 1803 366 2148 
Q 519 2494 898 2745 
Q 1278 2997 1800 2997 
Q 2456 2997 2868 2583 
Q 3281 2169 3281 1519 
Q 3281 803 2807 340 
Q 2334 -122 1666 -122 
Q 1228 -122 884 114 
Q 541 350 377 690 
Q 213 1031 213 1431 
z
M 803 1647 
Q 803 1209 915 864 
Q 1028 519 1272 309 
Q 1516 100 1828 100 
Q 2197 100 2437 392 
Q 2678 684 2678 1272 
Q 2678 1938 2417 2363 
Q 2156 2788 1666 2788 
Q 1259 2788 1031 2494 
Q 803 2200 803 1647 
z
M 1750 3175 
L 1750 3175 
z
M 1703 -188 
L 1703 -188 
z
" transform="scale(0.015625)"/>
        <path id="PalatinoLinotype-Roman-73" d="M 316 919 
L 450 919 
L 478 891 
Q 484 628 509 441 
Q 606 294 843 201 
Q 1081 109 1313 109 
Q 1644 109 1842 287 
Q 2041 466 2041 713 
Q 2041 847 1969 945 
Q 1897 1044 1751 1108 
Q 1606 1172 1231 1259 
Q 909 1334 781 1376 
Q 653 1419 534 1519 
Q 416 1619 353 1764 
Q 291 1909 291 2084 
Q 291 2503 623 2754 
Q 956 3006 1453 3006 
Q 1663 3006 1909 2948 
Q 2156 2891 2284 2838 
L 2313 2794 
Q 2288 2669 2281 2138 
L 2253 2109 
L 2128 2109 
L 2100 2138 
Q 2088 2328 2066 2404 
Q 2044 2481 1953 2570 
Q 1863 2659 1697 2720 
Q 1531 2781 1347 2781 
Q 1156 2781 1026 2725 
Q 897 2669 817 2555 
Q 738 2441 738 2278 
Q 738 2159 786 2065 
Q 834 1972 934 1914 
Q 1034 1856 1144 1831 
L 1484 1744 
Q 1922 1638 2111 1559 
Q 2300 1481 2403 1323 
Q 2506 1166 2506 941 
Q 2506 509 2150 200 
Q 1794 -109 1234 -109 
Q 1038 -109 745 -65 
Q 453 -22 247 31 
L 231 72 
L 263 281 
Q 278 378 281 476 
Q 284 575 288 891 
L 316 919 
z
" transform="scale(0.015625)"/>
        <path id="PalatinoLinotype-Roman-79" d="M 141 -1697 
Q 247 -1434 300 -1216 
L 375 -1216 
Q 528 -1381 706 -1381 
Q 928 -1381 1092 -1161 
Q 1256 -941 1556 -188 
Q 1438 147 1316 444 
L 819 1675 
Q 741 1866 587 2220 
Q 434 2575 404 2611 
Q 375 2647 328 2678 
Q 281 2709 75 2738 
L 50 2763 
L 50 2888 
L 78 2913 
Q 438 2891 816 2891 
Q 1259 2891 1500 2913 
L 1525 2888 
L 1525 2763 
L 1503 2738 
Q 1469 2734 1311 2723 
Q 1153 2713 1114 2673 
Q 1075 2634 1075 2584 
Q 1075 2531 1172 2239 
Q 1269 1947 1359 1722 
L 1556 1234 
Q 1750 753 1856 525 
L 2022 891 
Q 2109 1091 2272 1497 
L 2531 2159 
Q 2631 2416 2645 2478 
Q 2659 2541 2659 2569 
Q 2659 2638 2609 2663 
Q 2559 2688 2388 2706 
L 2256 2725 
L 2234 2750 
L 2234 2888 
L 2259 2913 
Q 2522 2891 2881 2891 
Q 3209 2891 3406 2913 
L 3431 2888 
L 3431 2750 
L 3406 2725 
Q 3291 2722 3222 2694 
Q 3153 2666 3090 2594 
Q 3028 2522 2865 2189 
Q 2703 1856 2541 1500 
L 2234 828 
L 1513 -859 
Q 1419 -1078 1280 -1328 
Q 1141 -1578 939 -1689 
Q 738 -1800 513 -1800 
Q 316 -1800 141 -1697 
z
M 1813 3175 
L 1813 3175 
z
M 2547 -188 
L 2547 -188 
z
" transform="scale(0.015625)"/>
       </defs>
       <use xlink:href="#PalatinoLinotype-Roman-4f"/>
       <use xlink:href="#PalatinoLinotype-Roman-74" x="78.613281"/>
       <use xlink:href="#PalatinoLinotype-Roman-68" x="111.230469"/>
       <use xlink:href="#PalatinoLinotype-Roman-65" x="169.433594"/>
       <use xlink:href="#PalatinoLinotype-Roman-72" x="217.333984"/>
       <use xlink:href="#PalatinoLinotype-Roman-2f" x="256.835938"/>
       <use xlink:href="#PalatinoLinotype-Roman-70" x="288.867188"/>
       <use xlink:href="#PalatinoLinotype-Roman-72" x="348.974609"/>
       <use xlink:href="#PalatinoLinotype-Roman-65" x="388.476562"/>
       <use xlink:href="#PalatinoLinotype-Roman-66" x="436.376953"/>
       <use xlink:href="#PalatinoLinotype-Roman-65" x="469.677734"/>
       <use xlink:href="#PalatinoLinotype-Roman-72" x="517.578125"/>
       <use xlink:href="#PalatinoLinotype-Roman-20" x="557.080078"/>
       <use xlink:href="#PalatinoLinotype-Roman-6e" x="582.080078"/>
       <use xlink:href="#PalatinoLinotype-Roman-6f" x="640.283203"/>
       <use xlink:href="#PalatinoLinotype-Roman-74" x="694.873047"/>
       <use xlink:href="#PalatinoLinotype-Roman-20" x="727.490234"/>
       <use xlink:href="#PalatinoLinotype-Roman-74" x="752.490234"/>
       <use xlink:href="#PalatinoLinotype-Roman-6f" x="785.107422"/>
       <use xlink:href="#PalatinoLinotype-Roman-20" x="839.697266"/>
       <use xlink:href="#PalatinoLinotype-Roman-73" x="864.697266"/>
       <use xlink:href="#PalatinoLinotype-Roman-61" x="907.080078"/>
       <use xlink:href="#PalatinoLinotype-Roman-79" x="957.080078"/>
      </g>
     </g>
    </g>
    <g id="text_4">
     <!-- Gender -->
     <g transform="translate(198.44 261.395938)scale(0.16 -0.16)">
      <defs>
       <path id="PalatinoLinotype-Bold-47" d="M 5025 1578 
L 4994 1544 
Q 4800 1497 4769 1414 
Q 4738 1331 4738 781 
Q 4738 516 4763 256 
Q 3719 -138 2869 -138 
Q 1750 -138 1058 489 
Q 366 1116 366 2197 
Q 366 3606 1588 4206 
Q 2147 4481 3009 4481 
Q 3509 4481 4022 4372 
Q 4444 4281 4688 4166 
L 4716 4109 
Q 4634 3834 4581 3153 
L 4547 3122 
L 4359 3122 
L 4328 3153 
Q 4328 3213 4315 3398 
Q 4303 3584 4284 3659 
Q 4147 3847 3816 3978 
Q 3459 4116 3047 4116 
Q 1941 4116 1519 3222 
Q 1325 2809 1325 2266 
Q 1325 1397 1788 825 
Q 2269 231 3041 231 
Q 3450 231 3831 406 
Q 3853 625 3853 1006 
Q 3853 1316 3831 1381 
Q 3813 1431 3713 1453 
Q 3628 1472 3184 1500 
L 3150 1531 
L 3150 1728 
L 3184 1759 
Q 3638 1747 4134 1750 
Q 4422 1753 4994 1759 
L 5025 1728 
L 5025 1578 
z
" transform="scale(0.015625)"/>
       <path id="PalatinoLinotype-Bold-65" d="M 2975 1753 
Q 2975 1700 2972 1594 
L 2938 1550 
Q 2525 1438 1844 1438 
Q 1722 1438 1475 1433 
Q 1228 1428 1103 1428 
Q 1122 969 1388 669 
Q 1666 347 2113 347 
Q 2413 347 2825 553 
L 2900 463 
L 2763 153 
Q 2306 -138 1772 -138 
Q 1069 -138 680 259 
Q 291 656 291 1391 
Q 291 2263 706 2584 
Q 1281 3028 1797 3028 
Q 2356 3028 2663 2706 
Q 2975 2375 2975 1753 
z
M 2159 1834 
Q 2159 2678 1634 2678 
Q 1081 2678 1081 1841 
L 1081 1772 
Q 1263 1744 1725 1744 
Q 1966 1744 2156 1772 
Q 2159 1816 2159 1834 
z
M 1781 -244 
L 1781 -244 
z
M 1781 3181 
L 1781 3181 
z
" transform="scale(0.015625)"/>
       <path id="PalatinoLinotype-Bold-6e" d="M 3775 13 
L 3744 -22 
Q 3400 0 3163 0 
Q 2944 0 2525 -22 
L 2494 9 
Q 2550 706 2550 1084 
L 2550 1697 
Q 2550 2459 2000 2459 
Q 1713 2459 1550 2263 
Q 1413 2097 1413 1928 
L 1413 1344 
Q 1413 534 1453 350 
Q 1478 241 1816 234 
L 1847 203 
L 1847 13 
L 1816 -19 
Q 1550 0 1022 0 
Q 463 0 169 -22 
L 138 9 
L 138 200 
L 169 231 
Q 469 241 541 278 
Q 603 306 609 428 
Q 631 834 631 1300 
L 631 1747 
Q 631 2372 584 2466 
Q 553 2528 450 2544 
Q 413 2550 178 2559 
L 147 2591 
L 147 2766 
L 178 2800 
Q 741 2853 1363 3059 
L 1431 3019 
L 1425 2494 
L 1963 2944 
Q 2169 3028 2416 3028 
Q 2913 3028 3159 2728 
Q 3359 2484 3359 2013 
Q 3359 1959 3346 1578 
Q 3334 1197 3334 1034 
Q 3334 563 3350 433 
Q 3366 303 3422 268 
Q 3478 234 3747 228 
L 3775 197 
L 3775 13 
z
" transform="scale(0.015625)"/>
       <path id="PalatinoLinotype-Bold-64" d="M 3750 9 
L 3719 -22 
Q 3413 0 3166 0 
Q 2931 0 2531 -22 
L 2503 0 
Q 2516 153 2516 513 
Q 2403 419 2194 225 
Q 1934 -16 1856 -63 
Q 1756 -109 1531 -109 
Q 997 -109 669 294 
Q 341 697 341 1338 
Q 341 1959 594 2306 
Q 659 2397 981 2628 
Q 1356 2897 1528 2969 
Q 1678 3031 1909 3031 
Q 2234 3031 2516 2894 
L 2516 3069 
Q 2516 3891 2475 4038 
Q 2453 4119 2347 4138 
Q 2297 4147 2059 4156 
L 2028 4191 
L 2028 4363 
L 2059 4397 
Q 2659 4459 3269 4656 
L 3338 4619 
Q 3338 4606 3325 4309 
Q 3297 3638 3297 2291 
L 3297 1281 
Q 3297 403 3338 316 
Q 3363 263 3406 250 
Q 3475 228 3719 209 
L 3750 178 
L 3750 9 
z
M 2516 1641 
L 2516 2228 
Q 2291 2497 2084 2572 
Q 1944 2622 1784 2622 
Q 1353 2622 1228 2178 
Q 1159 1931 1159 1628 
Q 1159 981 1463 669 
Q 1622 503 1891 503 
Q 2113 503 2303 644 
Q 2475 769 2506 913 
Q 2516 956 2516 1641 
z
" transform="scale(0.015625)"/>
       <path id="PalatinoLinotype-Bold-72" d="M 2484 3019 
L 2463 2463 
Q 2459 2325 2450 2150 
L 2319 2109 
Q 2172 2322 1913 2322 
Q 1678 2322 1525 2134 
Q 1431 2019 1431 1794 
L 1431 1063 
Q 1431 834 1453 428 
Q 1459 313 1518 278 
Q 1578 244 1953 231 
L 1984 203 
L 1984 13 
L 1953 -19 
Q 1494 0 1041 0 
Q 481 0 188 -22 
L 156 9 
L 156 200 
L 188 231 
Q 488 241 559 278 
Q 622 306 628 428 
Q 650 834 650 1300 
L 650 1747 
Q 650 2372 603 2466 
Q 572 2528 469 2544 
Q 431 2550 197 2559 
L 166 2591 
L 166 2766 
L 197 2800 
Q 759 2853 1381 3059 
L 1450 3019 
L 1444 2406 
Q 1638 2631 1913 2931 
Q 2041 3056 2263 3056 
Q 2394 3056 2484 3019 
z
" transform="scale(0.015625)"/>
      </defs>
      <use xlink:href="#PalatinoLinotype-Bold-47"/>
      <use xlink:href="#PalatinoLinotype-Bold-65" x="83.300781"/>
      <use xlink:href="#PalatinoLinotype-Bold-6e" x="133.300781"/>
      <use xlink:href="#PalatinoLinotype-Bold-64" x="194.384766"/>
      <use xlink:href="#PalatinoLinotype-Bold-65" x="255.46875"/>
      <use xlink:href="#PalatinoLinotype-Bold-72" x="305.46875"/>
     </g>
    </g>
   </g>
   <g id="matplotlib.axis_2">
    <g id="ytick_1">
     <g id="line2d_7">
      <path d="M 58.59 224.64 
L 393.39 224.64 
" clip-path="url(#p445f5241ff)" style="fill: none; stroke: #b0b0b0; stroke-width: 0.8; stroke-linecap: square"/>
     </g>
     <g id="line2d_8">
      <defs>
       <path id="m2f219cbfb0" d="M 0 0 
L -3.5 0 
" style="stroke: #000000; stroke-width: 0.8"/>
      </defs>
      <g>
       <use xlink:href="#m2f219cbfb0" x="58.59" y="224.64" style="stroke: #000000; stroke-width: 0.8"/>
      </g>
     </g>
     <g id="text_5">
      <!-- 0.00 -->
      <g transform="translate(27.09 229.701875)scale(0.14 -0.14)">
       <defs>
        <path id="PalatinoLinotype-Roman-30" d="M 194 1909 
Q 194 2466 250 2911 
Q 306 3356 498 3704 
Q 691 4053 980 4226 
Q 1269 4400 1638 4400 
Q 2056 4400 2373 4184 
Q 2691 3969 2830 3522 
Q 2969 3075 2969 2306 
Q 2969 1056 2586 465 
Q 2203 -125 1525 -125 
Q 1184 -125 923 22 
Q 663 169 495 447 
Q 328 725 261 1103 
Q 194 1481 194 1909 
z
M 731 2091 
Q 731 1497 820 1009 
Q 909 522 1117 308 
Q 1325 94 1613 94 
Q 1891 94 2077 284 
Q 2263 475 2348 937 
Q 2434 1400 2434 2081 
Q 2434 3150 2231 3662 
Q 2028 4175 1559 4175 
Q 1150 4175 940 3778 
Q 731 3381 731 2091 
z
" transform="scale(0.015625)"/>
        <path id="PalatinoLinotype-Roman-2e" d="M 800 691 
Q 950 691 1061 584 
Q 1172 478 1172 316 
Q 1172 163 1062 53 
Q 953 -56 800 -56 
Q 644 -56 534 51 
Q 425 159 425 316 
Q 425 472 534 581 
Q 644 691 800 691 
z
" transform="scale(0.015625)"/>
       </defs>
       <use xlink:href="#PalatinoLinotype-Roman-30"/>
       <use xlink:href="#PalatinoLinotype-Roman-2e" x="50"/>
       <use xlink:href="#PalatinoLinotype-Roman-30" x="75"/>
       <use xlink:href="#PalatinoLinotype-Roman-30" x="125"/>
      </g>
     </g>
    </g>
    <g id="ytick_2">
     <g id="line2d_9">
      <path d="M 58.59 201.384385 
L 393.39 201.384385 
" clip-path="url(#p445f5241ff)" style="fill: none; stroke: #b0b0b0; stroke-width: 0.8; stroke-linecap: square"/>
     </g>
     <g id="line2d_10">
      <g>
       <use xlink:href="#m2f219cbfb0" x="58.59" y="201.384385" style="stroke: #000000; stroke-width: 0.8"/>
      </g>
     </g>
     <g id="text_6">
      <!-- 0.06 -->
      <g transform="translate(27.09 206.44626)scale(0.14 -0.14)">
       <defs>
        <path id="PalatinoLinotype-Roman-36" d="M 2700 4322 
L 2700 4284 
Q 2359 4213 1923 3944 
Q 1488 3675 1191 3222 
Q 894 2769 847 2128 
Q 953 2203 1091 2309 
Q 1269 2444 1351 2494 
Q 1434 2544 1573 2581 
Q 1713 2619 1894 2619 
Q 2216 2619 2472 2476 
Q 2728 2334 2856 2057 
Q 2984 1781 2984 1413 
Q 2984 891 2731 539 
Q 2478 188 2193 36 
Q 1909 -116 1541 -116 
Q 913 -116 566 354 
Q 219 825 219 1578 
Q 219 2078 364 2539 
Q 509 3000 806 3373 
Q 1103 3747 1564 4037 
Q 2025 4328 2472 4431 
L 2700 4322 
z
M 788 1341 
Q 788 1031 877 728 
Q 966 425 1162 259 
Q 1359 94 1625 94 
Q 1853 94 2047 222 
Q 2241 350 2342 623 
Q 2444 897 2444 1200 
Q 2444 1503 2344 1742 
Q 2244 1981 2053 2114 
Q 1863 2247 1609 2247 
Q 1422 2247 1234 2156 
Q 1047 2066 945 1950 
Q 844 1834 816 1704 
Q 788 1575 788 1341 
z
" transform="scale(0.015625)"/>
       </defs>
       <use xlink:href="#PalatinoLinotype-Roman-30"/>
       <use xlink:href="#PalatinoLinotype-Roman-2e" x="50"/>
       <use xlink:href="#PalatinoLinotype-Roman-30" x="75"/>
       <use xlink:href="#PalatinoLinotype-Roman-36" x="125"/>
      </g>
     </g>
    </g>
    <g id="ytick_3">
     <g id="line2d_11">
      <path d="M 58.59 178.12877 
L 393.39 178.12877 
" clip-path="url(#p445f5241ff)" style="fill: none; stroke: #b0b0b0; stroke-width: 0.8; stroke-linecap: square"/>
     </g>
     <g id="line2d_12">
      <g>
       <use xlink:href="#m2f219cbfb0" x="58.59" y="178.12877" style="stroke: #000000; stroke-width: 0.8"/>
      </g>
     </g>
     <g id="text_7">
      <!-- 0.12 -->
      <g transform="translate(27.09 183.190645)scale(0.14 -0.14)">
       <defs>
        <path id="PalatinoLinotype-Roman-31" d="M 478 3531 
L 422 3550 
L 391 3806 
L 422 3838 
Q 734 3928 1212 4128 
Q 1691 4328 1897 4434 
L 1978 4403 
Q 1928 3034 1928 2759 
L 1928 1600 
Q 1928 1172 1937 795 
Q 1947 419 1965 351 
Q 1984 284 2029 246 
Q 2075 209 2156 198 
Q 2238 188 2641 166 
L 2663 141 
L 2663 0 
L 2641 -25 
Q 1956 0 1675 0 
Q 1463 0 634 -25 
L 613 0 
L 613 141 
L 638 166 
Q 1106 200 1173 215 
Q 1241 231 1277 270 
Q 1313 309 1334 418 
Q 1356 528 1370 1065 
Q 1384 1603 1384 1616 
L 1384 2847 
Q 1384 3753 1379 3831 
Q 1375 3909 1325 3909 
Q 1313 3909 1291 3903 
Q 1269 3897 1153 3847 
L 844 3709 
Q 650 3625 478 3531 
z
" transform="scale(0.015625)"/>
        <path id="PalatinoLinotype-Roman-32" d="M 144 -31 
L 106 0 
L 106 144 
L 1153 1253 
Q 1800 1938 1990 2313 
Q 2181 2688 2181 3013 
Q 2181 3394 1950 3647 
Q 1719 3900 1325 3900 
Q 1072 3900 884 3822 
Q 697 3744 633 3647 
Q 569 3550 447 3103 
L 419 3078 
L 291 3078 
L 259 3106 
Q 331 3528 359 3941 
Q 653 4228 908 4308 
Q 1163 4388 1441 4388 
Q 1772 4388 2075 4263 
Q 2378 4138 2562 3858 
Q 2747 3578 2747 3209 
Q 2747 2934 2639 2657 
Q 2531 2381 2323 2123 
Q 2116 1866 1756 1506 
L 781 513 
L 2016 513 
Q 2584 513 2963 553 
L 2984 528 
Q 2966 422 2966 250 
Q 2966 94 2984 3 
L 2963 -31 
Q 2738 -19 2272 -9 
Q 1806 0 1656 0 
Q 1353 0 840 -8 
Q 328 -16 144 -31 
z
" transform="scale(0.015625)"/>
       </defs>
       <use xlink:href="#PalatinoLinotype-Roman-30"/>
       <use xlink:href="#PalatinoLinotype-Roman-2e" x="50"/>
       <use xlink:href="#PalatinoLinotype-Roman-31" x="75"/>
       <use xlink:href="#PalatinoLinotype-Roman-32" x="125"/>
      </g>
     </g>
    </g>
    <g id="ytick_4">
     <g id="line2d_13">
      <path d="M 58.59 154.873155 
L 393.39 154.873155 
" clip-path="url(#p445f5241ff)" style="fill: none; stroke: #b0b0b0; stroke-width: 0.8; stroke-linecap: square"/>
     </g>
     <g id="line2d_14">
      <g>
       <use xlink:href="#m2f219cbfb0" x="58.59" y="154.873155" style="stroke: #000000; stroke-width: 0.8"/>
      </g>
     </g>
     <g id="text_8">
      <!-- 0.18 -->
      <g transform="translate(27.09 159.93503)scale(0.14 -0.14)">
       <defs>
        <path id="PalatinoLinotype-Roman-38" d="M 1050 2216 
Q 703 2400 523 2639 
Q 344 2878 344 3219 
Q 344 3697 697 4039 
Q 1050 4381 1659 4381 
Q 1969 4381 2233 4273 
Q 2497 4166 2640 3952 
Q 2784 3738 2784 3475 
Q 2784 3200 2615 2948 
Q 2447 2697 2019 2438 
L 2019 2409 
Q 2384 2234 2561 2112 
Q 2738 1991 2850 1783 
Q 2963 1575 2963 1303 
Q 2963 931 2748 589 
Q 2534 247 2184 69 
Q 1834 -109 1459 -109 
Q 913 -109 556 197 
Q 200 503 200 1013 
Q 200 1425 445 1723 
Q 691 2022 1050 2188 
L 1050 2216 
z
M 1778 2516 
Q 2113 2725 2231 2936 
Q 2350 3147 2350 3391 
Q 2350 3750 2144 3959 
Q 1938 4169 1591 4169 
Q 1259 4169 1040 3983 
Q 822 3797 822 3463 
Q 822 3209 964 3023 
Q 1106 2838 1778 2516 
z
M 1303 2103 
Q 934 1884 790 1632 
Q 647 1381 647 1063 
Q 647 616 897 361 
Q 1147 106 1541 106 
Q 1809 106 2028 231 
Q 2247 356 2355 573 
Q 2463 791 2463 1047 
Q 2463 1416 2205 1622 
Q 1947 1828 1303 2103 
z
" transform="scale(0.015625)"/>
       </defs>
       <use xlink:href="#PalatinoLinotype-Roman-30"/>
       <use xlink:href="#PalatinoLinotype-Roman-2e" x="50"/>
       <use xlink:href="#PalatinoLinotype-Roman-31" x="75"/>
       <use xlink:href="#PalatinoLinotype-Roman-38" x="125"/>
      </g>
     </g>
    </g>
    <g id="ytick_5">
     <g id="line2d_15">
      <path d="M 58.59 131.61754 
L 393.39 131.61754 
" clip-path="url(#p445f5241ff)" style="fill: none; stroke: #b0b0b0; stroke-width: 0.8; stroke-linecap: square"/>
     </g>
     <g id="line2d_16">
      <g>
       <use xlink:href="#m2f219cbfb0" x="58.59" y="131.61754" style="stroke: #000000; stroke-width: 0.8"/>
      </g>
     </g>
     <g id="text_9">
      <!-- 0.24 -->
      <g transform="translate(27.09 136.679415)scale(0.14 -0.14)">
       <defs>
        <path id="PalatinoLinotype-Roman-34" d="M 1028 -25 
L 1003 0 
L 1003 134 
L 1028 159 
Q 1491 172 1577 187 
Q 1663 203 1703 253 
Q 1744 303 1764 497 
Q 1784 691 1784 909 
L 1784 1141 
L 1100 1141 
Q 503 1141 91 1122 
L 38 1291 
Q 581 2309 1853 4241 
L 2294 4419 
L 2372 4381 
Q 2338 3850 2338 3066 
L 2328 2184 
L 2328 1538 
Q 2759 1541 2994 1556 
L 3022 1525 
Q 3016 1406 3016 1353 
Q 3019 1250 3025 1150 
L 2994 1122 
Q 2691 1141 2488 1141 
L 2328 1141 
L 2328 931 
Q 2328 581 2347 434 
Q 2366 288 2406 245 
Q 2447 203 2570 183 
Q 2694 163 2997 159 
L 3025 134 
L 3025 0 
L 3000 -25 
Q 2450 0 2078 0 
Q 1472 0 1028 -25 
z
M 450 1538 
L 1784 1538 
L 1813 3759 
Q 1513 3331 1056 2584 
Q 600 1838 450 1538 
z
" transform="scale(0.015625)"/>
       </defs>
       <use xlink:href="#PalatinoLinotype-Roman-30"/>
       <use xlink:href="#PalatinoLinotype-Roman-2e" x="50"/>
       <use xlink:href="#PalatinoLinotype-Roman-32" x="75"/>
       <use xlink:href="#PalatinoLinotype-Roman-34" x="125"/>
      </g>
     </g>
    </g>
    <g id="ytick_6">
     <g id="line2d_17">
      <path d="M 58.59 108.361925 
L 393.39 108.361925 
" clip-path="url(#p445f5241ff)" style="fill: none; stroke: #b0b0b0; stroke-width: 0.8; stroke-linecap: square"/>
     </g>
     <g id="line2d_18">
      <g>
       <use xlink:href="#m2f219cbfb0" x="58.59" y="108.361925" style="stroke: #000000; stroke-width: 0.8"/>
      </g>
     </g>
     <g id="text_10">
      <!-- 0.30 -->
      <g transform="translate(27.09 113.4238)scale(0.14 -0.14)">
       <defs>
        <path id="PalatinoLinotype-Roman-33" d="M 325 72 
Q 269 441 116 959 
L 131 1006 
L 247 1050 
L 291 1028 
Q 400 741 525 553 
Q 650 366 884 266 
Q 1119 166 1391 166 
Q 1734 166 1936 309 
Q 2138 453 2247 700 
Q 2356 947 2356 1256 
Q 2356 1672 2139 1909 
Q 1922 2147 1538 2147 
Q 1406 2147 1303 2122 
Q 1200 2097 984 2009 
L 950 2041 
L 1019 2381 
Q 1272 2366 1356 2366 
Q 1722 2366 1936 2625 
Q 2150 2884 2150 3238 
Q 2150 3547 1926 3756 
Q 1703 3966 1375 3966 
Q 1159 3966 967 3878 
Q 775 3791 650 3666 
Q 597 3559 481 3247 
L 450 3219 
L 309 3219 
L 284 3247 
L 472 3972 
Q 863 4413 1531 4413 
Q 2041 4413 2355 4142 
Q 2669 3872 2669 3463 
Q 2669 3150 2484 2889 
Q 2300 2628 1972 2397 
Q 2513 2331 2733 2073 
Q 2953 1816 2953 1450 
Q 2953 850 2409 370 
Q 1866 -109 1153 -109 
Q 941 -109 756 -73 
Q 572 -38 325 72 
z
" transform="scale(0.015625)"/>
       </defs>
       <use xlink:href="#PalatinoLinotype-Roman-30"/>
       <use xlink:href="#PalatinoLinotype-Roman-2e" x="50"/>
       <use xlink:href="#PalatinoLinotype-Roman-33" x="75"/>
       <use xlink:href="#PalatinoLinotype-Roman-30" x="125"/>
      </g>
     </g>
    </g>
    <g id="ytick_7">
     <g id="line2d_19">
      <path d="M 58.59 85.10631 
L 393.39 85.10631 
" clip-path="url(#p445f5241ff)" style="fill: none; stroke: #b0b0b0; stroke-width: 0.8; stroke-linecap: square"/>
     </g>
     <g id="line2d_20">
      <g>
       <use xlink:href="#m2f219cbfb0" x="58.59" y="85.10631" style="stroke: #000000; stroke-width: 0.8"/>
      </g>
     </g>
     <g id="text_11">
      <!-- 0.36 -->
      <g transform="translate(27.09 90.168185)scale(0.14 -0.14)">
       <use xlink:href="#PalatinoLinotype-Roman-30"/>
       <use xlink:href="#PalatinoLinotype-Roman-2e" x="50"/>
       <use xlink:href="#PalatinoLinotype-Roman-33" x="75"/>
       <use xlink:href="#PalatinoLinotype-Roman-36" x="125"/>
      </g>
     </g>
    </g>
    <g id="ytick_8">
     <g id="line2d_21">
      <path d="M 58.59 61.850695 
L 393.39 61.850695 
" clip-path="url(#p445f5241ff)" style="fill: none; stroke: #b0b0b0; stroke-width: 0.8; stroke-linecap: square"/>
     </g>
     <g id="line2d_22">
      <g>
       <use xlink:href="#m2f219cbfb0" x="58.59" y="61.850695" style="stroke: #000000; stroke-width: 0.8"/>
      </g>
     </g>
     <g id="text_12">
      <!-- 0.42 -->
      <g transform="translate(27.09 66.91257)scale(0.14 -0.14)">
       <use xlink:href="#PalatinoLinotype-Roman-30"/>
       <use xlink:href="#PalatinoLinotype-Roman-2e" x="50"/>
       <use xlink:href="#PalatinoLinotype-Roman-34" x="75"/>
       <use xlink:href="#PalatinoLinotype-Roman-32" x="125"/>
      </g>
     </g>
    </g>
    <g id="ytick_9">
     <g id="line2d_23">
      <path d="M 58.59 38.59508 
L 393.39 38.59508 
" clip-path="url(#p445f5241ff)" style="fill: none; stroke: #b0b0b0; stroke-width: 0.8; stroke-linecap: square"/>
     </g>
     <g id="line2d_24">
      <g>
       <use xlink:href="#m2f219cbfb0" x="58.59" y="38.59508" style="stroke: #000000; stroke-width: 0.8"/>
      </g>
     </g>
     <g id="text_13">
      <!-- 0.48 -->
      <g transform="translate(27.09 43.656955)scale(0.14 -0.14)">
       <use xlink:href="#PalatinoLinotype-Roman-30"/>
       <use xlink:href="#PalatinoLinotype-Roman-2e" x="50"/>
       <use xlink:href="#PalatinoLinotype-Roman-34" x="75"/>
       <use xlink:href="#PalatinoLinotype-Roman-38" x="125"/>
      </g>
     </g>
    </g>
    <g id="ytick_10">
     <g id="line2d_25">
      <path d="M 58.59 15.339465 
L 393.39 15.339465 
" clip-path="url(#p445f5241ff)" style="fill: none; stroke: #b0b0b0; stroke-width: 0.8; stroke-linecap: square"/>
     </g>
     <g id="line2d_26">
      <g>
       <use xlink:href="#m2f219cbfb0" x="58.59" y="15.339465" style="stroke: #000000; stroke-width: 0.8"/>
      </g>
     </g>
     <g id="text_14">
      <!-- 0.54 -->
      <g transform="translate(27.09 20.40134)scale(0.14 -0.14)">
       <defs>
        <path id="PalatinoLinotype-Roman-35" d="M 409 44 
Q 334 288 100 850 
L 106 891 
L 216 953 
L 253 944 
Q 513 472 577 408 
Q 641 344 869 258 
Q 1097 172 1350 172 
Q 1666 172 1909 309 
Q 2153 447 2272 715 
Q 2391 984 2391 1325 
Q 2391 1659 2273 1901 
Q 2156 2144 1915 2269 
Q 1675 2394 1397 2394 
Q 1222 2394 1080 2347 
Q 938 2300 842 2226 
Q 747 2153 616 2009 
L 488 2047 
L 522 2719 
Q 534 2909 534 3103 
L 534 3659 
Q 534 3909 519 4138 
Q 509 4278 509 4316 
L 550 4347 
Q 1028 4309 1641 4309 
Q 2106 4309 2756 4347 
L 2769 4316 
Q 2747 4163 2747 4031 
Q 2747 3966 2756 3813 
L 2725 3794 
Q 2369 3819 1769 3819 
Q 953 3819 822 3813 
Q 775 3444 756 2513 
Q 1013 2700 1219 2767 
Q 1425 2834 1666 2834 
Q 2006 2834 2318 2678 
Q 2631 2522 2786 2225 
Q 2941 1928 2941 1584 
Q 2941 950 2417 417 
Q 1894 -116 1078 -116 
Q 859 -116 717 -78 
Q 575 -41 409 44 
z
" transform="scale(0.015625)"/>
       </defs>
       <use xlink:href="#PalatinoLinotype-Roman-30"/>
       <use xlink:href="#PalatinoLinotype-Roman-2e" x="50"/>
       <use xlink:href="#PalatinoLinotype-Roman-35" x="75"/>
       <use xlink:href="#PalatinoLinotype-Roman-34" x="125"/>
      </g>
     </g>
    </g>
    <g id="text_15">
     <!-- Proportion -->
     <g transform="translate(18.84 155.47625)rotate(-90)scale(0.16 -0.16)">
      <defs>
       <path id="PalatinoLinotype-Bold-50" d="M 3744 3431 
Q 3744 2788 3305 2427 
Q 2866 2066 2313 2066 
Q 2125 2066 1934 2109 
Q 1906 2194 1825 2334 
L 1891 2403 
Q 2022 2359 2131 2359 
Q 2447 2359 2637 2582 
Q 2828 2806 2828 3209 
Q 2828 4081 2044 4081 
Q 1950 4081 1669 4044 
Q 1641 3969 1641 3022 
L 1641 1369 
Q 1641 625 1681 400 
Q 1697 309 1788 284 
Q 1816 278 2216 253 
L 2250 219 
L 2250 13 
L 2219 -19 
Q 1791 0 1194 0 
Q 522 0 231 -19 
L 200 9 
L 200 219 
L 234 253 
Q 550 272 597 284 
Q 688 309 703 400 
Q 744 625 744 1369 
L 744 3022 
Q 744 3766 703 3991 
Q 688 4081 597 4106 
Q 550 4119 231 4138 
L 200 4172 
L 200 4378 
L 234 4409 
Q 541 4391 1175 4391 
Q 1438 4391 1931 4400 
Q 2425 4409 2500 4409 
Q 3356 4409 3613 3975 
Q 3744 3750 3744 3431 
z
" transform="scale(0.015625)"/>
       <path id="PalatinoLinotype-Bold-6f" d="M 3303 1550 
Q 3303 444 2559 53 
Q 2197 -138 1731 -138 
Q 1013 -138 636 278 
Q 259 694 259 1469 
Q 259 2541 991 2897 
Q 1350 3072 1825 3072 
Q 2822 3072 3147 2381 
Q 3303 2050 3303 1550 
z
M 2438 1294 
Q 2438 2072 2267 2408 
Q 2097 2744 1747 2744 
Q 1125 2744 1125 1622 
Q 1125 181 1822 181 
Q 2256 181 2375 659 
Q 2438 909 2438 1294 
z
M 1813 -244 
L 1813 -244 
z
M 1813 3181 
L 1813 3181 
z
" transform="scale(0.015625)"/>
       <path id="PalatinoLinotype-Bold-70" d="M 3613 1813 
Q 3613 1428 3475 1078 
Q 3375 822 3213 644 
Q 3141 566 2944 419 
Q 2738 253 2428 19 
Q 2244 -103 1959 -103 
Q 1688 -103 1416 -3 
L 1416 -1175 
Q 1416 -1319 1450 -1366 
Q 1469 -1391 1534 -1406 
Q 1584 -1419 1934 -1444 
L 1969 -1475 
L 1969 -1669 
L 1938 -1700 
Q 1516 -1675 978 -1675 
Q 584 -1675 191 -1700 
L 159 -1669 
L 159 -1481 
L 191 -1447 
Q 506 -1438 553 -1397 
Q 584 -1369 591 -1338 
Q 603 -1278 616 -1031 
Q 625 -844 628 -553 
L 634 -69 
L 634 1747 
Q 634 1778 616 2209 
Q 606 2413 582 2470 
Q 559 2528 453 2544 
Q 416 2550 178 2559 
L 147 2591 
L 147 2766 
L 178 2800 
Q 775 2853 1388 3059 
L 1456 3019 
Q 1456 2884 1428 2478 
Q 1638 2653 1956 2913 
Q 2109 3028 2428 3028 
Q 3203 3028 3484 2434 
Q 3613 2163 3613 1813 
z
M 2809 1428 
Q 2809 2109 2450 2347 
Q 2259 2472 2053 2472 
Q 1669 2472 1416 2156 
L 1416 606 
Q 1700 306 2041 306 
Q 2550 306 2722 834 
Q 2809 1100 2809 1428 
z
" transform="scale(0.015625)"/>
       <path id="PalatinoLinotype-Bold-74" d="M 2081 409 
Q 2059 384 1947 278 
Q 1763 103 1631 -41 
Q 1478 -91 1322 -91 
Q 888 -91 688 163 
Q 603 272 575 416 
Q 544 588 547 866 
L 556 1613 
L 556 2394 
L 472 2394 
L 306 2388 
L 178 2388 
L 144 2416 
L 144 2497 
L 169 2544 
Q 225 2581 344 2656 
Q 484 2744 556 2803 
L 556 3228 
Q 556 3494 531 3791 
Q 766 3866 911 3923 
Q 1056 3981 1322 4113 
L 1403 4050 
Q 1366 3663 1350 3356 
L 1322 2816 
L 1425 2816 
Q 1766 2816 2013 2838 
L 2047 2803 
L 2003 2438 
L 1972 2406 
L 1322 2406 
L 1322 1347 
Q 1322 838 1334 747 
Q 1350 616 1445 534 
Q 1541 453 1703 453 
Q 1831 453 2013 522 
L 2081 409 
z
" transform="scale(0.015625)"/>
       <path id="PalatinoLinotype-Bold-69" d="M 1522 4088 
Q 1522 3888 1381 3745 
Q 1241 3603 1044 3603 
Q 844 3603 703 3745 
Q 563 3888 563 4088 
Q 563 4294 705 4434 
Q 847 4575 1044 4575 
Q 1238 4575 1380 4434 
Q 1522 4294 1522 4088 
z
M 1953 9 
L 1922 -22 
Q 1625 0 1066 0 
Q 506 0 213 -22 
L 181 9 
L 181 200 
L 213 231 
Q 513 241 584 278 
Q 647 306 653 428 
Q 675 834 675 1300 
L 675 1747 
Q 675 2353 628 2466 
Q 603 2528 494 2544 
Q 456 2550 222 2559 
L 191 2591 
L 191 2766 
L 222 2800 
Q 822 2853 1431 3059 
L 1497 3019 
Q 1456 2450 1456 2059 
L 1456 1063 
Q 1456 834 1478 428 
Q 1484 306 1547 278 
Q 1619 241 1919 231 
L 1953 200 
L 1953 9 
z
M 1066 -244 
L 1066 -244 
z
" transform="scale(0.015625)"/>
      </defs>
      <use xlink:href="#PalatinoLinotype-Bold-50"/>
      <use xlink:href="#PalatinoLinotype-Bold-72" x="61.035156"/>
      <use xlink:href="#PalatinoLinotype-Bold-6f" x="99.951172"/>
      <use xlink:href="#PalatinoLinotype-Bold-70" x="155.566406"/>
      <use xlink:href="#PalatinoLinotype-Bold-6f" x="216.650391"/>
      <use xlink:href="#PalatinoLinotype-Bold-72" x="272.265625"/>
      <use xlink:href="#PalatinoLinotype-Bold-74" x="311.181641"/>
      <use xlink:href="#PalatinoLinotype-Bold-69" x="344.482422"/>
      <use xlink:href="#PalatinoLinotype-Bold-6f" x="377.783203"/>
      <use xlink:href="#PalatinoLinotype-Bold-6e" x="433.398438"/>
     </g>
    </g>
   </g>
   <g id="patch_3">
    <path d="M 73.808182 224.64 
L 160.769221 224.64 
L 160.769221 26.967273 
L 73.808182 26.967273 
z
" clip-path="url(#p445f5241ff)" style="fill: #1f77b4; stroke: #000000; stroke-linejoin: miter"/>
   </g>
   <g id="patch_4">
    <path d="M 182.509481 224.64 
L 269.470519 224.64 
L 269.470519 32.781176 
L 182.509481 32.781176 
z
" clip-path="url(#p445f5241ff)" style="fill: #1f77b4; stroke: #000000; stroke-linejoin: miter"/>
   </g>
   <g id="patch_5">
    <path d="M 291.210779 224.64 
L 378.171818 224.64 
L 378.171818 224.64 
L 291.210779 224.64 
z
" clip-path="url(#p445f5241ff)" style="fill: #1f77b4; stroke: #000000; stroke-linejoin: miter"/>
   </g>
   <g id="patch_6">
    <path d="M 58.59 224.64 
L 58.59 7.2 
" style="fill: none; stroke: #000000; stroke-width: 0.8; stroke-linejoin: miter; stroke-linecap: square"/>
   </g>
   <g id="patch_7">
    <path d="M 393.39 224.64 
L 393.39 7.2 
" style="fill: none; stroke: #000000; stroke-width: 0.8; stroke-linejoin: miter; stroke-linecap: square"/>
   </g>
   <g id="patch_8">
    <path d="M 58.59 224.64 
L 393.39 224.64 
" style="fill: none; stroke: #000000; stroke-width: 0.8; stroke-linejoin: miter; stroke-linecap: square"/>
   </g>
   <g id="patch_9">
    <path d="M 58.59 7.2 
L 393.39 7.2 
" style="fill: none; stroke: #000000; stroke-width: 0.8; stroke-linejoin: miter; stroke-linecap: square"/>
   </g>
   <g id="text_16">
    <!-- 34 -->
    <g transform="translate(110.288701 21.053045)scale(0.14 -0.14)">
     <use xlink:href="#PalatinoLinotype-Roman-33"/>
     <use xlink:href="#PalatinoLinotype-Roman-34" x="50"/>
    </g>
   </g>
   <g id="text_17">
    <!-- 33 -->
    <g transform="translate(218.99 26.925088)scale(0.14 -0.14)">
     <use xlink:href="#PalatinoLinotype-Roman-33"/>
     <use xlink:href="#PalatinoLinotype-Roman-33" x="50"/>
    </g>
   </g>
   <g id="text_18">
    <!-- 0 -->
    <g transform="translate(331.191299 220.7025)scale(0.14 -0.14)">
     <use xlink:href="#PalatinoLinotype-Roman-30"/>
    </g>
   </g>
  </g>
 </g>
 <defs>
  <clipPath id="p445f5241ff">
   <rect x="58.59" y="7.2" width="334.8" height="217.44"/>
  </clipPath>
 </defs>
</svg>
