<?xml version="1.0" encoding="utf-8" standalone="no"?>
<!DOCTYPE svg PUBLIC "-//W3C//DTD SVG 1.1//EN"
  "http://www.w3.org/Graphics/SVG/1.1/DTD/svg11.dtd">
<svg xmlns:xlink="http://www.w3.org/1999/xlink" width="400.59pt" height="272.90125pt" viewBox="0 0 400.59 272.90125" xmlns="http://www.w3.org/2000/svg" version="1.1">
 <metadata>
  <rdf:RDF xmlns:dc="http://purl.org/dc/elements/1.1/" xmlns:cc="http://creativecommons.org/ns#" xmlns:rdf="http://www.w3.org/1999/02/22-rdf-syntax-ns#">
   <cc:Work>
    <dc:type rdf:resource="http://purl.org/dc/dcmitype/StillImage"/>
    <dc:date>2022-06-03T12:19:01.503941</dc:date>
    <dc:format>image/svg+xml</dc:format>
    <dc:creator>
     <cc:Agent>
      <dc:title>Matplotlib v3.5.2, https://matplotlib.org/</dc:title>
     </cc:Agent>
    </dc:creator>
   </cc:Work>
  </rdf:RDF>
 </metadata>
 <defs>
  <style type="text/css">*{stroke-linejoin: round; stroke-linecap: butt}</style>
 </defs>
 <g id="figure_1">
  <g id="patch_1">
   <path d="M 0 272.90125 
L 400.59 272.90125 
L 400.59 0 
L 0 0 
L 0 272.90125 
z
" style="fill: none"/>
  </g>
  <g id="axes_1">
   <g id="patch_2">
    <path d="M 58.59 224.64 
L 393.39 224.64 
L 393.39 7.2 
L 58.59 7.2 
z
" style="fill: #ffffff"/>
   </g>
   <g id="matplotlib.axis_1">
    <g id="xtick_1">
     <g id="line2d_1">
      <path d="M 91.711925 224.64 
L 91.711925 7.2 
" clip-path="url(#pd1a3cba55c)" style="fill: none; stroke: #b0b0b0; stroke-width: 0.8; stroke-linecap: square"/>
     </g>
     <g id="line2d_2">
      <defs>
       <path id="m77412ec184" d="M 0 0 
L 0 3.5 
" style="stroke: #000000; stroke-width: 0.8"/>
      </defs>
      <g>
       <use xlink:href="#m77412ec184" x="91.711925" y="224.64" style="stroke: #000000; stroke-width: 0.8"/>
      </g>
     </g>
     <g id="text_1">
      <!-- 10-19 -->
      <g transform="translate(75.381144 241.76375)scale(0.14 -0.14)">
       <defs>
        <path id="PalatinoLinotype-Roman-31" d="M 478 3531 
L 422 3550 
L 391 3806 
L 422 3838 
Q 734 3928 1212 4128 
Q 1691 4328 1897 4434 
L 1978 4403 
Q 1928 3034 1928 2759 
L 1928 1600 
Q 1928 1172 1937 795 
Q 1947 419 1965 351 
Q 1984 284 2029 246 
Q 2075 209 2156 198 
Q 2238 188 2641 166 
L 2663 141 
L 2663 0 
L 2641 -25 
Q 1956 0 1675 0 
Q 1463 0 634 -25 
L 613 0 
L 613 141 
L 638 166 
Q 1106 200 1173 215 
Q 1241 231 1277 270 
Q 1313 309 1334 418 
Q 1356 528 1370 1065 
Q 1384 1603 1384 1616 
L 1384 2847 
Q 1384 3753 1379 3831 
Q 1375 3909 1325 3909 
Q 1313 3909 1291 3903 
Q 1269 3897 1153 3847 
L 844 3709 
Q 650 3625 478 3531 
z
" transform="scale(0.015625)"/>
        <path id="PalatinoLinotype-Roman-30" d="M 194 1909 
Q 194 2466 250 2911 
Q 306 3356 498 3704 
Q 691 4053 980 4226 
Q 1269 4400 1638 4400 
Q 2056 4400 2373 4184 
Q 2691 3969 2830 3522 
Q 2969 3075 2969 2306 
Q 2969 1056 2586 465 
Q 2203 -125 1525 -125 
Q 1184 -125 923 22 
Q 663 169 495 447 
Q 328 725 261 1103 
Q 194 1481 194 1909 
z
M 731 2091 
Q 731 1497 820 1009 
Q 909 522 1117 308 
Q 1325 94 1613 94 
Q 1891 94 2077 284 
Q 2263 475 2348 937 
Q 2434 1400 2434 2081 
Q 2434 3150 2231 3662 
Q 2028 4175 1559 4175 
Q 1150 4175 940 3778 
Q 731 3381 731 2091 
z
" transform="scale(0.015625)"/>
        <path id="PalatinoLinotype-Roman-2d" d="M 141 1344 
L 141 1388 
L 281 1806 
L 1953 1806 
L 1953 1759 
L 1803 1344 
L 141 1344 
z
" transform="scale(0.015625)"/>
        <path id="PalatinoLinotype-Roman-39" d="M 416 -25 
L 416 34 
Q 1284 234 1781 798 
Q 2278 1363 2341 2178 
Q 1881 1631 1313 1631 
Q 953 1631 686 1803 
Q 419 1975 291 2250 
Q 163 2525 163 2894 
Q 163 3572 570 3981 
Q 978 4391 1581 4391 
Q 2191 4391 2567 3950 
Q 2944 3509 2944 2681 
Q 2944 2316 2875 1980 
Q 2806 1644 2615 1291 
Q 2425 938 2111 634 
Q 1797 331 1401 129 
Q 1006 -72 622 -125 
L 416 -25 
z
M 703 3097 
Q 703 2825 798 2564 
Q 894 2303 1091 2161 
Q 1288 2019 1553 2019 
Q 1922 2019 2147 2267 
Q 2372 2516 2372 3009 
Q 2372 3522 2150 3848 
Q 1928 4175 1541 4175 
Q 1169 4175 936 3900 
Q 703 3625 703 3097 
z
" transform="scale(0.015625)"/>
       </defs>
       <use xlink:href="#PalatinoLinotype-Roman-31"/>
       <use xlink:href="#PalatinoLinotype-Roman-30" x="50"/>
       <use xlink:href="#PalatinoLinotype-Roman-2d" x="100"/>
       <use xlink:href="#PalatinoLinotype-Roman-31" x="133.300781"/>
       <use xlink:href="#PalatinoLinotype-Roman-39" x="183.300781"/>
      </g>
     </g>
    </g>
    <g id="xtick_2">
     <g id="line2d_3">
      <path d="M 136.471283 224.64 
L 136.471283 7.2 
" clip-path="url(#pd1a3cba55c)" style="fill: none; stroke: #b0b0b0; stroke-width: 0.8; stroke-linecap: square"/>
     </g>
     <g id="line2d_4">
      <g>
       <use xlink:href="#m77412ec184" x="136.471283" y="224.64" style="stroke: #000000; stroke-width: 0.8"/>
      </g>
     </g>
     <g id="text_2">
      <!-- 20-29 -->
      <g transform="translate(120.140502 241.76375)scale(0.14 -0.14)">
       <defs>
        <path id="PalatinoLinotype-Roman-32" d="M 144 -31 
L 106 0 
L 106 144 
L 1153 1253 
Q 1800 1938 1990 2313 
Q 2181 2688 2181 3013 
Q 2181 3394 1950 3647 
Q 1719 3900 1325 3900 
Q 1072 3900 884 3822 
Q 697 3744 633 3647 
Q 569 3550 447 3103 
L 419 3078 
L 291 3078 
L 259 3106 
Q 331 3528 359 3941 
Q 653 4228 908 4308 
Q 1163 4388 1441 4388 
Q 1772 4388 2075 4263 
Q 2378 4138 2562 3858 
Q 2747 3578 2747 3209 
Q 2747 2934 2639 2657 
Q 2531 2381 2323 2123 
Q 2116 1866 1756 1506 
L 781 513 
L 2016 513 
Q 2584 513 2963 553 
L 2984 528 
Q 2966 422 2966 250 
Q 2966 94 2984 3 
L 2963 -31 
Q 2738 -19 2272 -9 
Q 1806 0 1656 0 
Q 1353 0 840 -8 
Q 328 -16 144 -31 
z
" transform="scale(0.015625)"/>
       </defs>
       <use xlink:href="#PalatinoLinotype-Roman-32"/>
       <use xlink:href="#PalatinoLinotype-Roman-30" x="50"/>
       <use xlink:href="#PalatinoLinotype-Roman-2d" x="100"/>
       <use xlink:href="#PalatinoLinotype-Roman-32" x="133.300781"/>
       <use xlink:href="#PalatinoLinotype-Roman-39" x="183.300781"/>
      </g>
     </g>
    </g>
    <g id="xtick_3">
     <g id="line2d_5">
      <path d="M 181.230642 224.64 
L 181.230642 7.2 
" clip-path="url(#pd1a3cba55c)" style="fill: none; stroke: #b0b0b0; stroke-width: 0.8; stroke-linecap: square"/>
     </g>
     <g id="line2d_6">
      <g>
       <use xlink:href="#m77412ec184" x="181.230642" y="224.64" style="stroke: #000000; stroke-width: 0.8"/>
      </g>
     </g>
     <g id="text_3">
      <!-- 30-39 -->
      <g transform="translate(164.89986 241.76375)scale(0.14 -0.14)">
       <defs>
        <path id="PalatinoLinotype-Roman-33" d="M 325 72 
Q 269 441 116 959 
L 131 1006 
L 247 1050 
L 291 1028 
Q 400 741 525 553 
Q 650 366 884 266 
Q 1119 166 1391 166 
Q 1734 166 1936 309 
Q 2138 453 2247 700 
Q 2356 947 2356 1256 
Q 2356 1672 2139 1909 
Q 1922 2147 1538 2147 
Q 1406 2147 1303 2122 
Q 1200 2097 984 2009 
L 950 2041 
L 1019 2381 
Q 1272 2366 1356 2366 
Q 1722 2366 1936 2625 
Q 2150 2884 2150 3238 
Q 2150 3547 1926 3756 
Q 1703 3966 1375 3966 
Q 1159 3966 967 3878 
Q 775 3791 650 3666 
Q 597 3559 481 3247 
L 450 3219 
L 309 3219 
L 284 3247 
L 472 3972 
Q 863 4413 1531 4413 
Q 2041 4413 2355 4142 
Q 2669 3872 2669 3463 
Q 2669 3150 2484 2889 
Q 2300 2628 1972 2397 
Q 2513 2331 2733 2073 
Q 2953 1816 2953 1450 
Q 2953 850 2409 370 
Q 1866 -109 1153 -109 
Q 941 -109 756 -73 
Q 572 -38 325 72 
z
" transform="scale(0.015625)"/>
       </defs>
       <use xlink:href="#PalatinoLinotype-Roman-33"/>
       <use xlink:href="#PalatinoLinotype-Roman-30" x="50"/>
       <use xlink:href="#PalatinoLinotype-Roman-2d" x="100"/>
       <use xlink:href="#PalatinoLinotype-Roman-33" x="133.300781"/>
       <use xlink:href="#PalatinoLinotype-Roman-39" x="183.300781"/>
      </g>
     </g>
    </g>
    <g id="xtick_4">
     <g id="line2d_7">
      <path d="M 225.99 224.64 
L 225.99 7.2 
" clip-path="url(#pd1a3cba55c)" style="fill: none; stroke: #b0b0b0; stroke-width: 0.8; stroke-linecap: square"/>
     </g>
     <g id="line2d_8">
      <g>
       <use xlink:href="#m77412ec184" x="225.99" y="224.64" style="stroke: #000000; stroke-width: 0.8"/>
      </g>
     </g>
     <g id="text_4">
      <!-- 40-49 -->
      <g transform="translate(209.659219 241.76375)scale(0.14 -0.14)">
       <defs>
        <path id="PalatinoLinotype-Roman-34" d="M 1028 -25 
L 1003 0 
L 1003 134 
L 1028 159 
Q 1491 172 1577 187 
Q 1663 203 1703 253 
Q 1744 303 1764 497 
Q 1784 691 1784 909 
L 1784 1141 
L 1100 1141 
Q 503 1141 91 1122 
L 38 1291 
Q 581 2309 1853 4241 
L 2294 4419 
L 2372 4381 
Q 2338 3850 2338 3066 
L 2328 2184 
L 2328 1538 
Q 2759 1541 2994 1556 
L 3022 1525 
Q 3016 1406 3016 1353 
Q 3019 1250 3025 1150 
L 2994 1122 
Q 2691 1141 2488 1141 
L 2328 1141 
L 2328 931 
Q 2328 581 2347 434 
Q 2366 288 2406 245 
Q 2447 203 2570 183 
Q 2694 163 2997 159 
L 3025 134 
L 3025 0 
L 3000 -25 
Q 2450 0 2078 0 
Q 1472 0 1028 -25 
z
M 450 1538 
L 1784 1538 
L 1813 3759 
Q 1513 3331 1056 2584 
Q 600 1838 450 1538 
z
" transform="scale(0.015625)"/>
       </defs>
       <use xlink:href="#PalatinoLinotype-Roman-34"/>
       <use xlink:href="#PalatinoLinotype-Roman-30" x="50"/>
       <use xlink:href="#PalatinoLinotype-Roman-2d" x="100"/>
       <use xlink:href="#PalatinoLinotype-Roman-34" x="133.300781"/>
       <use xlink:href="#PalatinoLinotype-Roman-39" x="183.300781"/>
      </g>
     </g>
    </g>
    <g id="xtick_5">
     <g id="line2d_9">
      <path d="M 270.749358 224.64 
L 270.749358 7.2 
" clip-path="url(#pd1a3cba55c)" style="fill: none; stroke: #b0b0b0; stroke-width: 0.8; stroke-linecap: square"/>
     </g>
     <g id="line2d_10">
      <g>
       <use xlink:href="#m77412ec184" x="270.749358" y="224.64" style="stroke: #000000; stroke-width: 0.8"/>
      </g>
     </g>
     <g id="text_5">
      <!-- 50-59 -->
      <g transform="translate(254.418577 241.76375)scale(0.14 -0.14)">
       <defs>
        <path id="PalatinoLinotype-Roman-35" d="M 409 44 
Q 334 288 100 850 
L 106 891 
L 216 953 
L 253 944 
Q 513 472 577 408 
Q 641 344 869 258 
Q 1097 172 1350 172 
Q 1666 172 1909 309 
Q 2153 447 2272 715 
Q 2391 984 2391 1325 
Q 2391 1659 2273 1901 
Q 2156 2144 1915 2269 
Q 1675 2394 1397 2394 
Q 1222 2394 1080 2347 
Q 938 2300 842 2226 
Q 747 2153 616 2009 
L 488 2047 
L 522 2719 
Q 534 2909 534 3103 
L 534 3659 
Q 534 3909 519 4138 
Q 509 4278 509 4316 
L 550 4347 
Q 1028 4309 1641 4309 
Q 2106 4309 2756 4347 
L 2769 4316 
Q 2747 4163 2747 4031 
Q 2747 3966 2756 3813 
L 2725 3794 
Q 2369 3819 1769 3819 
Q 953 3819 822 3813 
Q 775 3444 756 2513 
Q 1013 2700 1219 2767 
Q 1425 2834 1666 2834 
Q 2006 2834 2318 2678 
Q 2631 2522 2786 2225 
Q 2941 1928 2941 1584 
Q 2941 950 2417 417 
Q 1894 -116 1078 -116 
Q 859 -116 717 -78 
Q 575 -41 409 44 
z
" transform="scale(0.015625)"/>
       </defs>
       <use xlink:href="#PalatinoLinotype-Roman-35"/>
       <use xlink:href="#PalatinoLinotype-Roman-30" x="50"/>
       <use xlink:href="#PalatinoLinotype-Roman-2d" x="100"/>
       <use xlink:href="#PalatinoLinotype-Roman-35" x="133.300781"/>
       <use xlink:href="#PalatinoLinotype-Roman-39" x="183.300781"/>
      </g>
     </g>
    </g>
    <g id="xtick_6">
     <g id="line2d_11">
      <path d="M 315.508717 224.64 
L 315.508717 7.2 
" clip-path="url(#pd1a3cba55c)" style="fill: none; stroke: #b0b0b0; stroke-width: 0.8; stroke-linecap: square"/>
     </g>
     <g id="line2d_12">
      <g>
       <use xlink:href="#m77412ec184" x="315.508717" y="224.64" style="stroke: #000000; stroke-width: 0.8"/>
      </g>
     </g>
     <g id="text_6">
      <!-- 60-69 -->
      <g transform="translate(299.177935 241.76375)scale(0.14 -0.14)">
       <defs>
        <path id="PalatinoLinotype-Roman-36" d="M 2700 4322 
L 2700 4284 
Q 2359 4213 1923 3944 
Q 1488 3675 1191 3222 
Q 894 2769 847 2128 
Q 953 2203 1091 2309 
Q 1269 2444 1351 2494 
Q 1434 2544 1573 2581 
Q 1713 2619 1894 2619 
Q 2216 2619 2472 2476 
Q 2728 2334 2856 2057 
Q 2984 1781 2984 1413 
Q 2984 891 2731 539 
Q 2478 188 2193 36 
Q 1909 -116 1541 -116 
Q 913 -116 566 354 
Q 219 825 219 1578 
Q 219 2078 364 2539 
Q 509 3000 806 3373 
Q 1103 3747 1564 4037 
Q 2025 4328 2472 4431 
L 2700 4322 
z
M 788 1341 
Q 788 1031 877 728 
Q 966 425 1162 259 
Q 1359 94 1625 94 
Q 1853 94 2047 222 
Q 2241 350 2342 623 
Q 2444 897 2444 1200 
Q 2444 1503 2344 1742 
Q 2244 1981 2053 2114 
Q 1863 2247 1609 2247 
Q 1422 2247 1234 2156 
Q 1047 2066 945 1950 
Q 844 1834 816 1704 
Q 788 1575 788 1341 
z
" transform="scale(0.015625)"/>
       </defs>
       <use xlink:href="#PalatinoLinotype-Roman-36"/>
       <use xlink:href="#PalatinoLinotype-Roman-30" x="50"/>
       <use xlink:href="#PalatinoLinotype-Roman-2d" x="100"/>
       <use xlink:href="#PalatinoLinotype-Roman-36" x="133.300781"/>
       <use xlink:href="#PalatinoLinotype-Roman-39" x="183.300781"/>
      </g>
     </g>
    </g>
    <g id="xtick_7">
     <g id="line2d_13">
      <path d="M 360.268075 224.64 
L 360.268075 7.2 
" clip-path="url(#pd1a3cba55c)" style="fill: none; stroke: #b0b0b0; stroke-width: 0.8; stroke-linecap: square"/>
     </g>
     <g id="line2d_14">
      <g>
       <use xlink:href="#m77412ec184" x="360.268075" y="224.64" style="stroke: #000000; stroke-width: 0.8"/>
      </g>
     </g>
     <g id="text_7">
      <!-- 70-79 -->
      <g transform="translate(343.937294 241.76375)scale(0.14 -0.14)">
       <defs>
        <path id="PalatinoLinotype-Roman-37" d="M 422 -25 
L 356 41 
Q 469 209 822 766 
L 1394 1678 
L 1931 2556 
L 2400 3363 
Q 2550 3625 2638 3788 
L 2606 3819 
L 1638 3819 
Q 1272 3819 987 3806 
Q 703 3794 653 3770 
Q 603 3747 583 3712 
Q 563 3678 538 3475 
L 481 3034 
L 453 3009 
L 322 3009 
L 294 3034 
L 309 3891 
Q 309 4038 294 4344 
L 356 4375 
Q 528 4356 1054 4334 
Q 1581 4313 1759 4313 
Q 2394 4313 3144 4356 
L 3169 4331 
L 3169 4169 
L 2719 3372 
Q 2309 2641 1784 1639 
Q 1259 638 1019 0 
L 988 -25 
Q 809 -9 719 -9 
Q 575 -9 422 -25 
z
" transform="scale(0.015625)"/>
       </defs>
       <use xlink:href="#PalatinoLinotype-Roman-37"/>
       <use xlink:href="#PalatinoLinotype-Roman-30" x="50"/>
       <use xlink:href="#PalatinoLinotype-Roman-2d" x="100"/>
       <use xlink:href="#PalatinoLinotype-Roman-37" x="133.300781"/>
       <use xlink:href="#PalatinoLinotype-Roman-39" x="183.300781"/>
      </g>
     </g>
    </g>
    <g id="text_8">
     <!-- Length of residence in Singapore (years) -->
     <g transform="translate(78.725 261.38125)scale(0.16 -0.16)">
      <defs>
       <path id="PalatinoLinotype-Bold-4c" d="M 3641 1044 
Q 3572 588 3572 13 
L 3541 -19 
L 1269 0 
Q 700 0 466 -19 
L 434 13 
L 434 100 
L 450 138 
Q 681 284 700 322 
Q 728 378 734 738 
L 744 1438 
L 744 3022 
Q 744 3766 703 3991 
Q 688 4081 597 4106 
Q 550 4119 231 4138 
L 200 4169 
L 200 4381 
L 231 4409 
Q 553 4391 1175 4391 
Q 1819 4391 2153 4409 
L 2184 4381 
L 2184 4166 
L 2153 4138 
Q 1834 4119 1788 4106 
Q 1697 4081 1681 3991 
Q 1641 3766 1641 3022 
L 1641 1153 
Q 1641 744 1656 359 
L 2081 359 
Q 2994 359 3200 431 
Q 3234 444 3250 466 
Q 3281 509 3309 653 
L 3384 1041 
L 3416 1075 
L 3606 1075 
L 3641 1044 
z
" transform="scale(0.015625)"/>
       <path id="PalatinoLinotype-Bold-65" d="M 2975 1753 
Q 2975 1700 2972 1594 
L 2938 1550 
Q 2525 1438 1844 1438 
Q 1722 1438 1475 1433 
Q 1228 1428 1103 1428 
Q 1122 969 1388 669 
Q 1666 347 2113 347 
Q 2413 347 2825 553 
L 2900 463 
L 2763 153 
Q 2306 -138 1772 -138 
Q 1069 -138 680 259 
Q 291 656 291 1391 
Q 291 2263 706 2584 
Q 1281 3028 1797 3028 
Q 2356 3028 2663 2706 
Q 2975 2375 2975 1753 
z
M 2159 1834 
Q 2159 2678 1634 2678 
Q 1081 2678 1081 1841 
L 1081 1772 
Q 1263 1744 1725 1744 
Q 1966 1744 2156 1772 
Q 2159 1816 2159 1834 
z
M 1781 -244 
L 1781 -244 
z
M 1781 3181 
L 1781 3181 
z
" transform="scale(0.015625)"/>
       <path id="PalatinoLinotype-Bold-6e" d="M 3775 13 
L 3744 -22 
Q 3400 0 3163 0 
Q 2944 0 2525 -22 
L 2494 9 
Q 2550 706 2550 1084 
L 2550 1697 
Q 2550 2459 2000 2459 
Q 1713 2459 1550 2263 
Q 1413 2097 1413 1928 
L 1413 1344 
Q 1413 534 1453 350 
Q 1478 241 1816 234 
L 1847 203 
L 1847 13 
L 1816 -19 
Q 1550 0 1022 0 
Q 463 0 169 -22 
L 138 9 
L 138 200 
L 169 231 
Q 469 241 541 278 
Q 603 306 609 428 
Q 631 834 631 1300 
L 631 1747 
Q 631 2372 584 2466 
Q 553 2528 450 2544 
Q 413 2550 178 2559 
L 147 2591 
L 147 2766 
L 178 2800 
Q 741 2853 1363 3059 
L 1431 3019 
L 1425 2494 
L 1963 2944 
Q 2169 3028 2416 3028 
Q 2913 3028 3159 2728 
Q 3359 2484 3359 2013 
Q 3359 1959 3346 1578 
Q 3334 1197 3334 1034 
Q 3334 563 3350 433 
Q 3366 303 3422 268 
Q 3478 234 3747 228 
L 3775 197 
L 3775 13 
z
" transform="scale(0.015625)"/>
       <path id="PalatinoLinotype-Bold-67" d="M 3491 -216 
Q 3491 -900 2980 -1306 
Q 2469 -1713 1644 -1713 
Q 997 -1713 620 -1470 
Q 244 -1228 244 -819 
Q 244 -544 366 -403 
Q 378 -388 697 -197 
Q 850 -106 922 -69 
Q 491 6 491 347 
Q 491 528 616 716 
Q 625 728 784 841 
Q 859 894 1050 1031 
Q 375 1275 375 1934 
Q 375 2444 756 2755 
Q 1138 3066 1772 3066 
Q 2384 3066 2731 2794 
Q 2928 2784 2984 2788 
Q 3138 2794 3447 2803 
L 3484 2769 
L 3450 2447 
L 3416 2416 
L 2953 2416 
Q 2994 2266 2994 2109 
Q 2994 1366 2272 1094 
Q 1947 972 1631 972 
Q 1525 972 1356 988 
Q 1159 881 1159 709 
Q 1159 550 1388 528 
Q 1519 516 1825 516 
Q 1922 516 2162 525 
Q 2403 534 2519 534 
Q 3225 534 3397 222 
Q 3491 53 3491 -216 
z
M 2206 1969 
Q 2206 2756 1678 2756 
Q 1159 2756 1159 2075 
Q 1159 1269 1700 1269 
Q 2206 1269 2206 1969 
z
M 2775 -572 
Q 2775 -231 2538 -144 
Q 2438 -106 2138 -103 
L 1544 -97 
Q 1444 -97 1269 -103 
Q 841 -369 841 -713 
Q 841 -1028 1094 -1208 
Q 1347 -1388 1772 -1388 
Q 2228 -1388 2501 -1167 
Q 2775 -947 2775 -572 
z
" transform="scale(0.015625)"/>
       <path id="PalatinoLinotype-Bold-74" d="M 2081 409 
Q 2059 384 1947 278 
Q 1763 103 1631 -41 
Q 1478 -91 1322 -91 
Q 888 -91 688 163 
Q 603 272 575 416 
Q 544 588 547 866 
L 556 1613 
L 556 2394 
L 472 2394 
L 306 2388 
L 178 2388 
L 144 2416 
L 144 2497 
L 169 2544 
Q 225 2581 344 2656 
Q 484 2744 556 2803 
L 556 3228 
Q 556 3494 531 3791 
Q 766 3866 911 3923 
Q 1056 3981 1322 4113 
L 1403 4050 
Q 1366 3663 1350 3356 
L 1322 2816 
L 1425 2816 
Q 1766 2816 2013 2838 
L 2047 2803 
L 2003 2438 
L 1972 2406 
L 1322 2406 
L 1322 1347 
Q 1322 838 1334 747 
Q 1350 616 1445 534 
Q 1541 453 1703 453 
Q 1831 453 2013 522 
L 2081 409 
z
" transform="scale(0.015625)"/>
       <path id="PalatinoLinotype-Bold-68" d="M 3775 13 
L 3744 -22 
Q 3400 0 3163 0 
Q 2944 0 2525 -22 
L 2494 9 
Q 2550 706 2550 1084 
L 2550 1697 
Q 2550 2459 2000 2459 
Q 1706 2459 1544 2256 
Q 1413 2094 1413 1838 
L 1413 1469 
Q 1413 834 1434 428 
Q 1441 306 1503 278 
Q 1575 241 1875 231 
L 1909 200 
L 1909 9 
L 1878 -22 
Q 1581 0 1022 0 
Q 463 0 169 -22 
L 138 9 
L 138 200 
L 169 231 
Q 469 241 541 278 
Q 603 306 609 428 
Q 631 834 631 1850 
L 631 2897 
Q 631 3553 609 3959 
Q 603 4075 540 4111 
Q 478 4147 178 4156 
L 147 4191 
L 147 4363 
L 178 4397 
Q 781 4463 1388 4656 
L 1453 4619 
Q 1453 4534 1444 4309 
Q 1413 3563 1413 2656 
L 1413 2481 
L 1963 2944 
Q 2169 3028 2416 3028 
Q 2913 3028 3159 2728 
Q 3359 2484 3359 2013 
Q 3359 1959 3346 1631 
Q 3334 1303 3334 1034 
Q 3334 563 3350 433 
Q 3366 303 3422 268 
Q 3478 234 3747 228 
L 3775 197 
L 3775 13 
z
" transform="scale(0.015625)"/>
       <path id="PalatinoLinotype-Bold-20" transform="scale(0.015625)"/>
       <path id="PalatinoLinotype-Bold-6f" d="M 3303 1550 
Q 3303 444 2559 53 
Q 2197 -138 1731 -138 
Q 1013 -138 636 278 
Q 259 694 259 1469 
Q 259 2541 991 2897 
Q 1350 3072 1825 3072 
Q 2822 3072 3147 2381 
Q 3303 2050 3303 1550 
z
M 2438 1294 
Q 2438 2072 2267 2408 
Q 2097 2744 1747 2744 
Q 1125 2744 1125 1622 
Q 1125 181 1822 181 
Q 2256 181 2375 659 
Q 2438 909 2438 1294 
z
M 1813 -244 
L 1813 -244 
z
M 1813 3181 
L 1813 3181 
z
" transform="scale(0.015625)"/>
       <path id="PalatinoLinotype-Bold-66" d="M 2438 4628 
L 2425 4294 
L 2431 3981 
L 2334 3925 
Q 2184 4081 1953 4081 
Q 1591 4081 1547 3803 
Q 1525 3663 1525 3241 
L 1525 2803 
L 1809 2803 
Q 2022 2803 2359 2828 
L 2403 2794 
L 2331 2438 
L 2300 2406 
L 1853 2409 
Q 1616 2409 1525 2406 
L 1525 1850 
Q 1525 431 1569 334 
Q 1594 278 1653 263 
Q 1747 241 2084 231 
L 2116 200 
L 2116 9 
L 2084 -22 
L 1853 -13 
Q 1522 0 1134 0 
Q 575 0 281 -22 
L 250 9 
L 250 200 
L 281 231 
Q 581 241 653 278 
Q 716 306 722 428 
Q 744 834 744 1850 
L 744 2406 
Q 675 2409 659 2409 
Q 625 2409 478 2400 
Q 406 2397 281 2391 
L 250 2422 
L 250 2519 
L 278 2563 
L 556 2706 
Q 638 2744 728 2797 
Q 744 2816 744 2853 
L 744 2900 
Q 744 3381 806 3556 
Q 841 3650 938 3769 
Q 966 3803 1344 4163 
L 1538 4347 
Q 1622 4431 1753 4547 
Q 1925 4672 2172 4672 
Q 2303 4672 2438 4628 
z
" transform="scale(0.015625)"/>
       <path id="PalatinoLinotype-Bold-72" d="M 2484 3019 
L 2463 2463 
Q 2459 2325 2450 2150 
L 2319 2109 
Q 2172 2322 1913 2322 
Q 1678 2322 1525 2134 
Q 1431 2019 1431 1794 
L 1431 1063 
Q 1431 834 1453 428 
Q 1459 313 1518 278 
Q 1578 244 1953 231 
L 1984 203 
L 1984 13 
L 1953 -19 
Q 1494 0 1041 0 
Q 481 0 188 -22 
L 156 9 
L 156 200 
L 188 231 
Q 488 241 559 278 
Q 622 306 628 428 
Q 650 834 650 1300 
L 650 1747 
Q 650 2372 603 2466 
Q 572 2528 469 2544 
Q 431 2550 197 2559 
L 166 2591 
L 166 2766 
L 197 2800 
Q 759 2853 1381 3059 
L 1450 3019 
L 1444 2406 
Q 1638 2631 1913 2931 
Q 2041 3056 2263 3056 
Q 2394 3056 2484 3019 
z
" transform="scale(0.015625)"/>
       <path id="PalatinoLinotype-Bold-73" d="M 2622 981 
Q 2622 478 2242 170 
Q 1863 -138 1250 -138 
Q 816 -138 319 50 
L 284 97 
Q 313 384 319 544 
L 334 938 
L 366 972 
L 550 972 
L 588 938 
Q 600 588 616 525 
Q 881 184 1313 184 
Q 1588 184 1753 318 
Q 1919 453 1919 678 
Q 1919 963 1669 1056 
Q 1563 1097 1247 1163 
Q 731 1272 556 1413 
Q 291 1625 291 2041 
Q 291 2494 619 2769 
Q 963 3056 1550 3056 
Q 2050 3056 2381 2888 
L 2409 2838 
Q 2375 2697 2356 2116 
L 2322 2084 
L 2144 2084 
L 2109 2116 
Q 2097 2341 2066 2481 
Q 1869 2731 1494 2731 
Q 1250 2731 1094 2612 
Q 938 2494 938 2300 
Q 938 2041 1203 1953 
Q 1322 1916 1666 1847 
Q 2191 1744 2359 1609 
Q 2622 1400 2622 981 
z
" transform="scale(0.015625)"/>
       <path id="PalatinoLinotype-Bold-69" d="M 1522 4088 
Q 1522 3888 1381 3745 
Q 1241 3603 1044 3603 
Q 844 3603 703 3745 
Q 563 3888 563 4088 
Q 563 4294 705 4434 
Q 847 4575 1044 4575 
Q 1238 4575 1380 4434 
Q 1522 4294 1522 4088 
z
M 1953 9 
L 1922 -22 
Q 1625 0 1066 0 
Q 506 0 213 -22 
L 181 9 
L 181 200 
L 213 231 
Q 513 241 584 278 
Q 647 306 653 428 
Q 675 834 675 1300 
L 675 1747 
Q 675 2353 628 2466 
Q 603 2528 494 2544 
Q 456 2550 222 2559 
L 191 2591 
L 191 2766 
L 222 2800 
Q 822 2853 1431 3059 
L 1497 3019 
Q 1456 2450 1456 2059 
L 1456 1063 
Q 1456 834 1478 428 
Q 1484 306 1547 278 
Q 1619 241 1919 231 
L 1953 200 
L 1953 9 
z
M 1066 -244 
L 1066 -244 
z
" transform="scale(0.015625)"/>
       <path id="PalatinoLinotype-Bold-64" d="M 3750 9 
L 3719 -22 
Q 3413 0 3166 0 
Q 2931 0 2531 -22 
L 2503 0 
Q 2516 153 2516 513 
Q 2403 419 2194 225 
Q 1934 -16 1856 -63 
Q 1756 -109 1531 -109 
Q 997 -109 669 294 
Q 341 697 341 1338 
Q 341 1959 594 2306 
Q 659 2397 981 2628 
Q 1356 2897 1528 2969 
Q 1678 3031 1909 3031 
Q 2234 3031 2516 2894 
L 2516 3069 
Q 2516 3891 2475 4038 
Q 2453 4119 2347 4138 
Q 2297 4147 2059 4156 
L 2028 4191 
L 2028 4363 
L 2059 4397 
Q 2659 4459 3269 4656 
L 3338 4619 
Q 3338 4606 3325 4309 
Q 3297 3638 3297 2291 
L 3297 1281 
Q 3297 403 3338 316 
Q 3363 263 3406 250 
Q 3475 228 3719 209 
L 3750 178 
L 3750 9 
z
M 2516 1641 
L 2516 2228 
Q 2291 2497 2084 2572 
Q 1944 2622 1784 2622 
Q 1353 2622 1228 2178 
Q 1159 1931 1159 1628 
Q 1159 981 1463 669 
Q 1622 503 1891 503 
Q 2113 503 2303 644 
Q 2475 769 2506 913 
Q 2516 956 2516 1641 
z
" transform="scale(0.015625)"/>
       <path id="PalatinoLinotype-Bold-63" d="M 2691 394 
L 2553 84 
Q 2128 -138 1716 -138 
Q 1019 -138 650 262 
Q 281 663 281 1359 
Q 281 2003 566 2338 
Q 644 2431 863 2584 
Q 1313 2903 1464 2965 
Q 1616 3028 1928 3028 
Q 2353 3028 2631 2900 
L 2663 2844 
Q 2659 2803 2619 2553 
L 2584 2341 
Q 2575 2288 2556 1922 
L 2525 1891 
L 2338 1891 
L 2306 1922 
Q 2288 2200 2263 2309 
Q 2125 2553 1734 2553 
Q 1072 2553 1072 1694 
Q 1072 1069 1338 709 
Q 1609 338 2103 338 
Q 2403 338 2631 466 
L 2691 394 
z
" transform="scale(0.015625)"/>
       <path id="PalatinoLinotype-Bold-53" d="M 3575 1444 
Q 3575 928 3281 534 
Q 3025 188 2609 19 
Q 2228 -138 1700 -138 
Q 1044 -138 413 163 
L 375 231 
Q 463 591 463 1253 
L 494 1284 
L 694 1284 
L 722 1253 
L 722 1181 
Q 722 1006 759 719 
Q 872 519 1163 375 
Q 1466 225 1794 225 
Q 2413 225 2650 656 
Q 2772 878 2772 1116 
Q 2772 1516 2438 1688 
Q 2272 1772 1903 1828 
Q 1069 1956 806 2150 
Q 409 2444 409 3059 
Q 409 3700 841 4081 
Q 1297 4481 2109 4481 
Q 2841 4481 3291 4247 
L 3313 4172 
Q 3238 3800 3222 3278 
L 3188 3247 
L 2991 3247 
L 2959 3278 
Q 2950 3653 2928 3766 
Q 2831 3913 2591 4016 
Q 2334 4122 2056 4122 
Q 1638 4122 1394 3900 
Q 1166 3691 1166 3359 
Q 1166 3000 1425 2831 
Q 1594 2722 2222 2622 
Q 2288 2613 2588 2559 
Q 2772 2528 2928 2469 
Q 3244 2350 3403 2106 
Q 3575 1841 3575 1444 
z
" transform="scale(0.015625)"/>
       <path id="PalatinoLinotype-Bold-61" d="M 3053 19 
L 3019 -16 
Q 2756 0 2416 0 
Q 2150 0 1906 -16 
L 1878 19 
L 1906 438 
L 1300 -25 
Q 1228 -78 1094 -91 
Q 1041 -97 969 -97 
Q 622 -97 436 112 
Q 250 322 250 691 
Q 250 1178 559 1381 
Q 894 1603 1906 1781 
Q 1906 2278 1644 2447 
Q 1484 2550 1263 2550 
Q 1019 2550 878 2450 
L 759 2159 
L 719 2138 
L 559 2175 
L 538 2219 
L 553 2588 
Q 1069 2969 1328 3019 
Q 1438 3041 1613 3041 
Q 2228 3041 2491 2719 
Q 2681 2484 2681 2000 
Q 2681 1881 2672 1619 
Q 2656 1181 2656 1034 
Q 2656 563 2672 433 
Q 2688 303 2745 268 
Q 2803 234 3022 228 
L 3053 194 
L 3053 19 
z
M 1906 747 
L 1906 1516 
Q 1391 1403 1211 1273 
Q 1031 1144 1031 878 
Q 1031 453 1403 453 
Q 1719 453 1906 747 
z
M 1656 3181 
L 1656 3181 
z
M 1656 -244 
L 1656 -244 
z
" transform="scale(0.015625)"/>
       <path id="PalatinoLinotype-Bold-70" d="M 3613 1813 
Q 3613 1428 3475 1078 
Q 3375 822 3213 644 
Q 3141 566 2944 419 
Q 2738 253 2428 19 
Q 2244 -103 1959 -103 
Q 1688 -103 1416 -3 
L 1416 -1175 
Q 1416 -1319 1450 -1366 
Q 1469 -1391 1534 -1406 
Q 1584 -1419 1934 -1444 
L 1969 -1475 
L 1969 -1669 
L 1938 -1700 
Q 1516 -1675 978 -1675 
Q 584 -1675 191 -1700 
L 159 -1669 
L 159 -1481 
L 191 -1447 
Q 506 -1438 553 -1397 
Q 584 -1369 591 -1338 
Q 603 -1278 616 -1031 
Q 625 -844 628 -553 
L 634 -69 
L 634 1747 
Q 634 1778 616 2209 
Q 606 2413 582 2470 
Q 559 2528 453 2544 
Q 416 2550 178 2559 
L 147 2591 
L 147 2766 
L 178 2800 
Q 775 2853 1388 3059 
L 1456 3019 
Q 1456 2884 1428 2478 
Q 1638 2653 1956 2913 
Q 2109 3028 2428 3028 
Q 3203 3028 3484 2434 
Q 3613 2163 3613 1813 
z
M 2809 1428 
Q 2809 2109 2450 2347 
Q 2259 2472 2053 2472 
Q 1669 2472 1416 2156 
L 1416 606 
Q 1700 306 2041 306 
Q 2550 306 2722 834 
Q 2809 1100 2809 1428 
z
" transform="scale(0.015625)"/>
       <path id="PalatinoLinotype-Bold-28" d="M 1756 -697 
Q 1425 -503 1061 -32 
Q 697 438 548 895 
Q 400 1353 400 1950 
Q 400 2544 547 3006 
Q 694 3469 1023 3919 
Q 1353 4369 1744 4634 
L 1791 4634 
L 1913 4525 
L 1913 4478 
Q 1700 4219 1592 4026 
Q 1484 3834 1409 3545 
Q 1334 3256 1290 2829 
Q 1247 2403 1247 1903 
Q 1247 953 1401 415 
Q 1556 -122 1913 -525 
L 1913 -569 
L 1803 -691 
L 1756 -697 
z
" transform="scale(0.015625)"/>
       <path id="PalatinoLinotype-Bold-79" d="M 3491 2728 
L 3463 2700 
Q 3256 2700 3181 2581 
Q 3141 2513 2959 2122 
Q 2550 1231 2281 566 
L 1778 -678 
Q 1544 -1256 1275 -1500 
Q 1022 -1728 656 -1728 
Q 425 -1728 209 -1619 
Q 263 -1397 319 -997 
L 400 -981 
Q 563 -1213 841 -1213 
Q 1169 -1213 1444 -572 
L 1572 -272 
L 559 2359 
Q 472 2588 398 2642 
Q 325 2697 109 2700 
L 78 2731 
L 78 2919 
L 113 2950 
Q 313 2941 878 2941 
Q 1403 2941 1731 2950 
L 1763 2919 
L 1763 2731 
L 1731 2700 
Q 1375 2700 1375 2572 
Q 1375 2516 1406 2434 
Q 1456 2291 1559 2006 
L 2016 800 
L 2291 1459 
Q 2694 2425 2694 2588 
Q 2694 2700 2331 2700 
L 2300 2731 
L 2300 2919 
L 2334 2950 
Q 2516 2941 2947 2941 
Q 3191 2941 3456 2950 
L 3491 2919 
L 3491 2728 
z
M 2534 -244 
L 2534 -244 
z
M 1813 3181 
L 1813 3181 
z
" transform="scale(0.015625)"/>
       <path id="PalatinoLinotype-Bold-29" d="M 341 4634 
L 391 4634 
Q 872 4309 1301 3629 
Q 1731 2950 1731 1950 
Q 1731 1484 1648 1118 
Q 1566 753 1350 376 
Q 1134 0 861 -284 
Q 588 -569 378 -697 
L 331 -691 
L 219 -569 
L 219 -525 
Q 547 -166 717 365 
Q 888 897 888 1903 
Q 888 2400 844 2828 
Q 800 3256 725 3542 
Q 650 3828 544 4018 
Q 438 4209 222 4478 
L 219 4525 
L 341 4634 
z
" transform="scale(0.015625)"/>
      </defs>
      <use xlink:href="#PalatinoLinotype-Bold-4c"/>
      <use xlink:href="#PalatinoLinotype-Bold-65" x="60.595703"/>
      <use xlink:href="#PalatinoLinotype-Bold-6e" x="110.595703"/>
      <use xlink:href="#PalatinoLinotype-Bold-67" x="171.679688"/>
      <use xlink:href="#PalatinoLinotype-Bold-74" x="227.246094"/>
      <use xlink:href="#PalatinoLinotype-Bold-68" x="260.546875"/>
      <use xlink:href="#PalatinoLinotype-Bold-20" x="321.630859"/>
      <use xlink:href="#PalatinoLinotype-Bold-6f" x="346.630859"/>
      <use xlink:href="#PalatinoLinotype-Bold-66" x="402.246094"/>
      <use xlink:href="#PalatinoLinotype-Bold-20" x="441.162109"/>
      <use xlink:href="#PalatinoLinotype-Bold-72" x="466.162109"/>
      <use xlink:href="#PalatinoLinotype-Bold-65" x="505.078125"/>
      <use xlink:href="#PalatinoLinotype-Bold-73" x="555.078125"/>
      <use xlink:href="#PalatinoLinotype-Bold-69" x="599.462891"/>
      <use xlink:href="#PalatinoLinotype-Bold-64" x="632.763672"/>
      <use xlink:href="#PalatinoLinotype-Bold-65" x="693.847656"/>
      <use xlink:href="#PalatinoLinotype-Bold-6e" x="743.847656"/>
      <use xlink:href="#PalatinoLinotype-Bold-63" x="804.931641"/>
      <use xlink:href="#PalatinoLinotype-Bold-65" x="849.316406"/>
      <use xlink:href="#PalatinoLinotype-Bold-20" x="899.316406"/>
      <use xlink:href="#PalatinoLinotype-Bold-69" x="924.316406"/>
      <use xlink:href="#PalatinoLinotype-Bold-6e" x="957.617188"/>
      <use xlink:href="#PalatinoLinotype-Bold-20" x="1018.701172"/>
      <use xlink:href="#PalatinoLinotype-Bold-53" x="1043.701172"/>
      <use xlink:href="#PalatinoLinotype-Bold-69" x="1104.785156"/>
      <use xlink:href="#PalatinoLinotype-Bold-6e" x="1138.085938"/>
      <use xlink:href="#PalatinoLinotype-Bold-67" x="1199.169922"/>
      <use xlink:href="#PalatinoLinotype-Bold-61" x="1254.736328"/>
      <use xlink:href="#PalatinoLinotype-Bold-70" x="1304.736328"/>
      <use xlink:href="#PalatinoLinotype-Bold-6f" x="1365.820312"/>
      <use xlink:href="#PalatinoLinotype-Bold-72" x="1421.435547"/>
      <use xlink:href="#PalatinoLinotype-Bold-65" x="1460.351562"/>
      <use xlink:href="#PalatinoLinotype-Bold-20" x="1510.351562"/>
      <use xlink:href="#PalatinoLinotype-Bold-28" x="1535.351562"/>
      <use xlink:href="#PalatinoLinotype-Bold-79" x="1568.652344"/>
      <use xlink:href="#PalatinoLinotype-Bold-65" x="1624.267578"/>
      <use xlink:href="#PalatinoLinotype-Bold-61" x="1674.267578"/>
      <use xlink:href="#PalatinoLinotype-Bold-72" x="1724.267578"/>
      <use xlink:href="#PalatinoLinotype-Bold-73" x="1763.183594"/>
      <use xlink:href="#PalatinoLinotype-Bold-29" x="1807.568359"/>
     </g>
    </g>
   </g>
   <g id="matplotlib.axis_2">
    <g id="ytick_1">
     <g id="line2d_15">
      <path d="M 58.59 224.64 
L 393.39 224.64 
" clip-path="url(#pd1a3cba55c)" style="fill: none; stroke: #b0b0b0; stroke-width: 0.8; stroke-linecap: square"/>
     </g>
     <g id="line2d_16">
      <defs>
       <path id="m58f35c4a08" d="M 0 0 
L -3.5 0 
" style="stroke: #000000; stroke-width: 0.8"/>
      </defs>
      <g>
       <use xlink:href="#m58f35c4a08" x="58.59" y="224.64" style="stroke: #000000; stroke-width: 0.8"/>
      </g>
     </g>
     <g id="text_9">
      <!-- 0.00 -->
      <g transform="translate(27.09 229.701875)scale(0.14 -0.14)">
       <defs>
        <path id="PalatinoLinotype-Roman-2e" d="M 800 691 
Q 950 691 1061 584 
Q 1172 478 1172 316 
Q 1172 163 1062 53 
Q 953 -56 800 -56 
Q 644 -56 534 51 
Q 425 159 425 316 
Q 425 472 534 581 
Q 644 691 800 691 
z
" transform="scale(0.015625)"/>
       </defs>
       <use xlink:href="#PalatinoLinotype-Roman-30"/>
       <use xlink:href="#PalatinoLinotype-Roman-2e" x="50"/>
       <use xlink:href="#PalatinoLinotype-Roman-30" x="75"/>
       <use xlink:href="#PalatinoLinotype-Roman-30" x="125"/>
      </g>
     </g>
    </g>
    <g id="ytick_2">
     <g id="line2d_17">
      <path d="M 58.59 202.676364 
L 393.39 202.676364 
" clip-path="url(#pd1a3cba55c)" style="fill: none; stroke: #b0b0b0; stroke-width: 0.8; stroke-linecap: square"/>
     </g>
     <g id="line2d_18">
      <g>
       <use xlink:href="#m58f35c4a08" x="58.59" y="202.676364" style="stroke: #000000; stroke-width: 0.8"/>
      </g>
     </g>
     <g id="text_10">
      <!-- 0.03 -->
      <g transform="translate(27.09 207.738239)scale(0.14 -0.14)">
       <use xlink:href="#PalatinoLinotype-Roman-30"/>
       <use xlink:href="#PalatinoLinotype-Roman-2e" x="50"/>
       <use xlink:href="#PalatinoLinotype-Roman-30" x="75"/>
       <use xlink:href="#PalatinoLinotype-Roman-33" x="125"/>
      </g>
     </g>
    </g>
    <g id="ytick_3">
     <g id="line2d_19">
      <path d="M 58.59 180.712727 
L 393.39 180.712727 
" clip-path="url(#pd1a3cba55c)" style="fill: none; stroke: #b0b0b0; stroke-width: 0.8; stroke-linecap: square"/>
     </g>
     <g id="line2d_20">
      <g>
       <use xlink:href="#m58f35c4a08" x="58.59" y="180.712727" style="stroke: #000000; stroke-width: 0.8"/>
      </g>
     </g>
     <g id="text_11">
      <!-- 0.06 -->
      <g transform="translate(27.09 185.774602)scale(0.14 -0.14)">
       <use xlink:href="#PalatinoLinotype-Roman-30"/>
       <use xlink:href="#PalatinoLinotype-Roman-2e" x="50"/>
       <use xlink:href="#PalatinoLinotype-Roman-30" x="75"/>
       <use xlink:href="#PalatinoLinotype-Roman-36" x="125"/>
      </g>
     </g>
    </g>
    <g id="ytick_4">
     <g id="line2d_21">
      <path d="M 58.59 158.749091 
L 393.39 158.749091 
" clip-path="url(#pd1a3cba55c)" style="fill: none; stroke: #b0b0b0; stroke-width: 0.8; stroke-linecap: square"/>
     </g>
     <g id="line2d_22">
      <g>
       <use xlink:href="#m58f35c4a08" x="58.59" y="158.749091" style="stroke: #000000; stroke-width: 0.8"/>
      </g>
     </g>
     <g id="text_12">
      <!-- 0.09 -->
      <g transform="translate(27.09 163.810966)scale(0.14 -0.14)">
       <use xlink:href="#PalatinoLinotype-Roman-30"/>
       <use xlink:href="#PalatinoLinotype-Roman-2e" x="50"/>
       <use xlink:href="#PalatinoLinotype-Roman-30" x="75"/>
       <use xlink:href="#PalatinoLinotype-Roman-39" x="125"/>
      </g>
     </g>
    </g>
    <g id="ytick_5">
     <g id="line2d_23">
      <path d="M 58.59 136.785455 
L 393.39 136.785455 
" clip-path="url(#pd1a3cba55c)" style="fill: none; stroke: #b0b0b0; stroke-width: 0.8; stroke-linecap: square"/>
     </g>
     <g id="line2d_24">
      <g>
       <use xlink:href="#m58f35c4a08" x="58.59" y="136.785455" style="stroke: #000000; stroke-width: 0.8"/>
      </g>
     </g>
     <g id="text_13">
      <!-- 0.12 -->
      <g transform="translate(27.09 141.84733)scale(0.14 -0.14)">
       <use xlink:href="#PalatinoLinotype-Roman-30"/>
       <use xlink:href="#PalatinoLinotype-Roman-2e" x="50"/>
       <use xlink:href="#PalatinoLinotype-Roman-31" x="75"/>
       <use xlink:href="#PalatinoLinotype-Roman-32" x="125"/>
      </g>
     </g>
    </g>
    <g id="ytick_6">
     <g id="line2d_25">
      <path d="M 58.59 114.821818 
L 393.39 114.821818 
" clip-path="url(#pd1a3cba55c)" style="fill: none; stroke: #b0b0b0; stroke-width: 0.8; stroke-linecap: square"/>
     </g>
     <g id="line2d_26">
      <g>
       <use xlink:href="#m58f35c4a08" x="58.59" y="114.821818" style="stroke: #000000; stroke-width: 0.8"/>
      </g>
     </g>
     <g id="text_14">
      <!-- 0.15 -->
      <g transform="translate(27.09 119.883693)scale(0.14 -0.14)">
       <use xlink:href="#PalatinoLinotype-Roman-30"/>
       <use xlink:href="#PalatinoLinotype-Roman-2e" x="50"/>
       <use xlink:href="#PalatinoLinotype-Roman-31" x="75"/>
       <use xlink:href="#PalatinoLinotype-Roman-35" x="125"/>
      </g>
     </g>
    </g>
    <g id="ytick_7">
     <g id="line2d_27">
      <path d="M 58.59 92.858182 
L 393.39 92.858182 
" clip-path="url(#pd1a3cba55c)" style="fill: none; stroke: #b0b0b0; stroke-width: 0.8; stroke-linecap: square"/>
     </g>
     <g id="line2d_28">
      <g>
       <use xlink:href="#m58f35c4a08" x="58.59" y="92.858182" style="stroke: #000000; stroke-width: 0.8"/>
      </g>
     </g>
     <g id="text_15">
      <!-- 0.18 -->
      <g transform="translate(27.09 97.920057)scale(0.14 -0.14)">
       <defs>
        <path id="PalatinoLinotype-Roman-38" d="M 1050 2216 
Q 703 2400 523 2639 
Q 344 2878 344 3219 
Q 344 3697 697 4039 
Q 1050 4381 1659 4381 
Q 1969 4381 2233 4273 
Q 2497 4166 2640 3952 
Q 2784 3738 2784 3475 
Q 2784 3200 2615 2948 
Q 2447 2697 2019 2438 
L 2019 2409 
Q 2384 2234 2561 2112 
Q 2738 1991 2850 1783 
Q 2963 1575 2963 1303 
Q 2963 931 2748 589 
Q 2534 247 2184 69 
Q 1834 -109 1459 -109 
Q 913 -109 556 197 
Q 200 503 200 1013 
Q 200 1425 445 1723 
Q 691 2022 1050 2188 
L 1050 2216 
z
M 1778 2516 
Q 2113 2725 2231 2936 
Q 2350 3147 2350 3391 
Q 2350 3750 2144 3959 
Q 1938 4169 1591 4169 
Q 1259 4169 1040 3983 
Q 822 3797 822 3463 
Q 822 3209 964 3023 
Q 1106 2838 1778 2516 
z
M 1303 2103 
Q 934 1884 790 1632 
Q 647 1381 647 1063 
Q 647 616 897 361 
Q 1147 106 1541 106 
Q 1809 106 2028 231 
Q 2247 356 2355 573 
Q 2463 791 2463 1047 
Q 2463 1416 2205 1622 
Q 1947 1828 1303 2103 
z
" transform="scale(0.015625)"/>
       </defs>
       <use xlink:href="#PalatinoLinotype-Roman-30"/>
       <use xlink:href="#PalatinoLinotype-Roman-2e" x="50"/>
       <use xlink:href="#PalatinoLinotype-Roman-31" x="75"/>
       <use xlink:href="#PalatinoLinotype-Roman-38" x="125"/>
      </g>
     </g>
    </g>
    <g id="ytick_8">
     <g id="line2d_29">
      <path d="M 58.59 70.894545 
L 393.39 70.894545 
" clip-path="url(#pd1a3cba55c)" style="fill: none; stroke: #b0b0b0; stroke-width: 0.8; stroke-linecap: square"/>
     </g>
     <g id="line2d_30">
      <g>
       <use xlink:href="#m58f35c4a08" x="58.59" y="70.894545" style="stroke: #000000; stroke-width: 0.8"/>
      </g>
     </g>
     <g id="text_16">
      <!-- 0.21 -->
      <g transform="translate(27.09 75.95642)scale(0.14 -0.14)">
       <use xlink:href="#PalatinoLinotype-Roman-30"/>
       <use xlink:href="#PalatinoLinotype-Roman-2e" x="50"/>
       <use xlink:href="#PalatinoLinotype-Roman-32" x="75"/>
       <use xlink:href="#PalatinoLinotype-Roman-31" x="125"/>
      </g>
     </g>
    </g>
    <g id="ytick_9">
     <g id="line2d_31">
      <path d="M 58.59 48.930909 
L 393.39 48.930909 
" clip-path="url(#pd1a3cba55c)" style="fill: none; stroke: #b0b0b0; stroke-width: 0.8; stroke-linecap: square"/>
     </g>
     <g id="line2d_32">
      <g>
       <use xlink:href="#m58f35c4a08" x="58.59" y="48.930909" style="stroke: #000000; stroke-width: 0.8"/>
      </g>
     </g>
     <g id="text_17">
      <!-- 0.24 -->
      <g transform="translate(27.09 53.992784)scale(0.14 -0.14)">
       <use xlink:href="#PalatinoLinotype-Roman-30"/>
       <use xlink:href="#PalatinoLinotype-Roman-2e" x="50"/>
       <use xlink:href="#PalatinoLinotype-Roman-32" x="75"/>
       <use xlink:href="#PalatinoLinotype-Roman-34" x="125"/>
      </g>
     </g>
    </g>
    <g id="ytick_10">
     <g id="line2d_33">
      <path d="M 58.59 26.967273 
L 393.39 26.967273 
" clip-path="url(#pd1a3cba55c)" style="fill: none; stroke: #b0b0b0; stroke-width: 0.8; stroke-linecap: square"/>
     </g>
     <g id="line2d_34">
      <g>
       <use xlink:href="#m58f35c4a08" x="58.59" y="26.967273" style="stroke: #000000; stroke-width: 0.8"/>
      </g>
     </g>
     <g id="text_18">
      <!-- 0.27 -->
      <g transform="translate(27.09 32.029148)scale(0.14 -0.14)">
       <use xlink:href="#PalatinoLinotype-Roman-30"/>
       <use xlink:href="#PalatinoLinotype-Roman-2e" x="50"/>
       <use xlink:href="#PalatinoLinotype-Roman-32" x="75"/>
       <use xlink:href="#PalatinoLinotype-Roman-37" x="125"/>
      </g>
     </g>
    </g>
    <g id="text_19">
     <!-- Proportion -->
     <g transform="translate(18.84 155.47625)rotate(-90)scale(0.16 -0.16)">
      <defs>
       <path id="PalatinoLinotype-Bold-50" d="M 3744 3431 
Q 3744 2788 3305 2427 
Q 2866 2066 2313 2066 
Q 2125 2066 1934 2109 
Q 1906 2194 1825 2334 
L 1891 2403 
Q 2022 2359 2131 2359 
Q 2447 2359 2637 2582 
Q 2828 2806 2828 3209 
Q 2828 4081 2044 4081 
Q 1950 4081 1669 4044 
Q 1641 3969 1641 3022 
L 1641 1369 
Q 1641 625 1681 400 
Q 1697 309 1788 284 
Q 1816 278 2216 253 
L 2250 219 
L 2250 13 
L 2219 -19 
Q 1791 0 1194 0 
Q 522 0 231 -19 
L 200 9 
L 200 219 
L 234 253 
Q 550 272 597 284 
Q 688 309 703 400 
Q 744 625 744 1369 
L 744 3022 
Q 744 3766 703 3991 
Q 688 4081 597 4106 
Q 550 4119 231 4138 
L 200 4172 
L 200 4378 
L 234 4409 
Q 541 4391 1175 4391 
Q 1438 4391 1931 4400 
Q 2425 4409 2500 4409 
Q 3356 4409 3613 3975 
Q 3744 3750 3744 3431 
z
" transform="scale(0.015625)"/>
      </defs>
      <use xlink:href="#PalatinoLinotype-Bold-50"/>
      <use xlink:href="#PalatinoLinotype-Bold-72" x="61.035156"/>
      <use xlink:href="#PalatinoLinotype-Bold-6f" x="99.951172"/>
      <use xlink:href="#PalatinoLinotype-Bold-70" x="155.566406"/>
      <use xlink:href="#PalatinoLinotype-Bold-6f" x="216.650391"/>
      <use xlink:href="#PalatinoLinotype-Bold-72" x="272.265625"/>
      <use xlink:href="#PalatinoLinotype-Bold-74" x="311.181641"/>
      <use xlink:href="#PalatinoLinotype-Bold-69" x="344.482422"/>
      <use xlink:href="#PalatinoLinotype-Bold-6f" x="377.783203"/>
      <use xlink:href="#PalatinoLinotype-Bold-6e" x="433.398438"/>
     </g>
    </g>
   </g>
   <g id="patch_3">
    <path d="M 73.808182 224.64 
L 109.615668 224.64 
L 109.615668 191.694545 
L 73.808182 191.694545 
z
" clip-path="url(#pd1a3cba55c)" style="fill: #1f77b4; stroke: #000000; stroke-linejoin: miter"/>
   </g>
   <g id="patch_4">
    <path d="M 118.56754 224.64 
L 154.375027 224.64 
L 154.375027 48.930909 
L 118.56754 48.930909 
z
" clip-path="url(#pd1a3cba55c)" style="fill: #1f77b4; stroke: #000000; stroke-linejoin: miter"/>
   </g>
   <g id="patch_5">
    <path d="M 163.326898 224.64 
L 199.134385 224.64 
L 199.134385 136.785455 
L 163.326898 136.785455 
z
" clip-path="url(#pd1a3cba55c)" style="fill: #1f77b4; stroke: #000000; stroke-linejoin: miter"/>
   </g>
   <g id="patch_6">
    <path d="M 208.086257 224.64 
L 243.893743 224.64 
L 243.893743 103.84 
L 208.086257 103.84 
z
" clip-path="url(#pd1a3cba55c)" style="fill: #1f77b4; stroke: #000000; stroke-linejoin: miter"/>
   </g>
   <g id="patch_7">
    <path d="M 252.845615 224.64 
L 288.653102 224.64 
L 288.653102 26.967273 
L 252.845615 26.967273 
z
" clip-path="url(#pd1a3cba55c)" style="fill: #1f77b4; stroke: #000000; stroke-linejoin: miter"/>
   </g>
   <g id="patch_8">
    <path d="M 297.604973 224.64 
L 333.41246 224.64 
L 333.41246 136.785455 
L 297.604973 136.785455 
z
" clip-path="url(#pd1a3cba55c)" style="fill: #1f77b4; stroke: #000000; stroke-linejoin: miter"/>
   </g>
   <g id="patch_9">
    <path d="M 342.364332 224.64 
L 378.171818 224.64 
L 378.171818 191.694545 
L 342.364332 191.694545 
z
" clip-path="url(#pd1a3cba55c)" style="fill: #1f77b4; stroke: #000000; stroke-linejoin: miter"/>
   </g>
   <g id="patch_10">
    <path d="M 58.59 224.64 
L 58.59 7.2 
" style="fill: none; stroke: #000000; stroke-width: 0.8; stroke-linejoin: miter; stroke-linecap: square"/>
   </g>
   <g id="patch_11">
    <path d="M 393.39 224.64 
L 393.39 7.2 
" style="fill: none; stroke: #000000; stroke-width: 0.8; stroke-linejoin: miter; stroke-linecap: square"/>
   </g>
   <g id="patch_12">
    <path d="M 58.59 224.64 
L 393.39 224.64 
" style="fill: none; stroke: #000000; stroke-width: 0.8; stroke-linejoin: miter; stroke-linecap: square"/>
   </g>
   <g id="patch_13">
    <path d="M 58.59 7.2 
L 393.39 7.2 
" style="fill: none; stroke: #000000; stroke-width: 0.8; stroke-linejoin: miter; stroke-linecap: square"/>
   </g>
   <g id="text_20">
    <!-- 3 -->
    <g transform="translate(88.211925 187.427591)scale(0.14 -0.14)">
     <use xlink:href="#PalatinoLinotype-Roman-33"/>
    </g>
   </g>
   <g id="text_21">
    <!-- 16 -->
    <g transform="translate(129.471283 43.236318)scale(0.14 -0.14)">
     <use xlink:href="#PalatinoLinotype-Roman-31"/>
     <use xlink:href="#PalatinoLinotype-Roman-36" x="50"/>
    </g>
   </g>
   <g id="text_22">
    <!-- 8 -->
    <g transform="translate(177.730642 131.969409)scale(0.14 -0.14)">
     <use xlink:href="#PalatinoLinotype-Roman-38"/>
    </g>
   </g>
   <g id="text_23">
    <!-- 11 -->
    <g transform="translate(218.99 98.6945)scale(0.14 -0.14)">
     <use xlink:href="#PalatinoLinotype-Roman-31"/>
     <use xlink:href="#PalatinoLinotype-Roman-31" x="50"/>
    </g>
   </g>
   <g id="text_24">
    <!-- 18 -->
    <g transform="translate(263.749358 21.053045)scale(0.14 -0.14)">
     <use xlink:href="#PalatinoLinotype-Roman-31"/>
     <use xlink:href="#PalatinoLinotype-Roman-38" x="50"/>
    </g>
   </g>
   <g id="text_25">
    <!-- 8 -->
    <g transform="translate(312.008717 131.969409)scale(0.14 -0.14)">
     <use xlink:href="#PalatinoLinotype-Roman-38"/>
    </g>
   </g>
   <g id="text_26">
    <!-- 3 -->
    <g transform="translate(356.768075 187.427591)scale(0.14 -0.14)">
     <use xlink:href="#PalatinoLinotype-Roman-33"/>
    </g>
   </g>
  </g>
 </g>
 <defs>
  <clipPath id="pd1a3cba55c">
   <rect x="58.59" y="7.2" width="334.8" height="217.44"/>
  </clipPath>
 </defs>
</svg>
