<?xml version="1.0" encoding="utf-8" standalone="no"?>
<!DOCTYPE svg PUBLIC "-//W3C//DTD SVG 1.1//EN"
  "http://www.w3.org/Graphics/SVG/1.1/DTD/svg11.dtd">
<svg xmlns:xlink="http://www.w3.org/1999/xlink" width="400.59pt" height="272.79125pt" viewBox="0 0 400.59 272.79125" xmlns="http://www.w3.org/2000/svg" version="1.1">
 <metadata>
  <rdf:RDF xmlns:dc="http://purl.org/dc/elements/1.1/" xmlns:cc="http://creativecommons.org/ns#" xmlns:rdf="http://www.w3.org/1999/02/22-rdf-syntax-ns#">
   <cc:Work>
    <dc:type rdf:resource="http://purl.org/dc/dcmitype/StillImage"/>
    <dc:date>2022-06-03T12:19:01.958251</dc:date>
    <dc:format>image/svg+xml</dc:format>
    <dc:creator>
     <cc:Agent>
      <dc:title>Matplotlib v3.5.2, https://matplotlib.org/</dc:title>
     </cc:Agent>
    </dc:creator>
   </cc:Work>
  </rdf:RDF>
 </metadata>
 <defs>
  <style type="text/css">*{stroke-linejoin: round; stroke-linecap: butt}</style>
 </defs>
 <g id="figure_1">
  <g id="patch_1">
   <path d="M 0 272.79125 
L 400.59 272.79125 
L 400.59 0 
L 0 0 
L 0 272.79125 
z
" style="fill: none"/>
  </g>
  <g id="axes_1">
   <g id="patch_2">
    <path d="M 58.59 224.64 
L 393.39 224.64 
L 393.39 7.2 
L 58.59 7.2 
z
" style="fill: #ffffff"/>
   </g>
   <g id="matplotlib.axis_1">
    <g id="xtick_1">
     <g id="line2d_1">
      <path d="M 99.171818 224.64 
L 99.171818 7.2 
" clip-path="url(#p5df2fa509a)" style="fill: none; stroke: #b0b0b0; stroke-width: 0.8; stroke-linecap: square"/>
     </g>
     <g id="line2d_2">
      <defs>
       <path id="m84e7d5f9f5" d="M 0 0 
L 0 3.5 
" style="stroke: #000000; stroke-width: 0.8"/>
      </defs>
      <g>
       <use xlink:href="#m84e7d5f9f5" x="99.171818" y="224.64" style="stroke: #000000; stroke-width: 0.8"/>
      </g>
     </g>
     <g id="text_1">
      <!-- [2.0, 2.5) -->
      <g transform="translate(73.510256 241.76375)scale(0.14 -0.14)">
       <defs>
        <path id="PalatinoLinotype-Roman-5b" d="M 1834 -1144 
L 1834 -1306 
L 1806 -1338 
Q 1803 -1338 1675 -1334 
Q 1344 -1322 1225 -1322 
Q 963 -1322 591 -1338 
L 525 -1281 
Q 563 -697 563 241 
Q 563 3006 558 3482 
Q 553 3959 525 4344 
L 581 4416 
Q 944 4400 1175 4400 
Q 1391 4400 1806 4416 
L 1834 4394 
L 1834 4216 
L 1819 4194 
Q 1753 4188 1638 4181 
Q 1284 4163 1229 4141 
Q 1175 4119 1145 4070 
Q 1116 4022 1098 3764 
Q 1081 3506 1076 2801 
Q 1072 2097 1072 1644 
L 1072 347 
L 1081 -391 
Q 1091 -856 1131 -978 
Q 1144 -1019 1176 -1047 
Q 1209 -1075 1297 -1094 
Q 1341 -1103 1806 -1113 
L 1834 -1144 
z
" transform="scale(0.015625)"/>
        <path id="PalatinoLinotype-Roman-32" d="M 144 -31 
L 106 0 
L 106 144 
L 1153 1253 
Q 1800 1938 1990 2313 
Q 2181 2688 2181 3013 
Q 2181 3394 1950 3647 
Q 1719 3900 1325 3900 
Q 1072 3900 884 3822 
Q 697 3744 633 3647 
Q 569 3550 447 3103 
L 419 3078 
L 291 3078 
L 259 3106 
Q 331 3528 359 3941 
Q 653 4228 908 4308 
Q 1163 4388 1441 4388 
Q 1772 4388 2075 4263 
Q 2378 4138 2562 3858 
Q 2747 3578 2747 3209 
Q 2747 2934 2639 2657 
Q 2531 2381 2323 2123 
Q 2116 1866 1756 1506 
L 781 513 
L 2016 513 
Q 2584 513 2963 553 
L 2984 528 
Q 2966 422 2966 250 
Q 2966 94 2984 3 
L 2963 -31 
Q 2738 -19 2272 -9 
Q 1806 0 1656 0 
Q 1353 0 840 -8 
Q 328 -16 144 -31 
z
" transform="scale(0.015625)"/>
        <path id="PalatinoLinotype-Roman-2e" d="M 800 691 
Q 950 691 1061 584 
Q 1172 478 1172 316 
Q 1172 163 1062 53 
Q 953 -56 800 -56 
Q 644 -56 534 51 
Q 425 159 425 316 
Q 425 472 534 581 
Q 644 691 800 691 
z
" transform="scale(0.015625)"/>
        <path id="PalatinoLinotype-Roman-30" d="M 194 1909 
Q 194 2466 250 2911 
Q 306 3356 498 3704 
Q 691 4053 980 4226 
Q 1269 4400 1638 4400 
Q 2056 4400 2373 4184 
Q 2691 3969 2830 3522 
Q 2969 3075 2969 2306 
Q 2969 1056 2586 465 
Q 2203 -125 1525 -125 
Q 1184 -125 923 22 
Q 663 169 495 447 
Q 328 725 261 1103 
Q 194 1481 194 1909 
z
M 731 2091 
Q 731 1497 820 1009 
Q 909 522 1117 308 
Q 1325 94 1613 94 
Q 1891 94 2077 284 
Q 2263 475 2348 937 
Q 2434 1400 2434 2081 
Q 2434 3150 2231 3662 
Q 2028 4175 1559 4175 
Q 1150 4175 940 3778 
Q 731 3381 731 2091 
z
" transform="scale(0.015625)"/>
        <path id="PalatinoLinotype-Roman-2c" d="M -44 -900 
Q 150 -578 234 -415 
Q 319 -253 383 -73 
Q 447 106 467 203 
Q 488 300 525 603 
Q 541 609 700 647 
Q 919 700 1163 791 
L 1241 703 
Q 844 -219 300 -856 
L 34 -978 
L -44 -900 
z
" transform="scale(0.015625)"/>
        <path id="PalatinoLinotype-Roman-20" transform="scale(0.015625)"/>
        <path id="PalatinoLinotype-Roman-35" d="M 409 44 
Q 334 288 100 850 
L 106 891 
L 216 953 
L 253 944 
Q 513 472 577 408 
Q 641 344 869 258 
Q 1097 172 1350 172 
Q 1666 172 1909 309 
Q 2153 447 2272 715 
Q 2391 984 2391 1325 
Q 2391 1659 2273 1901 
Q 2156 2144 1915 2269 
Q 1675 2394 1397 2394 
Q 1222 2394 1080 2347 
Q 938 2300 842 2226 
Q 747 2153 616 2009 
L 488 2047 
L 522 2719 
Q 534 2909 534 3103 
L 534 3659 
Q 534 3909 519 4138 
Q 509 4278 509 4316 
L 550 4347 
Q 1028 4309 1641 4309 
Q 2106 4309 2756 4347 
L 2769 4316 
Q 2747 4163 2747 4031 
Q 2747 3966 2756 3813 
L 2725 3794 
Q 2369 3819 1769 3819 
Q 953 3819 822 3813 
Q 775 3444 756 2513 
Q 1013 2700 1219 2767 
Q 1425 2834 1666 2834 
Q 2006 2834 2318 2678 
Q 2631 2522 2786 2225 
Q 2941 1928 2941 1584 
Q 2941 950 2417 417 
Q 1894 -116 1078 -116 
Q 859 -116 717 -78 
Q 575 -41 409 44 
z
" transform="scale(0.015625)"/>
        <path id="PalatinoLinotype-Roman-29" d="M 388 -1478 
L 350 -1475 
L 231 -1372 
L 231 -1334 
Q 772 -684 989 -18 
Q 1206 647 1206 1581 
Q 1206 3275 231 4325 
L 231 4359 
L 328 4481 
L 363 4484 
Q 844 4131 1298 3354 
Q 1753 2578 1753 1513 
Q 1753 650 1408 -126 
Q 1063 -903 388 -1478 
z
" transform="scale(0.015625)"/>
       </defs>
       <use xlink:href="#PalatinoLinotype-Roman-5b"/>
       <use xlink:href="#PalatinoLinotype-Roman-32" x="33.300781"/>
       <use xlink:href="#PalatinoLinotype-Roman-2e" x="83.300781"/>
       <use xlink:href="#PalatinoLinotype-Roman-30" x="108.300781"/>
       <use xlink:href="#PalatinoLinotype-Roman-2c" x="158.300781"/>
       <use xlink:href="#PalatinoLinotype-Roman-20" x="183.300781"/>
       <use xlink:href="#PalatinoLinotype-Roman-32" x="208.300781"/>
       <use xlink:href="#PalatinoLinotype-Roman-2e" x="258.300781"/>
       <use xlink:href="#PalatinoLinotype-Roman-35" x="283.300781"/>
       <use xlink:href="#PalatinoLinotype-Roman-29" x="333.300781"/>
      </g>
     </g>
    </g>
    <g id="xtick_2">
     <g id="line2d_3">
      <path d="M 162.580909 224.64 
L 162.580909 7.2 
" clip-path="url(#p5df2fa509a)" style="fill: none; stroke: #b0b0b0; stroke-width: 0.8; stroke-linecap: square"/>
     </g>
     <g id="line2d_4">
      <g>
       <use xlink:href="#m84e7d5f9f5" x="162.580909" y="224.64" style="stroke: #000000; stroke-width: 0.8"/>
      </g>
     </g>
     <g id="text_2">
      <!-- [2.5, 3.0) -->
      <g transform="translate(136.919347 241.76375)scale(0.14 -0.14)">
       <defs>
        <path id="PalatinoLinotype-Roman-33" d="M 325 72 
Q 269 441 116 959 
L 131 1006 
L 247 1050 
L 291 1028 
Q 400 741 525 553 
Q 650 366 884 266 
Q 1119 166 1391 166 
Q 1734 166 1936 309 
Q 2138 453 2247 700 
Q 2356 947 2356 1256 
Q 2356 1672 2139 1909 
Q 1922 2147 1538 2147 
Q 1406 2147 1303 2122 
Q 1200 2097 984 2009 
L 950 2041 
L 1019 2381 
Q 1272 2366 1356 2366 
Q 1722 2366 1936 2625 
Q 2150 2884 2150 3238 
Q 2150 3547 1926 3756 
Q 1703 3966 1375 3966 
Q 1159 3966 967 3878 
Q 775 3791 650 3666 
Q 597 3559 481 3247 
L 450 3219 
L 309 3219 
L 284 3247 
L 472 3972 
Q 863 4413 1531 4413 
Q 2041 4413 2355 4142 
Q 2669 3872 2669 3463 
Q 2669 3150 2484 2889 
Q 2300 2628 1972 2397 
Q 2513 2331 2733 2073 
Q 2953 1816 2953 1450 
Q 2953 850 2409 370 
Q 1866 -109 1153 -109 
Q 941 -109 756 -73 
Q 572 -38 325 72 
z
" transform="scale(0.015625)"/>
       </defs>
       <use xlink:href="#PalatinoLinotype-Roman-5b"/>
       <use xlink:href="#PalatinoLinotype-Roman-32" x="33.300781"/>
       <use xlink:href="#PalatinoLinotype-Roman-2e" x="83.300781"/>
       <use xlink:href="#PalatinoLinotype-Roman-35" x="108.300781"/>
       <use xlink:href="#PalatinoLinotype-Roman-2c" x="158.300781"/>
       <use xlink:href="#PalatinoLinotype-Roman-20" x="183.300781"/>
       <use xlink:href="#PalatinoLinotype-Roman-33" x="208.300781"/>
       <use xlink:href="#PalatinoLinotype-Roman-2e" x="258.300781"/>
       <use xlink:href="#PalatinoLinotype-Roman-30" x="283.300781"/>
       <use xlink:href="#PalatinoLinotype-Roman-29" x="333.300781"/>
      </g>
     </g>
    </g>
    <g id="xtick_3">
     <g id="line2d_5">
      <path d="M 225.99 224.64 
L 225.99 7.2 
" clip-path="url(#p5df2fa509a)" style="fill: none; stroke: #b0b0b0; stroke-width: 0.8; stroke-linecap: square"/>
     </g>
     <g id="line2d_6">
      <g>
       <use xlink:href="#m84e7d5f9f5" x="225.99" y="224.64" style="stroke: #000000; stroke-width: 0.8"/>
      </g>
     </g>
     <g id="text_3">
      <!-- [3.0, 3.5) -->
      <g transform="translate(200.328438 241.76375)scale(0.14 -0.14)">
       <use xlink:href="#PalatinoLinotype-Roman-5b"/>
       <use xlink:href="#PalatinoLinotype-Roman-33" x="33.300781"/>
       <use xlink:href="#PalatinoLinotype-Roman-2e" x="83.300781"/>
       <use xlink:href="#PalatinoLinotype-Roman-30" x="108.300781"/>
       <use xlink:href="#PalatinoLinotype-Roman-2c" x="158.300781"/>
       <use xlink:href="#PalatinoLinotype-Roman-20" x="183.300781"/>
       <use xlink:href="#PalatinoLinotype-Roman-33" x="208.300781"/>
       <use xlink:href="#PalatinoLinotype-Roman-2e" x="258.300781"/>
       <use xlink:href="#PalatinoLinotype-Roman-35" x="283.300781"/>
       <use xlink:href="#PalatinoLinotype-Roman-29" x="333.300781"/>
      </g>
     </g>
    </g>
    <g id="xtick_4">
     <g id="line2d_7">
      <path d="M 289.399091 224.64 
L 289.399091 7.2 
" clip-path="url(#p5df2fa509a)" style="fill: none; stroke: #b0b0b0; stroke-width: 0.8; stroke-linecap: square"/>
     </g>
     <g id="line2d_8">
      <g>
       <use xlink:href="#m84e7d5f9f5" x="289.399091" y="224.64" style="stroke: #000000; stroke-width: 0.8"/>
      </g>
     </g>
     <g id="text_4">
      <!-- [3.5, 4.0) -->
      <g transform="translate(263.737528 241.76375)scale(0.14 -0.14)">
       <defs>
        <path id="PalatinoLinotype-Roman-34" d="M 1028 -25 
L 1003 0 
L 1003 134 
L 1028 159 
Q 1491 172 1577 187 
Q 1663 203 1703 253 
Q 1744 303 1764 497 
Q 1784 691 1784 909 
L 1784 1141 
L 1100 1141 
Q 503 1141 91 1122 
L 38 1291 
Q 581 2309 1853 4241 
L 2294 4419 
L 2372 4381 
Q 2338 3850 2338 3066 
L 2328 2184 
L 2328 1538 
Q 2759 1541 2994 1556 
L 3022 1525 
Q 3016 1406 3016 1353 
Q 3019 1250 3025 1150 
L 2994 1122 
Q 2691 1141 2488 1141 
L 2328 1141 
L 2328 931 
Q 2328 581 2347 434 
Q 2366 288 2406 245 
Q 2447 203 2570 183 
Q 2694 163 2997 159 
L 3025 134 
L 3025 0 
L 3000 -25 
Q 2450 0 2078 0 
Q 1472 0 1028 -25 
z
M 450 1538 
L 1784 1538 
L 1813 3759 
Q 1513 3331 1056 2584 
Q 600 1838 450 1538 
z
" transform="scale(0.015625)"/>
       </defs>
       <use xlink:href="#PalatinoLinotype-Roman-5b"/>
       <use xlink:href="#PalatinoLinotype-Roman-33" x="33.300781"/>
       <use xlink:href="#PalatinoLinotype-Roman-2e" x="83.300781"/>
       <use xlink:href="#PalatinoLinotype-Roman-35" x="108.300781"/>
       <use xlink:href="#PalatinoLinotype-Roman-2c" x="158.300781"/>
       <use xlink:href="#PalatinoLinotype-Roman-20" x="183.300781"/>
       <use xlink:href="#PalatinoLinotype-Roman-34" x="208.300781"/>
       <use xlink:href="#PalatinoLinotype-Roman-2e" x="258.300781"/>
       <use xlink:href="#PalatinoLinotype-Roman-30" x="283.300781"/>
       <use xlink:href="#PalatinoLinotype-Roman-29" x="333.300781"/>
      </g>
     </g>
    </g>
    <g id="xtick_5">
     <g id="line2d_9">
      <path d="M 352.808182 224.64 
L 352.808182 7.2 
" clip-path="url(#p5df2fa509a)" style="fill: none; stroke: #b0b0b0; stroke-width: 0.8; stroke-linecap: square"/>
     </g>
     <g id="line2d_10">
      <g>
       <use xlink:href="#m84e7d5f9f5" x="352.808182" y="224.64" style="stroke: #000000; stroke-width: 0.8"/>
      </g>
     </g>
     <g id="text_5">
      <!-- [4.0, 4.5) -->
      <g transform="translate(327.146619 241.76375)scale(0.14 -0.14)">
       <use xlink:href="#PalatinoLinotype-Roman-5b"/>
       <use xlink:href="#PalatinoLinotype-Roman-34" x="33.300781"/>
       <use xlink:href="#PalatinoLinotype-Roman-2e" x="83.300781"/>
       <use xlink:href="#PalatinoLinotype-Roman-30" x="108.300781"/>
       <use xlink:href="#PalatinoLinotype-Roman-2c" x="158.300781"/>
       <use xlink:href="#PalatinoLinotype-Roman-20" x="183.300781"/>
       <use xlink:href="#PalatinoLinotype-Roman-34" x="208.300781"/>
       <use xlink:href="#PalatinoLinotype-Roman-2e" x="258.300781"/>
       <use xlink:href="#PalatinoLinotype-Roman-35" x="283.300781"/>
       <use xlink:href="#PalatinoLinotype-Roman-29" x="333.300781"/>
      </g>
     </g>
    </g>
    <g id="text_6">
     <!-- Normalized WNSS-21 Score -->
     <g transform="translate(123.33625 261.34125)scale(0.16 -0.16)">
      <defs>
       <path id="PalatinoLinotype-Bold-4e" d="M 5125 4169 
L 5091 4138 
Q 4772 4119 4725 4106 
Q 4634 4081 4619 3991 
Q 4578 3766 4578 3022 
L 4578 1753 
Q 4578 350 4619 -75 
L 4578 -103 
Q 4225 -44 4044 -19 
Q 3206 922 1184 3413 
L 1184 1369 
Q 1184 625 1225 400 
Q 1241 309 1331 284 
Q 1378 272 1697 253 
L 1728 222 
L 1728 9 
L 1697 -19 
Q 1338 0 1028 0 
Q 669 0 306 -19 
L 275 9 
L 275 222 
L 306 253 
Q 625 272 672 284 
Q 763 309 778 400 
Q 819 625 819 1369 
L 819 3022 
Q 819 3766 778 3991 
Q 763 4081 672 4106 
Q 625 4119 306 4138 
L 275 4169 
L 275 4381 
L 306 4409 
Q 603 4391 872 4391 
Q 1294 4391 1572 4409 
Q 2697 2909 4216 1194 
L 4216 3022 
Q 4216 3766 4175 3991 
Q 4159 4081 4069 4106 
Q 4022 4119 3703 4138 
L 3672 4169 
L 3672 4381 
L 3703 4409 
Q 4053 4391 4369 4391 
Q 4772 4391 5094 4409 
L 5125 4381 
L 5125 4169 
z
" transform="scale(0.015625)"/>
       <path id="PalatinoLinotype-Bold-6f" d="M 3303 1550 
Q 3303 444 2559 53 
Q 2197 -138 1731 -138 
Q 1013 -138 636 278 
Q 259 694 259 1469 
Q 259 2541 991 2897 
Q 1350 3072 1825 3072 
Q 2822 3072 3147 2381 
Q 3303 2050 3303 1550 
z
M 2438 1294 
Q 2438 2072 2267 2408 
Q 2097 2744 1747 2744 
Q 1125 2744 1125 1622 
Q 1125 181 1822 181 
Q 2256 181 2375 659 
Q 2438 909 2438 1294 
z
M 1813 -244 
L 1813 -244 
z
M 1813 3181 
L 1813 3181 
z
" transform="scale(0.015625)"/>
       <path id="PalatinoLinotype-Bold-72" d="M 2484 3019 
L 2463 2463 
Q 2459 2325 2450 2150 
L 2319 2109 
Q 2172 2322 1913 2322 
Q 1678 2322 1525 2134 
Q 1431 2019 1431 1794 
L 1431 1063 
Q 1431 834 1453 428 
Q 1459 313 1518 278 
Q 1578 244 1953 231 
L 1984 203 
L 1984 13 
L 1953 -19 
Q 1494 0 1041 0 
Q 481 0 188 -22 
L 156 9 
L 156 200 
L 188 231 
Q 488 241 559 278 
Q 622 306 628 428 
Q 650 834 650 1300 
L 650 1747 
Q 650 2372 603 2466 
Q 572 2528 469 2544 
Q 431 2550 197 2559 
L 166 2591 
L 166 2766 
L 197 2800 
Q 759 2853 1381 3059 
L 1450 3019 
L 1444 2406 
Q 1638 2631 1913 2931 
Q 2041 3056 2263 3056 
Q 2394 3056 2484 3019 
z
" transform="scale(0.015625)"/>
       <path id="PalatinoLinotype-Bold-6d" d="M 5547 16 
L 5516 -19 
Q 5334 0 4872 0 
Q 4488 0 4325 -19 
L 4281 41 
Q 4331 819 4331 1175 
L 4331 1459 
Q 4331 1919 4303 2075 
Q 4269 2263 4147 2375 
Q 4025 2488 3816 2488 
Q 3581 2488 3425 2356 
Q 3269 2225 3269 2022 
L 3269 1091 
L 3281 597 
Q 3288 397 3316 334 
Q 3334 294 3400 275 
Q 3456 259 3703 234 
L 3738 203 
L 3738 16 
L 3700 -19 
Q 3322 0 2934 0 
Q 2453 0 2109 -19 
L 2075 16 
L 2075 200 
L 2106 238 
Q 2303 256 2378 272 
Q 2434 284 2459 366 
Q 2478 425 2481 713 
L 2488 1722 
Q 2488 2072 2434 2222 
Q 2391 2341 2269 2419 
Q 2159 2491 1981 2491 
Q 1700 2491 1534 2303 
Q 1456 2216 1442 2162 
Q 1428 2109 1428 1928 
L 1428 1250 
Q 1428 1050 1441 731 
Q 1453 403 1466 350 
Q 1484 284 1570 261 
Q 1656 238 1831 234 
L 1863 203 
L 1863 13 
L 1831 -19 
Q 1566 0 1038 0 
Q 478 0 184 -22 
L 153 9 
L 153 200 
L 184 231 
Q 484 241 556 278 
Q 619 306 625 428 
Q 647 834 647 1300 
L 647 1747 
Q 647 2372 600 2466 
Q 569 2528 466 2544 
Q 428 2550 194 2559 
L 163 2591 
L 163 2766 
L 194 2800 
Q 756 2853 1378 3059 
L 1447 3019 
L 1441 2522 
L 1997 2972 
Q 2150 3041 2359 3041 
Q 2719 3041 2919 2923 
Q 3119 2806 3241 2513 
L 3809 2972 
Q 3963 3044 4181 3044 
Q 4784 3044 5019 2606 
Q 5122 2413 5122 2013 
Q 5122 1847 5119 1766 
L 5116 1647 
Q 5109 1497 5109 1447 
L 5109 1041 
Q 5109 569 5125 439 
Q 5141 309 5197 275 
Q 5253 241 5516 234 
L 5547 200 
L 5547 16 
z
" transform="scale(0.015625)"/>
       <path id="PalatinoLinotype-Bold-61" d="M 3053 19 
L 3019 -16 
Q 2756 0 2416 0 
Q 2150 0 1906 -16 
L 1878 19 
L 1906 438 
L 1300 -25 
Q 1228 -78 1094 -91 
Q 1041 -97 969 -97 
Q 622 -97 436 112 
Q 250 322 250 691 
Q 250 1178 559 1381 
Q 894 1603 1906 1781 
Q 1906 2278 1644 2447 
Q 1484 2550 1263 2550 
Q 1019 2550 878 2450 
L 759 2159 
L 719 2138 
L 559 2175 
L 538 2219 
L 553 2588 
Q 1069 2969 1328 3019 
Q 1438 3041 1613 3041 
Q 2228 3041 2491 2719 
Q 2681 2484 2681 2000 
Q 2681 1881 2672 1619 
Q 2656 1181 2656 1034 
Q 2656 563 2672 433 
Q 2688 303 2745 268 
Q 2803 234 3022 228 
L 3053 194 
L 3053 19 
z
M 1906 747 
L 1906 1516 
Q 1391 1403 1211 1273 
Q 1031 1144 1031 878 
Q 1031 453 1403 453 
Q 1719 453 1906 747 
z
M 1656 3181 
L 1656 3181 
z
M 1656 -244 
L 1656 -244 
z
" transform="scale(0.015625)"/>
       <path id="PalatinoLinotype-Bold-6c" d="M 1953 9 
L 1922 -22 
Q 1625 0 1066 0 
Q 506 0 213 -22 
L 181 9 
L 181 200 
L 213 231 
Q 513 241 584 278 
Q 647 306 653 428 
Q 675 834 675 1850 
L 675 2897 
Q 675 3553 653 3959 
Q 647 4075 584 4111 
Q 522 4147 222 4156 
L 191 4191 
L 191 4363 
L 222 4397 
Q 825 4463 1431 4656 
L 1497 4619 
Q 1497 4534 1488 4309 
Q 1456 3563 1456 2656 
L 1456 1850 
Q 1456 834 1478 428 
Q 1484 306 1547 278 
Q 1619 241 1919 231 
L 1953 200 
L 1953 9 
z
" transform="scale(0.015625)"/>
       <path id="PalatinoLinotype-Bold-69" d="M 1522 4088 
Q 1522 3888 1381 3745 
Q 1241 3603 1044 3603 
Q 844 3603 703 3745 
Q 563 3888 563 4088 
Q 563 4294 705 4434 
Q 847 4575 1044 4575 
Q 1238 4575 1380 4434 
Q 1522 4294 1522 4088 
z
M 1953 9 
L 1922 -22 
Q 1625 0 1066 0 
Q 506 0 213 -22 
L 181 9 
L 181 200 
L 213 231 
Q 513 241 584 278 
Q 647 306 653 428 
Q 675 834 675 1300 
L 675 1747 
Q 675 2353 628 2466 
Q 603 2528 494 2544 
Q 456 2550 222 2559 
L 191 2591 
L 191 2766 
L 222 2800 
Q 822 2853 1431 3059 
L 1497 3019 
Q 1456 2450 1456 2059 
L 1456 1063 
Q 1456 834 1478 428 
Q 1484 306 1547 278 
Q 1619 241 1919 231 
L 1953 200 
L 1953 9 
z
M 1066 -244 
L 1066 -244 
z
" transform="scale(0.015625)"/>
       <path id="PalatinoLinotype-Bold-7a" d="M 2963 963 
Q 2894 322 2894 0 
L 2872 -22 
Q 1872 3 1381 3 
Q 994 3 144 -22 
L 109 9 
L 109 188 
Q 431 544 1850 2597 
L 1484 2597 
Q 772 2597 706 2541 
Q 669 2506 650 2381 
Q 644 2331 609 2131 
L 603 2088 
L 569 2056 
L 384 2056 
L 350 2088 
Q 375 2644 375 2738 
Q 375 2834 372 2928 
L 400 2956 
Q 503 2950 713 2944 
Q 778 2941 1478 2934 
L 1931 2931 
Q 2138 2931 2866 2953 
L 2897 2919 
L 2897 2728 
L 2331 1963 
Q 2125 1681 1841 1275 
L 1425 678 
Q 1263 444 1194 334 
L 1531 328 
Q 1716 325 2141 344 
Q 2522 359 2564 396 
Q 2606 434 2706 963 
L 2741 994 
L 2928 994 
L 2963 963 
z
" transform="scale(0.015625)"/>
       <path id="PalatinoLinotype-Bold-65" d="M 2975 1753 
Q 2975 1700 2972 1594 
L 2938 1550 
Q 2525 1438 1844 1438 
Q 1722 1438 1475 1433 
Q 1228 1428 1103 1428 
Q 1122 969 1388 669 
Q 1666 347 2113 347 
Q 2413 347 2825 553 
L 2900 463 
L 2763 153 
Q 2306 -138 1772 -138 
Q 1069 -138 680 259 
Q 291 656 291 1391 
Q 291 2263 706 2584 
Q 1281 3028 1797 3028 
Q 2356 3028 2663 2706 
Q 2975 2375 2975 1753 
z
M 2159 1834 
Q 2159 2678 1634 2678 
Q 1081 2678 1081 1841 
L 1081 1772 
Q 1263 1744 1725 1744 
Q 1966 1744 2156 1772 
Q 2159 1816 2159 1834 
z
M 1781 -244 
L 1781 -244 
z
M 1781 3181 
L 1781 3181 
z
" transform="scale(0.015625)"/>
       <path id="PalatinoLinotype-Bold-64" d="M 3750 9 
L 3719 -22 
Q 3413 0 3166 0 
Q 2931 0 2531 -22 
L 2503 0 
Q 2516 153 2516 513 
Q 2403 419 2194 225 
Q 1934 -16 1856 -63 
Q 1756 -109 1531 -109 
Q 997 -109 669 294 
Q 341 697 341 1338 
Q 341 1959 594 2306 
Q 659 2397 981 2628 
Q 1356 2897 1528 2969 
Q 1678 3031 1909 3031 
Q 2234 3031 2516 2894 
L 2516 3069 
Q 2516 3891 2475 4038 
Q 2453 4119 2347 4138 
Q 2297 4147 2059 4156 
L 2028 4191 
L 2028 4363 
L 2059 4397 
Q 2659 4459 3269 4656 
L 3338 4619 
Q 3338 4606 3325 4309 
Q 3297 3638 3297 2291 
L 3297 1281 
Q 3297 403 3338 316 
Q 3363 263 3406 250 
Q 3475 228 3719 209 
L 3750 178 
L 3750 9 
z
M 2516 1641 
L 2516 2228 
Q 2291 2497 2084 2572 
Q 1944 2622 1784 2622 
Q 1353 2622 1228 2178 
Q 1159 1931 1159 1628 
Q 1159 981 1463 669 
Q 1622 503 1891 503 
Q 2113 503 2303 644 
Q 2475 769 2506 913 
Q 2516 956 2516 1641 
z
" transform="scale(0.015625)"/>
       <path id="PalatinoLinotype-Bold-20" transform="scale(0.015625)"/>
       <path id="PalatinoLinotype-Bold-57" d="M 6363 4175 
L 6331 4147 
Q 6184 4141 6163 4138 
Q 6059 4119 6009 4067 
Q 5959 4016 5922 3909 
Q 5847 3703 5644 2984 
Q 5541 2622 5353 1897 
L 5072 816 
Q 4897 147 4875 -41 
L 4397 -41 
L 4238 391 
Q 3841 1459 3506 2303 
L 3328 2750 
Q 3269 2903 3206 3075 
L 2391 1141 
Q 2269 853 2050 303 
L 1913 -41 
L 1456 -41 
L 684 3544 
Q 625 3819 597 3903 
Q 534 4100 419 4125 
Q 366 4138 175 4150 
L 144 4178 
L 144 4375 
L 178 4409 
Q 731 4391 1016 4391 
Q 1353 4391 2003 4409 
L 2038 4378 
L 2038 4178 
L 2006 4150 
Q 1794 4141 1766 4138 
Q 1647 4125 1609 4089 
Q 1572 4053 1572 3975 
Q 1572 3903 1631 3584 
L 1738 3013 
Q 1784 2766 1903 2216 
L 2088 1369 
L 2481 2316 
Q 2600 2597 2838 3163 
L 3206 4056 
Q 3309 4303 3369 4466 
L 3656 4466 
Q 3975 3566 4844 1409 
L 5397 3625 
Q 5459 3891 5459 3956 
Q 5459 4097 5313 4119 
Q 5259 4128 4978 4147 
L 4947 4178 
L 4947 4375 
L 4981 4409 
Q 5519 4388 5606 4391 
L 6331 4409 
L 6363 4378 
L 6363 4175 
z
" transform="scale(0.015625)"/>
       <path id="PalatinoLinotype-Bold-53" d="M 3575 1444 
Q 3575 928 3281 534 
Q 3025 188 2609 19 
Q 2228 -138 1700 -138 
Q 1044 -138 413 163 
L 375 231 
Q 463 591 463 1253 
L 494 1284 
L 694 1284 
L 722 1253 
L 722 1181 
Q 722 1006 759 719 
Q 872 519 1163 375 
Q 1466 225 1794 225 
Q 2413 225 2650 656 
Q 2772 878 2772 1116 
Q 2772 1516 2438 1688 
Q 2272 1772 1903 1828 
Q 1069 1956 806 2150 
Q 409 2444 409 3059 
Q 409 3700 841 4081 
Q 1297 4481 2109 4481 
Q 2841 4481 3291 4247 
L 3313 4172 
Q 3238 3800 3222 3278 
L 3188 3247 
L 2991 3247 
L 2959 3278 
Q 2950 3653 2928 3766 
Q 2831 3913 2591 4016 
Q 2334 4122 2056 4122 
Q 1638 4122 1394 3900 
Q 1166 3691 1166 3359 
Q 1166 3000 1425 2831 
Q 1594 2722 2222 2622 
Q 2288 2613 2588 2559 
Q 2772 2528 2928 2469 
Q 3244 2350 3403 2106 
Q 3575 1841 3575 1444 
z
" transform="scale(0.015625)"/>
       <path id="PalatinoLinotype-Bold-2d" d="M 1816 1225 
L 153 1225 
L 106 1275 
Q 156 1356 228 1597 
Q 300 1838 316 1931 
L 1963 1931 
L 2022 1869 
Q 1900 1663 1816 1225 
z
" transform="scale(0.015625)"/>
       <path id="PalatinoLinotype-Bold-32" d="M 3019 703 
Q 2981 338 3009 9 
L 2972 -34 
Q 2113 0 1566 0 
Q 994 0 209 -31 
L 169 6 
L 169 291 
L 806 941 
Q 1522 1669 1741 2047 
Q 1869 2269 1922 2451 
Q 1975 2634 1975 2841 
Q 1975 3588 1291 3588 
Q 909 3588 684 3297 
Q 650 3163 563 2828 
L 528 2797 
L 350 2797 
L 319 2828 
L 434 3872 
Q 828 4266 1531 4266 
Q 2159 4266 2500 3938 
Q 2816 3638 2816 3141 
Q 2816 2938 2769 2766 
Q 2672 2416 2372 2059 
Q 2122 1763 1616 1278 
Q 1431 1097 1056 744 
L 1063 703 
L 1616 703 
Q 1856 703 2072 709 
L 2613 725 
Q 2819 731 2972 744 
L 3019 703 
z
" transform="scale(0.015625)"/>
       <path id="PalatinoLinotype-Bold-31" d="M 2919 9 
L 2884 -28 
Q 2447 0 1816 0 
Q 1200 0 519 -28 
L 484 6 
L 484 197 
L 522 228 
Q 681 247 831 259 
Q 1100 281 1175 313 
Q 1228 338 1266 428 
Q 1325 575 1325 1616 
L 1325 2394 
Q 1325 2744 1313 3281 
L 1306 3516 
Q 1306 3672 1241 3672 
Q 1213 3672 1056 3600 
Q 628 3403 322 3253 
L 284 3275 
Q 266 3453 219 3672 
L 222 3697 
Q 1084 3941 2150 4350 
L 2216 4303 
Q 2203 4119 2181 3756 
Q 2172 3619 2163 3019 
L 2153 1791 
Q 2153 472 2197 375 
Q 2228 303 2291 288 
Q 2403 256 2878 231 
L 2919 200 
L 2919 9 
z
" transform="scale(0.015625)"/>
       <path id="PalatinoLinotype-Bold-63" d="M 2691 394 
L 2553 84 
Q 2128 -138 1716 -138 
Q 1019 -138 650 262 
Q 281 663 281 1359 
Q 281 2003 566 2338 
Q 644 2431 863 2584 
Q 1313 2903 1464 2965 
Q 1616 3028 1928 3028 
Q 2353 3028 2631 2900 
L 2663 2844 
Q 2659 2803 2619 2553 
L 2584 2341 
Q 2575 2288 2556 1922 
L 2525 1891 
L 2338 1891 
L 2306 1922 
Q 2288 2200 2263 2309 
Q 2125 2553 1734 2553 
Q 1072 2553 1072 1694 
Q 1072 1069 1338 709 
Q 1609 338 2103 338 
Q 2403 338 2631 466 
L 2691 394 
z
" transform="scale(0.015625)"/>
      </defs>
      <use xlink:href="#PalatinoLinotype-Bold-4e"/>
      <use xlink:href="#PalatinoLinotype-Bold-6f" x="83.300781"/>
      <use xlink:href="#PalatinoLinotype-Bold-72" x="138.916016"/>
      <use xlink:href="#PalatinoLinotype-Bold-6d" x="177.832031"/>
      <use xlink:href="#PalatinoLinotype-Bold-61" x="266.748047"/>
      <use xlink:href="#PalatinoLinotype-Bold-6c" x="316.748047"/>
      <use xlink:href="#PalatinoLinotype-Bold-69" x="350.048828"/>
      <use xlink:href="#PalatinoLinotype-Bold-7a" x="383.349609"/>
      <use xlink:href="#PalatinoLinotype-Bold-65" x="433.349609"/>
      <use xlink:href="#PalatinoLinotype-Bold-64" x="483.349609"/>
      <use xlink:href="#PalatinoLinotype-Bold-20" x="544.433594"/>
      <use xlink:href="#PalatinoLinotype-Bold-57" x="569.433594"/>
      <use xlink:href="#PalatinoLinotype-Bold-4e" x="669.433594"/>
      <use xlink:href="#PalatinoLinotype-Bold-53" x="752.734375"/>
      <use xlink:href="#PalatinoLinotype-Bold-53" x="813.818359"/>
      <use xlink:href="#PalatinoLinotype-Bold-2d" x="874.902344"/>
      <use xlink:href="#PalatinoLinotype-Bold-32" x="908.203125"/>
      <use xlink:href="#PalatinoLinotype-Bold-31" x="958.203125"/>
      <use xlink:href="#PalatinoLinotype-Bold-20" x="1008.203125"/>
      <use xlink:href="#PalatinoLinotype-Bold-53" x="1033.203125"/>
      <use xlink:href="#PalatinoLinotype-Bold-63" x="1094.287109"/>
      <use xlink:href="#PalatinoLinotype-Bold-6f" x="1138.671875"/>
      <use xlink:href="#PalatinoLinotype-Bold-72" x="1194.287109"/>
      <use xlink:href="#PalatinoLinotype-Bold-65" x="1233.203125"/>
     </g>
    </g>
   </g>
   <g id="matplotlib.axis_2">
    <g id="ytick_1">
     <g id="line2d_11">
      <path d="M 58.59 224.64 
L 393.39 224.64 
" clip-path="url(#p5df2fa509a)" style="fill: none; stroke: #b0b0b0; stroke-width: 0.8; stroke-linecap: square"/>
     </g>
     <g id="line2d_12">
      <defs>
       <path id="mdc13d348f1" d="M 0 0 
L -3.5 0 
" style="stroke: #000000; stroke-width: 0.8"/>
      </defs>
      <g>
       <use xlink:href="#mdc13d348f1" x="58.59" y="224.64" style="stroke: #000000; stroke-width: 0.8"/>
      </g>
     </g>
     <g id="text_7">
      <!-- 0.00 -->
      <g transform="translate(27.09 229.701875)scale(0.14 -0.14)">
       <use xlink:href="#PalatinoLinotype-Roman-30"/>
       <use xlink:href="#PalatinoLinotype-Roman-2e" x="50"/>
       <use xlink:href="#PalatinoLinotype-Roman-30" x="75"/>
       <use xlink:href="#PalatinoLinotype-Roman-30" x="125"/>
      </g>
     </g>
    </g>
    <g id="ytick_2">
     <g id="line2d_13">
      <path d="M 58.59 193.012364 
L 393.39 193.012364 
" clip-path="url(#p5df2fa509a)" style="fill: none; stroke: #b0b0b0; stroke-width: 0.8; stroke-linecap: square"/>
     </g>
     <g id="line2d_14">
      <g>
       <use xlink:href="#mdc13d348f1" x="58.59" y="193.012364" style="stroke: #000000; stroke-width: 0.8"/>
      </g>
     </g>
     <g id="text_8">
      <!-- 0.06 -->
      <g transform="translate(27.09 198.074239)scale(0.14 -0.14)">
       <defs>
        <path id="PalatinoLinotype-Roman-36" d="M 2700 4322 
L 2700 4284 
Q 2359 4213 1923 3944 
Q 1488 3675 1191 3222 
Q 894 2769 847 2128 
Q 953 2203 1091 2309 
Q 1269 2444 1351 2494 
Q 1434 2544 1573 2581 
Q 1713 2619 1894 2619 
Q 2216 2619 2472 2476 
Q 2728 2334 2856 2057 
Q 2984 1781 2984 1413 
Q 2984 891 2731 539 
Q 2478 188 2193 36 
Q 1909 -116 1541 -116 
Q 913 -116 566 354 
Q 219 825 219 1578 
Q 219 2078 364 2539 
Q 509 3000 806 3373 
Q 1103 3747 1564 4037 
Q 2025 4328 2472 4431 
L 2700 4322 
z
M 788 1341 
Q 788 1031 877 728 
Q 966 425 1162 259 
Q 1359 94 1625 94 
Q 1853 94 2047 222 
Q 2241 350 2342 623 
Q 2444 897 2444 1200 
Q 2444 1503 2344 1742 
Q 2244 1981 2053 2114 
Q 1863 2247 1609 2247 
Q 1422 2247 1234 2156 
Q 1047 2066 945 1950 
Q 844 1834 816 1704 
Q 788 1575 788 1341 
z
" transform="scale(0.015625)"/>
       </defs>
       <use xlink:href="#PalatinoLinotype-Roman-30"/>
       <use xlink:href="#PalatinoLinotype-Roman-2e" x="50"/>
       <use xlink:href="#PalatinoLinotype-Roman-30" x="75"/>
       <use xlink:href="#PalatinoLinotype-Roman-36" x="125"/>
      </g>
     </g>
    </g>
    <g id="ytick_3">
     <g id="line2d_15">
      <path d="M 58.59 161.384727 
L 393.39 161.384727 
" clip-path="url(#p5df2fa509a)" style="fill: none; stroke: #b0b0b0; stroke-width: 0.8; stroke-linecap: square"/>
     </g>
     <g id="line2d_16">
      <g>
       <use xlink:href="#mdc13d348f1" x="58.59" y="161.384727" style="stroke: #000000; stroke-width: 0.8"/>
      </g>
     </g>
     <g id="text_9">
      <!-- 0.12 -->
      <g transform="translate(27.09 166.446602)scale(0.14 -0.14)">
       <defs>
        <path id="PalatinoLinotype-Roman-31" d="M 478 3531 
L 422 3550 
L 391 3806 
L 422 3838 
Q 734 3928 1212 4128 
Q 1691 4328 1897 4434 
L 1978 4403 
Q 1928 3034 1928 2759 
L 1928 1600 
Q 1928 1172 1937 795 
Q 1947 419 1965 351 
Q 1984 284 2029 246 
Q 2075 209 2156 198 
Q 2238 188 2641 166 
L 2663 141 
L 2663 0 
L 2641 -25 
Q 1956 0 1675 0 
Q 1463 0 634 -25 
L 613 0 
L 613 141 
L 638 166 
Q 1106 200 1173 215 
Q 1241 231 1277 270 
Q 1313 309 1334 418 
Q 1356 528 1370 1065 
Q 1384 1603 1384 1616 
L 1384 2847 
Q 1384 3753 1379 3831 
Q 1375 3909 1325 3909 
Q 1313 3909 1291 3903 
Q 1269 3897 1153 3847 
L 844 3709 
Q 650 3625 478 3531 
z
" transform="scale(0.015625)"/>
       </defs>
       <use xlink:href="#PalatinoLinotype-Roman-30"/>
       <use xlink:href="#PalatinoLinotype-Roman-2e" x="50"/>
       <use xlink:href="#PalatinoLinotype-Roman-31" x="75"/>
       <use xlink:href="#PalatinoLinotype-Roman-32" x="125"/>
      </g>
     </g>
    </g>
    <g id="ytick_4">
     <g id="line2d_17">
      <path d="M 58.59 129.757091 
L 393.39 129.757091 
" clip-path="url(#p5df2fa509a)" style="fill: none; stroke: #b0b0b0; stroke-width: 0.8; stroke-linecap: square"/>
     </g>
     <g id="line2d_18">
      <g>
       <use xlink:href="#mdc13d348f1" x="58.59" y="129.757091" style="stroke: #000000; stroke-width: 0.8"/>
      </g>
     </g>
     <g id="text_10">
      <!-- 0.18 -->
      <g transform="translate(27.09 134.818966)scale(0.14 -0.14)">
       <defs>
        <path id="PalatinoLinotype-Roman-38" d="M 1050 2216 
Q 703 2400 523 2639 
Q 344 2878 344 3219 
Q 344 3697 697 4039 
Q 1050 4381 1659 4381 
Q 1969 4381 2233 4273 
Q 2497 4166 2640 3952 
Q 2784 3738 2784 3475 
Q 2784 3200 2615 2948 
Q 2447 2697 2019 2438 
L 2019 2409 
Q 2384 2234 2561 2112 
Q 2738 1991 2850 1783 
Q 2963 1575 2963 1303 
Q 2963 931 2748 589 
Q 2534 247 2184 69 
Q 1834 -109 1459 -109 
Q 913 -109 556 197 
Q 200 503 200 1013 
Q 200 1425 445 1723 
Q 691 2022 1050 2188 
L 1050 2216 
z
M 1778 2516 
Q 2113 2725 2231 2936 
Q 2350 3147 2350 3391 
Q 2350 3750 2144 3959 
Q 1938 4169 1591 4169 
Q 1259 4169 1040 3983 
Q 822 3797 822 3463 
Q 822 3209 964 3023 
Q 1106 2838 1778 2516 
z
M 1303 2103 
Q 934 1884 790 1632 
Q 647 1381 647 1063 
Q 647 616 897 361 
Q 1147 106 1541 106 
Q 1809 106 2028 231 
Q 2247 356 2355 573 
Q 2463 791 2463 1047 
Q 2463 1416 2205 1622 
Q 1947 1828 1303 2103 
z
" transform="scale(0.015625)"/>
       </defs>
       <use xlink:href="#PalatinoLinotype-Roman-30"/>
       <use xlink:href="#PalatinoLinotype-Roman-2e" x="50"/>
       <use xlink:href="#PalatinoLinotype-Roman-31" x="75"/>
       <use xlink:href="#PalatinoLinotype-Roman-38" x="125"/>
      </g>
     </g>
    </g>
    <g id="ytick_5">
     <g id="line2d_19">
      <path d="M 58.59 98.129455 
L 393.39 98.129455 
" clip-path="url(#p5df2fa509a)" style="fill: none; stroke: #b0b0b0; stroke-width: 0.8; stroke-linecap: square"/>
     </g>
     <g id="line2d_20">
      <g>
       <use xlink:href="#mdc13d348f1" x="58.59" y="98.129455" style="stroke: #000000; stroke-width: 0.8"/>
      </g>
     </g>
     <g id="text_11">
      <!-- 0.24 -->
      <g transform="translate(27.09 103.19133)scale(0.14 -0.14)">
       <use xlink:href="#PalatinoLinotype-Roman-30"/>
       <use xlink:href="#PalatinoLinotype-Roman-2e" x="50"/>
       <use xlink:href="#PalatinoLinotype-Roman-32" x="75"/>
       <use xlink:href="#PalatinoLinotype-Roman-34" x="125"/>
      </g>
     </g>
    </g>
    <g id="ytick_6">
     <g id="line2d_21">
      <path d="M 58.59 66.501818 
L 393.39 66.501818 
" clip-path="url(#p5df2fa509a)" style="fill: none; stroke: #b0b0b0; stroke-width: 0.8; stroke-linecap: square"/>
     </g>
     <g id="line2d_22">
      <g>
       <use xlink:href="#mdc13d348f1" x="58.59" y="66.501818" style="stroke: #000000; stroke-width: 0.8"/>
      </g>
     </g>
     <g id="text_12">
      <!-- 0.30 -->
      <g transform="translate(27.09 71.563693)scale(0.14 -0.14)">
       <use xlink:href="#PalatinoLinotype-Roman-30"/>
       <use xlink:href="#PalatinoLinotype-Roman-2e" x="50"/>
       <use xlink:href="#PalatinoLinotype-Roman-33" x="75"/>
       <use xlink:href="#PalatinoLinotype-Roman-30" x="125"/>
      </g>
     </g>
    </g>
    <g id="ytick_7">
     <g id="line2d_23">
      <path d="M 58.59 34.874182 
L 393.39 34.874182 
" clip-path="url(#p5df2fa509a)" style="fill: none; stroke: #b0b0b0; stroke-width: 0.8; stroke-linecap: square"/>
     </g>
     <g id="line2d_24">
      <g>
       <use xlink:href="#mdc13d348f1" x="58.59" y="34.874182" style="stroke: #000000; stroke-width: 0.8"/>
      </g>
     </g>
     <g id="text_13">
      <!-- 0.36 -->
      <g transform="translate(27.09 39.936057)scale(0.14 -0.14)">
       <use xlink:href="#PalatinoLinotype-Roman-30"/>
       <use xlink:href="#PalatinoLinotype-Roman-2e" x="50"/>
       <use xlink:href="#PalatinoLinotype-Roman-33" x="75"/>
       <use xlink:href="#PalatinoLinotype-Roman-36" x="125"/>
      </g>
     </g>
    </g>
    <g id="text_14">
     <!-- Proportion -->
     <g transform="translate(18.84 155.47625)rotate(-90)scale(0.16 -0.16)">
      <defs>
       <path id="PalatinoLinotype-Bold-50" d="M 3744 3431 
Q 3744 2788 3305 2427 
Q 2866 2066 2313 2066 
Q 2125 2066 1934 2109 
Q 1906 2194 1825 2334 
L 1891 2403 
Q 2022 2359 2131 2359 
Q 2447 2359 2637 2582 
Q 2828 2806 2828 3209 
Q 2828 4081 2044 4081 
Q 1950 4081 1669 4044 
Q 1641 3969 1641 3022 
L 1641 1369 
Q 1641 625 1681 400 
Q 1697 309 1788 284 
Q 1816 278 2216 253 
L 2250 219 
L 2250 13 
L 2219 -19 
Q 1791 0 1194 0 
Q 522 0 231 -19 
L 200 9 
L 200 219 
L 234 253 
Q 550 272 597 284 
Q 688 309 703 400 
Q 744 625 744 1369 
L 744 3022 
Q 744 3766 703 3991 
Q 688 4081 597 4106 
Q 550 4119 231 4138 
L 200 4172 
L 200 4378 
L 234 4409 
Q 541 4391 1175 4391 
Q 1438 4391 1931 4400 
Q 2425 4409 2500 4409 
Q 3356 4409 3613 3975 
Q 3744 3750 3744 3431 
z
" transform="scale(0.015625)"/>
       <path id="PalatinoLinotype-Bold-70" d="M 3613 1813 
Q 3613 1428 3475 1078 
Q 3375 822 3213 644 
Q 3141 566 2944 419 
Q 2738 253 2428 19 
Q 2244 -103 1959 -103 
Q 1688 -103 1416 -3 
L 1416 -1175 
Q 1416 -1319 1450 -1366 
Q 1469 -1391 1534 -1406 
Q 1584 -1419 1934 -1444 
L 1969 -1475 
L 1969 -1669 
L 1938 -1700 
Q 1516 -1675 978 -1675 
Q 584 -1675 191 -1700 
L 159 -1669 
L 159 -1481 
L 191 -1447 
Q 506 -1438 553 -1397 
Q 584 -1369 591 -1338 
Q 603 -1278 616 -1031 
Q 625 -844 628 -553 
L 634 -69 
L 634 1747 
Q 634 1778 616 2209 
Q 606 2413 582 2470 
Q 559 2528 453 2544 
Q 416 2550 178 2559 
L 147 2591 
L 147 2766 
L 178 2800 
Q 775 2853 1388 3059 
L 1456 3019 
Q 1456 2884 1428 2478 
Q 1638 2653 1956 2913 
Q 2109 3028 2428 3028 
Q 3203 3028 3484 2434 
Q 3613 2163 3613 1813 
z
M 2809 1428 
Q 2809 2109 2450 2347 
Q 2259 2472 2053 2472 
Q 1669 2472 1416 2156 
L 1416 606 
Q 1700 306 2041 306 
Q 2550 306 2722 834 
Q 2809 1100 2809 1428 
z
" transform="scale(0.015625)"/>
       <path id="PalatinoLinotype-Bold-74" d="M 2081 409 
Q 2059 384 1947 278 
Q 1763 103 1631 -41 
Q 1478 -91 1322 -91 
Q 888 -91 688 163 
Q 603 272 575 416 
Q 544 588 547 866 
L 556 1613 
L 556 2394 
L 472 2394 
L 306 2388 
L 178 2388 
L 144 2416 
L 144 2497 
L 169 2544 
Q 225 2581 344 2656 
Q 484 2744 556 2803 
L 556 3228 
Q 556 3494 531 3791 
Q 766 3866 911 3923 
Q 1056 3981 1322 4113 
L 1403 4050 
Q 1366 3663 1350 3356 
L 1322 2816 
L 1425 2816 
Q 1766 2816 2013 2838 
L 2047 2803 
L 2003 2438 
L 1972 2406 
L 1322 2406 
L 1322 1347 
Q 1322 838 1334 747 
Q 1350 616 1445 534 
Q 1541 453 1703 453 
Q 1831 453 2013 522 
L 2081 409 
z
" transform="scale(0.015625)"/>
       <path id="PalatinoLinotype-Bold-6e" d="M 3775 13 
L 3744 -22 
Q 3400 0 3163 0 
Q 2944 0 2525 -22 
L 2494 9 
Q 2550 706 2550 1084 
L 2550 1697 
Q 2550 2459 2000 2459 
Q 1713 2459 1550 2263 
Q 1413 2097 1413 1928 
L 1413 1344 
Q 1413 534 1453 350 
Q 1478 241 1816 234 
L 1847 203 
L 1847 13 
L 1816 -19 
Q 1550 0 1022 0 
Q 463 0 169 -22 
L 138 9 
L 138 200 
L 169 231 
Q 469 241 541 278 
Q 603 306 609 428 
Q 631 834 631 1300 
L 631 1747 
Q 631 2372 584 2466 
Q 553 2528 450 2544 
Q 413 2550 178 2559 
L 147 2591 
L 147 2766 
L 178 2800 
Q 741 2853 1363 3059 
L 1431 3019 
L 1425 2494 
L 1963 2944 
Q 2169 3028 2416 3028 
Q 2913 3028 3159 2728 
Q 3359 2484 3359 2013 
Q 3359 1959 3346 1578 
Q 3334 1197 3334 1034 
Q 3334 563 3350 433 
Q 3366 303 3422 268 
Q 3478 234 3747 228 
L 3775 197 
L 3775 13 
z
" transform="scale(0.015625)"/>
      </defs>
      <use xlink:href="#PalatinoLinotype-Bold-50"/>
      <use xlink:href="#PalatinoLinotype-Bold-72" x="61.035156"/>
      <use xlink:href="#PalatinoLinotype-Bold-6f" x="99.951172"/>
      <use xlink:href="#PalatinoLinotype-Bold-70" x="155.566406"/>
      <use xlink:href="#PalatinoLinotype-Bold-6f" x="216.650391"/>
      <use xlink:href="#PalatinoLinotype-Bold-72" x="272.265625"/>
      <use xlink:href="#PalatinoLinotype-Bold-74" x="311.181641"/>
      <use xlink:href="#PalatinoLinotype-Bold-69" x="344.482422"/>
      <use xlink:href="#PalatinoLinotype-Bold-6f" x="377.783203"/>
      <use xlink:href="#PalatinoLinotype-Bold-6e" x="433.398438"/>
     </g>
    </g>
   </g>
   <g id="patch_3">
    <path d="M 73.808182 224.64 
L 124.535455 224.64 
L 124.535455 185.105455 
L 73.808182 185.105455 
z
" clip-path="url(#p5df2fa509a)" style="fill: #1f77b4; stroke: #000000; stroke-linejoin: miter"/>
   </g>
   <g id="patch_4">
    <path d="M 137.217273 224.64 
L 187.944545 224.64 
L 187.944545 161.384727 
L 137.217273 161.384727 
z
" clip-path="url(#p5df2fa509a)" style="fill: #1f77b4; stroke: #000000; stroke-linejoin: miter"/>
   </g>
   <g id="patch_5">
    <path d="M 200.626364 224.64 
L 251.353636 224.64 
L 251.353636 42.781091 
L 200.626364 42.781091 
z
" clip-path="url(#p5df2fa509a)" style="fill: #1f77b4; stroke: #000000; stroke-linejoin: miter"/>
   </g>
   <g id="patch_6">
    <path d="M 264.035455 224.64 
L 314.762727 224.64 
L 314.762727 26.967273 
L 264.035455 26.967273 
z
" clip-path="url(#p5df2fa509a)" style="fill: #1f77b4; stroke: #000000; stroke-linejoin: miter"/>
   </g>
   <g id="patch_7">
    <path d="M 327.444545 224.64 
L 378.171818 224.64 
L 378.171818 177.198545 
L 327.444545 177.198545 
z
" clip-path="url(#p5df2fa509a)" style="fill: #1f77b4; stroke: #000000; stroke-linejoin: miter"/>
   </g>
   <g id="patch_8">
    <path d="M 58.59 224.64 
L 58.59 7.2 
" style="fill: none; stroke: #000000; stroke-width: 0.8; stroke-linejoin: miter; stroke-linecap: square"/>
   </g>
   <g id="patch_9">
    <path d="M 393.39 224.64 
L 393.39 7.2 
" style="fill: none; stroke: #000000; stroke-width: 0.8; stroke-linejoin: miter; stroke-linecap: square"/>
   </g>
   <g id="patch_10">
    <path d="M 58.59 224.64 
L 393.39 224.64 
" style="fill: none; stroke: #000000; stroke-width: 0.8; stroke-linejoin: miter; stroke-linecap: square"/>
   </g>
   <g id="patch_11">
    <path d="M 58.59 7.2 
L 393.39 7.2 
" style="fill: none; stroke: #000000; stroke-width: 0.8; stroke-linejoin: miter; stroke-linecap: square"/>
   </g>
   <g id="text_15">
    <!-- 5 -->
    <g transform="translate(95.671818 180.772609)scale(0.14 -0.14)">
     <use xlink:href="#PalatinoLinotype-Roman-35"/>
    </g>
   </g>
   <g id="text_16">
    <!-- 8 -->
    <g transform="translate(159.080909 156.814675)scale(0.14 -0.14)">
     <use xlink:href="#PalatinoLinotype-Roman-38"/>
    </g>
   </g>
   <g id="text_17">
    <!-- 23 -->
    <g transform="translate(218.99 37.025002)scale(0.14 -0.14)">
     <use xlink:href="#PalatinoLinotype-Roman-32"/>
     <use xlink:href="#PalatinoLinotype-Roman-33" x="50"/>
    </g>
   </g>
   <g id="text_18">
    <!-- 25 -->
    <g transform="translate(282.399091 21.053045)scale(0.14 -0.14)">
     <use xlink:href="#PalatinoLinotype-Roman-32"/>
     <use xlink:href="#PalatinoLinotype-Roman-35" x="50"/>
    </g>
   </g>
   <g id="text_19">
    <!-- 6 -->
    <g transform="translate(349.308182 172.786631)scale(0.14 -0.14)">
     <use xlink:href="#PalatinoLinotype-Roman-36"/>
    </g>
   </g>
  </g>
 </g>
 <defs>
  <clipPath id="p5df2fa509a">
   <rect x="58.59" y="7.2" width="334.8" height="217.44"/>
  </clipPath>
 </defs>
</svg>
