<?xml version="1.0" encoding="utf-8" standalone="no"?>
<!DOCTYPE svg PUBLIC "-//W3C//DTD SVG 1.1//EN"
  "http://www.w3.org/Graphics/SVG/1.1/DTD/svg11.dtd">
<svg xmlns:xlink="http://www.w3.org/1999/xlink" width="400.59pt" height="272.82375pt" viewBox="0 0 400.59 272.82375" xmlns="http://www.w3.org/2000/svg" version="1.1">
 <metadata>
  <rdf:RDF xmlns:dc="http://purl.org/dc/elements/1.1/" xmlns:cc="http://creativecommons.org/ns#" xmlns:rdf="http://www.w3.org/1999/02/22-rdf-syntax-ns#">
   <cc:Work>
    <dc:type rdf:resource="http://purl.org/dc/dcmitype/StillImage"/>
    <dc:date>2022-06-03T12:19:02.258228</dc:date>
    <dc:format>image/svg+xml</dc:format>
    <dc:creator>
     <cc:Agent>
      <dc:title>Matplotlib v3.5.2, https://matplotlib.org/</dc:title>
     </cc:Agent>
    </dc:creator>
   </cc:Work>
  </rdf:RDF>
 </metadata>
 <defs>
  <style type="text/css">*{stroke-linejoin: round; stroke-linecap: butt}</style>
 </defs>
 <g id="figure_1">
  <g id="patch_1">
   <path d="M 0 272.82375 
L 400.59 272.82375 
L 400.59 0 
L 0 0 
L 0 272.82375 
z
" style="fill: none"/>
  </g>
  <g id="axes_1">
   <g id="patch_2">
    <path d="M 58.59 224.64 
L 393.39 224.64 
L 393.39 7.2 
L 58.59 7.2 
z
" style="fill: #ffffff"/>
   </g>
   <g id="matplotlib.axis_1">
    <g id="xtick_1">
     <g id="line2d_1">
      <path d="M 141.444545 224.64 
L 141.444545 7.2 
" clip-path="url(#p73711c1fcc)" style="fill: none; stroke: #b0b0b0; stroke-width: 0.8; stroke-linecap: square"/>
     </g>
     <g id="line2d_2">
      <defs>
       <path id="m8b0b053abe" d="M 0 0 
L 0 3.5 
" style="stroke: #000000; stroke-width: 0.8"/>
      </defs>
      <g>
       <use xlink:href="#m8b0b053abe" x="141.444545" y="224.64" style="stroke: #000000; stroke-width: 0.8"/>
      </g>
     </g>
     <g id="text_1">
      <!-- Yes -->
      <g transform="translate(131.032045 241.76375)scale(0.14 -0.14)">
       <defs>
        <path id="PalatinoLinotype-Roman-59" d="M 47 4122 
L 19 4150 
L 19 4281 
L 47 4309 
L 931 4456 
Q 1025 4391 1114 4291 
Q 1203 4191 1373 3917 
Q 1544 3644 1812 3155 
Q 2081 2666 2328 2175 
L 2647 2681 
L 3006 3281 
L 3669 4416 
Q 3791 4403 3906 4403 
Q 3978 4403 4125 4416 
L 4150 4391 
L 4150 4331 
Q 3994 4159 3666 3707 
Q 3338 3256 3177 3001 
Q 3016 2747 2781 2361 
Q 2547 1975 2525 1897 
Q 2503 1819 2503 1713 
L 2503 1253 
L 2506 784 
Q 2509 513 2526 405 
Q 2544 297 2573 264 
Q 2603 231 2686 209 
Q 2769 188 3100 175 
L 3125 156 
L 3125 0 
L 3100 -25 
Q 3084 -25 2550 -6 
Q 2328 0 2203 0 
Q 2103 0 1309 -25 
L 1284 0 
L 1284 156 
L 1309 175 
Q 1606 188 1700 206 
Q 1794 225 1826 254 
Q 1859 284 1878 370 
Q 1897 456 1900 722 
L 1906 1256 
L 1906 1850 
Q 1838 2019 1447 2659 
L 1172 3106 
Q 1041 3319 842 3601 
Q 644 3884 534 3986 
Q 425 4088 365 4105 
Q 306 4122 47 4122 
z
M 2288 4647 
L 2288 4647 
z
M 2188 -188 
L 2188 -188 
z
" transform="scale(0.015625)"/>
        <path id="PalatinoLinotype-Roman-65" d="M 2763 459 
L 2663 234 
Q 2338 25 2083 -37 
Q 1828 -100 1628 -100 
Q 1253 -100 917 47 
Q 581 194 370 544 
Q 159 894 159 1388 
Q 159 1716 240 1980 
Q 322 2244 411 2372 
Q 500 2500 712 2656 
Q 925 2813 1162 2906 
Q 1400 3000 1675 3000 
Q 2050 3000 2336 2823 
Q 2622 2647 2737 2372 
Q 2853 2097 2853 1788 
Q 2853 1691 2844 1600 
L 2809 1566 
Q 2597 1519 2237 1503 
Q 1878 1488 1763 1488 
L 759 1488 
Q 766 841 1084 534 
Q 1403 228 1866 228 
Q 2084 228 2286 303 
Q 2488 378 2713 513 
L 2763 459 
z
M 759 1738 
Q 816 1728 1192 1715 
Q 1569 1703 1750 1703 
Q 2184 1703 2278 1719 
Q 2281 1794 2281 1834 
Q 2281 2319 2084 2555 
Q 1888 2791 1547 2791 
Q 1175 2791 967 2525 
Q 759 2259 759 1738 
z
M 1631 3175 
L 1631 3175 
z
M 1594 -188 
L 1594 -188 
z
" transform="scale(0.015625)"/>
        <path id="PalatinoLinotype-Roman-73" d="M 316 919 
L 450 919 
L 478 891 
Q 484 628 509 441 
Q 606 294 843 201 
Q 1081 109 1313 109 
Q 1644 109 1842 287 
Q 2041 466 2041 713 
Q 2041 847 1969 945 
Q 1897 1044 1751 1108 
Q 1606 1172 1231 1259 
Q 909 1334 781 1376 
Q 653 1419 534 1519 
Q 416 1619 353 1764 
Q 291 1909 291 2084 
Q 291 2503 623 2754 
Q 956 3006 1453 3006 
Q 1663 3006 1909 2948 
Q 2156 2891 2284 2838 
L 2313 2794 
Q 2288 2669 2281 2138 
L 2253 2109 
L 2128 2109 
L 2100 2138 
Q 2088 2328 2066 2404 
Q 2044 2481 1953 2570 
Q 1863 2659 1697 2720 
Q 1531 2781 1347 2781 
Q 1156 2781 1026 2725 
Q 897 2669 817 2555 
Q 738 2441 738 2278 
Q 738 2159 786 2065 
Q 834 1972 934 1914 
Q 1034 1856 1144 1831 
L 1484 1744 
Q 1922 1638 2111 1559 
Q 2300 1481 2403 1323 
Q 2506 1166 2506 941 
Q 2506 509 2150 200 
Q 1794 -109 1234 -109 
Q 1038 -109 745 -65 
Q 453 -22 247 31 
L 231 72 
L 263 281 
Q 278 378 281 476 
Q 284 575 288 891 
L 316 919 
z
" transform="scale(0.015625)"/>
       </defs>
       <use xlink:href="#PalatinoLinotype-Roman-59"/>
       <use xlink:href="#PalatinoLinotype-Roman-65" x="58.449219"/>
       <use xlink:href="#PalatinoLinotype-Roman-73" x="106.349609"/>
      </g>
     </g>
    </g>
    <g id="xtick_2">
     <g id="line2d_3">
      <path d="M 310.535455 224.64 
L 310.535455 7.2 
" clip-path="url(#p73711c1fcc)" style="fill: none; stroke: #b0b0b0; stroke-width: 0.8; stroke-linecap: square"/>
     </g>
     <g id="line2d_4">
      <g>
       <use xlink:href="#m8b0b053abe" x="310.535455" y="224.64" style="stroke: #000000; stroke-width: 0.8"/>
      </g>
     </g>
     <g id="text_2">
      <!-- No -->
      <g transform="translate(300.896236 241.76375)scale(0.14 -0.14)">
       <defs>
        <path id="PalatinoLinotype-Roman-4e" d="M 206 -22 
L 178 6 
L 178 150 
L 206 175 
Q 397 178 511 197 
Q 625 216 658 259 
Q 691 303 702 400 
Q 713 497 723 837 
Q 734 1178 734 1325 
L 734 3850 
Q 734 4009 676 4086 
Q 619 4163 519 4183 
Q 419 4203 178 4206 
L 153 4231 
L 153 4378 
L 178 4406 
Q 609 4391 744 4391 
Q 1059 4391 1263 4406 
L 2259 3113 
L 3725 1275 
Q 3991 941 4266 641 
L 4266 3059 
Q 4266 3172 4255 3539 
Q 4244 3906 4228 4004 
Q 4213 4103 4173 4137 
Q 4134 4172 4026 4189 
Q 3919 4206 3734 4209 
L 3709 4234 
L 3709 4378 
L 3734 4406 
Q 3988 4391 4456 4391 
Q 4884 4391 5078 4406 
L 5106 4378 
L 5106 4234 
L 5081 4209 
Q 4875 4206 4762 4186 
Q 4650 4166 4622 4119 
Q 4594 4072 4583 3981 
Q 4572 3891 4561 3550 
Q 4550 3209 4550 3059 
L 4550 1575 
L 4553 716 
Q 4559 294 4566 -131 
Q 4409 -78 4025 0 
L 3803 263 
L 3138 1075 
L 1019 3722 
L 1019 1325 
Q 1019 1181 1030 812 
Q 1041 444 1056 366 
Q 1072 288 1097 258 
Q 1122 228 1205 203 
Q 1288 178 1547 175 
L 1572 150 
L 1572 3 
L 1547 -22 
Q 1384 0 1022 0 
Q 556 0 206 -22 
z
" transform="scale(0.015625)"/>
        <path id="PalatinoLinotype-Roman-6f" d="M 213 1431 
Q 213 1803 366 2148 
Q 519 2494 898 2745 
Q 1278 2997 1800 2997 
Q 2456 2997 2868 2583 
Q 3281 2169 3281 1519 
Q 3281 803 2807 340 
Q 2334 -122 1666 -122 
Q 1228 -122 884 114 
Q 541 350 377 690 
Q 213 1031 213 1431 
z
M 803 1647 
Q 803 1209 915 864 
Q 1028 519 1272 309 
Q 1516 100 1828 100 
Q 2197 100 2437 392 
Q 2678 684 2678 1272 
Q 2678 1938 2417 2363 
Q 2156 2788 1666 2788 
Q 1259 2788 1031 2494 
Q 803 2200 803 1647 
z
M 1750 3175 
L 1750 3175 
z
M 1703 -188 
L 1703 -188 
z
" transform="scale(0.015625)"/>
       </defs>
       <use xlink:href="#PalatinoLinotype-Roman-4e"/>
       <use xlink:href="#PalatinoLinotype-Roman-6f" x="83.105469"/>
      </g>
     </g>
    </g>
    <g id="text_3">
     <!-- STB licensed tourist guide? -->
     <g transform="translate(125.85625 261.34125)scale(0.16 -0.16)">
      <defs>
       <path id="PalatinoLinotype-Bold-53" d="M 3575 1444 
Q 3575 928 3281 534 
Q 3025 188 2609 19 
Q 2228 -138 1700 -138 
Q 1044 -138 413 163 
L 375 231 
Q 463 591 463 1253 
L 494 1284 
L 694 1284 
L 722 1253 
L 722 1181 
Q 722 1006 759 719 
Q 872 519 1163 375 
Q 1466 225 1794 225 
Q 2413 225 2650 656 
Q 2772 878 2772 1116 
Q 2772 1516 2438 1688 
Q 2272 1772 1903 1828 
Q 1069 1956 806 2150 
Q 409 2444 409 3059 
Q 409 3700 841 4081 
Q 1297 4481 2109 4481 
Q 2841 4481 3291 4247 
L 3313 4172 
Q 3238 3800 3222 3278 
L 3188 3247 
L 2991 3247 
L 2959 3278 
Q 2950 3653 2928 3766 
Q 2831 3913 2591 4016 
Q 2334 4122 2056 4122 
Q 1638 4122 1394 3900 
Q 1166 3691 1166 3359 
Q 1166 3000 1425 2831 
Q 1594 2722 2222 2622 
Q 2288 2613 2588 2559 
Q 2772 2528 2928 2469 
Q 3244 2350 3403 2106 
Q 3575 1841 3575 1444 
z
" transform="scale(0.015625)"/>
       <path id="PalatinoLinotype-Bold-54" d="M 4141 4391 
Q 4103 4159 4100 3913 
L 4094 3391 
L 4063 3359 
L 3866 3359 
L 3831 3388 
Q 3816 3788 3797 3856 
Q 3759 3981 3597 4003 
Q 3534 4013 3009 4013 
L 2591 4013 
Q 2584 3903 2584 3144 
L 2584 1369 
Q 2584 625 2625 400 
Q 2641 309 2731 284 
Q 2778 272 3097 253 
L 3128 222 
L 3128 13 
L 3097 -19 
Q 2788 0 2134 0 
Q 1466 0 1172 -19 
L 1144 9 
L 1144 222 
L 1175 253 
Q 1494 272 1541 284 
Q 1631 309 1647 400 
Q 1688 625 1688 1369 
L 1688 3144 
Q 1688 3916 1678 4013 
L 1231 4013 
Q 672 4013 578 3978 
Q 528 3959 509 3931 
Q 481 3881 463 3731 
Q 441 3566 434 3391 
L 403 3359 
L 206 3359 
L 172 3391 
L 166 3925 
Q 163 4150 128 4391 
L 156 4422 
Q 341 4391 1500 4391 
L 2766 4391 
Q 3834 4391 4109 4422 
L 4141 4391 
z
" transform="scale(0.015625)"/>
       <path id="PalatinoLinotype-Bold-42" d="M 3866 1409 
Q 3866 625 3106 194 
Q 2731 -19 2141 -19 
Q 1953 -19 1831 -16 
L 1084 0 
Q 684 0 466 -19 
L 434 13 
L 434 100 
L 450 138 
Q 681 284 700 322 
Q 728 378 734 738 
L 744 1438 
L 744 3022 
Q 744 3766 703 3991 
Q 688 4081 597 4106 
Q 550 4119 231 4138 
L 200 4169 
L 200 4381 
L 231 4409 
Q 509 4391 1188 4391 
Q 1619 4391 1966 4406 
Q 2241 4419 2431 4419 
Q 3303 4419 3575 4022 
Q 3719 3813 3719 3541 
Q 3719 3097 3372 2800 
Q 3206 2659 3028 2591 
Q 2822 2513 2578 2456 
Q 3866 2400 3866 1409 
z
M 2775 3388 
Q 2775 4078 2056 4078 
Q 1819 4078 1653 4053 
Q 1641 3725 1641 3447 
L 1641 2584 
Q 1713 2578 1928 2578 
Q 2494 2578 2672 2941 
Q 2775 3150 2775 3388 
z
M 2909 1313 
Q 2909 2250 1925 2250 
Q 1800 2250 1641 2241 
L 1641 794 
Q 1641 559 1653 334 
Q 1781 313 2013 313 
Q 2450 313 2688 588 
Q 2909 850 2909 1313 
z
" transform="scale(0.015625)"/>
       <path id="PalatinoLinotype-Bold-20" transform="scale(0.015625)"/>
       <path id="PalatinoLinotype-Bold-6c" d="M 1953 9 
L 1922 -22 
Q 1625 0 1066 0 
Q 506 0 213 -22 
L 181 9 
L 181 200 
L 213 231 
Q 513 241 584 278 
Q 647 306 653 428 
Q 675 834 675 1850 
L 675 2897 
Q 675 3553 653 3959 
Q 647 4075 584 4111 
Q 522 4147 222 4156 
L 191 4191 
L 191 4363 
L 222 4397 
Q 825 4463 1431 4656 
L 1497 4619 
Q 1497 4534 1488 4309 
Q 1456 3563 1456 2656 
L 1456 1850 
Q 1456 834 1478 428 
Q 1484 306 1547 278 
Q 1619 241 1919 231 
L 1953 200 
L 1953 9 
z
" transform="scale(0.015625)"/>
       <path id="PalatinoLinotype-Bold-69" d="M 1522 4088 
Q 1522 3888 1381 3745 
Q 1241 3603 1044 3603 
Q 844 3603 703 3745 
Q 563 3888 563 4088 
Q 563 4294 705 4434 
Q 847 4575 1044 4575 
Q 1238 4575 1380 4434 
Q 1522 4294 1522 4088 
z
M 1953 9 
L 1922 -22 
Q 1625 0 1066 0 
Q 506 0 213 -22 
L 181 9 
L 181 200 
L 213 231 
Q 513 241 584 278 
Q 647 306 653 428 
Q 675 834 675 1300 
L 675 1747 
Q 675 2353 628 2466 
Q 603 2528 494 2544 
Q 456 2550 222 2559 
L 191 2591 
L 191 2766 
L 222 2800 
Q 822 2853 1431 3059 
L 1497 3019 
Q 1456 2450 1456 2059 
L 1456 1063 
Q 1456 834 1478 428 
Q 1484 306 1547 278 
Q 1619 241 1919 231 
L 1953 200 
L 1953 9 
z
M 1066 -244 
L 1066 -244 
z
" transform="scale(0.015625)"/>
       <path id="PalatinoLinotype-Bold-63" d="M 2691 394 
L 2553 84 
Q 2128 -138 1716 -138 
Q 1019 -138 650 262 
Q 281 663 281 1359 
Q 281 2003 566 2338 
Q 644 2431 863 2584 
Q 1313 2903 1464 2965 
Q 1616 3028 1928 3028 
Q 2353 3028 2631 2900 
L 2663 2844 
Q 2659 2803 2619 2553 
L 2584 2341 
Q 2575 2288 2556 1922 
L 2525 1891 
L 2338 1891 
L 2306 1922 
Q 2288 2200 2263 2309 
Q 2125 2553 1734 2553 
Q 1072 2553 1072 1694 
Q 1072 1069 1338 709 
Q 1609 338 2103 338 
Q 2403 338 2631 466 
L 2691 394 
z
" transform="scale(0.015625)"/>
       <path id="PalatinoLinotype-Bold-65" d="M 2975 1753 
Q 2975 1700 2972 1594 
L 2938 1550 
Q 2525 1438 1844 1438 
Q 1722 1438 1475 1433 
Q 1228 1428 1103 1428 
Q 1122 969 1388 669 
Q 1666 347 2113 347 
Q 2413 347 2825 553 
L 2900 463 
L 2763 153 
Q 2306 -138 1772 -138 
Q 1069 -138 680 259 
Q 291 656 291 1391 
Q 291 2263 706 2584 
Q 1281 3028 1797 3028 
Q 2356 3028 2663 2706 
Q 2975 2375 2975 1753 
z
M 2159 1834 
Q 2159 2678 1634 2678 
Q 1081 2678 1081 1841 
L 1081 1772 
Q 1263 1744 1725 1744 
Q 1966 1744 2156 1772 
Q 2159 1816 2159 1834 
z
M 1781 -244 
L 1781 -244 
z
M 1781 3181 
L 1781 3181 
z
" transform="scale(0.015625)"/>
       <path id="PalatinoLinotype-Bold-6e" d="M 3775 13 
L 3744 -22 
Q 3400 0 3163 0 
Q 2944 0 2525 -22 
L 2494 9 
Q 2550 706 2550 1084 
L 2550 1697 
Q 2550 2459 2000 2459 
Q 1713 2459 1550 2263 
Q 1413 2097 1413 1928 
L 1413 1344 
Q 1413 534 1453 350 
Q 1478 241 1816 234 
L 1847 203 
L 1847 13 
L 1816 -19 
Q 1550 0 1022 0 
Q 463 0 169 -22 
L 138 9 
L 138 200 
L 169 231 
Q 469 241 541 278 
Q 603 306 609 428 
Q 631 834 631 1300 
L 631 1747 
Q 631 2372 584 2466 
Q 553 2528 450 2544 
Q 413 2550 178 2559 
L 147 2591 
L 147 2766 
L 178 2800 
Q 741 2853 1363 3059 
L 1431 3019 
L 1425 2494 
L 1963 2944 
Q 2169 3028 2416 3028 
Q 2913 3028 3159 2728 
Q 3359 2484 3359 2013 
Q 3359 1959 3346 1578 
Q 3334 1197 3334 1034 
Q 3334 563 3350 433 
Q 3366 303 3422 268 
Q 3478 234 3747 228 
L 3775 197 
L 3775 13 
z
" transform="scale(0.015625)"/>
       <path id="PalatinoLinotype-Bold-73" d="M 2622 981 
Q 2622 478 2242 170 
Q 1863 -138 1250 -138 
Q 816 -138 319 50 
L 284 97 
Q 313 384 319 544 
L 334 938 
L 366 972 
L 550 972 
L 588 938 
Q 600 588 616 525 
Q 881 184 1313 184 
Q 1588 184 1753 318 
Q 1919 453 1919 678 
Q 1919 963 1669 1056 
Q 1563 1097 1247 1163 
Q 731 1272 556 1413 
Q 291 1625 291 2041 
Q 291 2494 619 2769 
Q 963 3056 1550 3056 
Q 2050 3056 2381 2888 
L 2409 2838 
Q 2375 2697 2356 2116 
L 2322 2084 
L 2144 2084 
L 2109 2116 
Q 2097 2341 2066 2481 
Q 1869 2731 1494 2731 
Q 1250 2731 1094 2612 
Q 938 2494 938 2300 
Q 938 2041 1203 1953 
Q 1322 1916 1666 1847 
Q 2191 1744 2359 1609 
Q 2622 1400 2622 981 
z
" transform="scale(0.015625)"/>
       <path id="PalatinoLinotype-Bold-64" d="M 3750 9 
L 3719 -22 
Q 3413 0 3166 0 
Q 2931 0 2531 -22 
L 2503 0 
Q 2516 153 2516 513 
Q 2403 419 2194 225 
Q 1934 -16 1856 -63 
Q 1756 -109 1531 -109 
Q 997 -109 669 294 
Q 341 697 341 1338 
Q 341 1959 594 2306 
Q 659 2397 981 2628 
Q 1356 2897 1528 2969 
Q 1678 3031 1909 3031 
Q 2234 3031 2516 2894 
L 2516 3069 
Q 2516 3891 2475 4038 
Q 2453 4119 2347 4138 
Q 2297 4147 2059 4156 
L 2028 4191 
L 2028 4363 
L 2059 4397 
Q 2659 4459 3269 4656 
L 3338 4619 
Q 3338 4606 3325 4309 
Q 3297 3638 3297 2291 
L 3297 1281 
Q 3297 403 3338 316 
Q 3363 263 3406 250 
Q 3475 228 3719 209 
L 3750 178 
L 3750 9 
z
M 2516 1641 
L 2516 2228 
Q 2291 2497 2084 2572 
Q 1944 2622 1784 2622 
Q 1353 2622 1228 2178 
Q 1159 1931 1159 1628 
Q 1159 981 1463 669 
Q 1622 503 1891 503 
Q 2113 503 2303 644 
Q 2475 769 2506 913 
Q 2516 956 2516 1641 
z
" transform="scale(0.015625)"/>
       <path id="PalatinoLinotype-Bold-74" d="M 2081 409 
Q 2059 384 1947 278 
Q 1763 103 1631 -41 
Q 1478 -91 1322 -91 
Q 888 -91 688 163 
Q 603 272 575 416 
Q 544 588 547 866 
L 556 1613 
L 556 2394 
L 472 2394 
L 306 2388 
L 178 2388 
L 144 2416 
L 144 2497 
L 169 2544 
Q 225 2581 344 2656 
Q 484 2744 556 2803 
L 556 3228 
Q 556 3494 531 3791 
Q 766 3866 911 3923 
Q 1056 3981 1322 4113 
L 1403 4050 
Q 1366 3663 1350 3356 
L 1322 2816 
L 1425 2816 
Q 1766 2816 2013 2838 
L 2047 2803 
L 2003 2438 
L 1972 2406 
L 1322 2406 
L 1322 1347 
Q 1322 838 1334 747 
Q 1350 616 1445 534 
Q 1541 453 1703 453 
Q 1831 453 2013 522 
L 2081 409 
z
" transform="scale(0.015625)"/>
       <path id="PalatinoLinotype-Bold-6f" d="M 3303 1550 
Q 3303 444 2559 53 
Q 2197 -138 1731 -138 
Q 1013 -138 636 278 
Q 259 694 259 1469 
Q 259 2541 991 2897 
Q 1350 3072 1825 3072 
Q 2822 3072 3147 2381 
Q 3303 2050 3303 1550 
z
M 2438 1294 
Q 2438 2072 2267 2408 
Q 2097 2744 1747 2744 
Q 1125 2744 1125 1622 
Q 1125 181 1822 181 
Q 2256 181 2375 659 
Q 2438 909 2438 1294 
z
M 1813 -244 
L 1813 -244 
z
M 1813 3181 
L 1813 3181 
z
" transform="scale(0.015625)"/>
       <path id="PalatinoLinotype-Bold-75" d="M 3753 16 
L 3722 -16 
Q 3253 0 3131 0 
Q 3028 0 2825 -8 
Q 2622 -16 2522 -16 
L 2497 9 
Q 2522 266 2522 497 
Q 2359 375 1953 -22 
Q 1750 -100 1519 -100 
Q 1097 -100 853 129 
Q 609 359 609 791 
Q 609 844 615 1016 
Q 622 1188 622 1347 
L 622 1747 
Q 622 2366 575 2466 
Q 544 2528 441 2544 
Q 403 2550 166 2559 
L 134 2591 
L 134 2766 
L 166 2800 
Q 763 2853 1375 3059 
L 1444 3019 
Q 1403 2500 1403 2059 
L 1403 1450 
Q 1403 1022 1431 866 
Q 1463 678 1580 581 
Q 1697 484 1894 484 
Q 2138 484 2322 641 
Q 2497 797 2506 997 
Q 2513 1150 2513 1188 
L 2513 1747 
Q 2513 2359 2466 2466 
Q 2438 2528 2334 2544 
Q 2297 2550 2059 2559 
L 2025 2591 
L 2025 2766 
L 2059 2800 
Q 2653 2853 3269 3059 
L 3334 3019 
Q 3294 2550 3294 2059 
L 3294 1078 
Q 3294 419 3331 331 
Q 3350 288 3394 275 
Q 3469 253 3719 238 
L 3753 206 
L 3753 16 
z
M 1941 3181 
L 1941 3181 
z
M 1941 -244 
L 1941 -244 
z
" transform="scale(0.015625)"/>
       <path id="PalatinoLinotype-Bold-72" d="M 2484 3019 
L 2463 2463 
Q 2459 2325 2450 2150 
L 2319 2109 
Q 2172 2322 1913 2322 
Q 1678 2322 1525 2134 
Q 1431 2019 1431 1794 
L 1431 1063 
Q 1431 834 1453 428 
Q 1459 313 1518 278 
Q 1578 244 1953 231 
L 1984 203 
L 1984 13 
L 1953 -19 
Q 1494 0 1041 0 
Q 481 0 188 -22 
L 156 9 
L 156 200 
L 188 231 
Q 488 241 559 278 
Q 622 306 628 428 
Q 650 834 650 1300 
L 650 1747 
Q 650 2372 603 2466 
Q 572 2528 469 2544 
Q 431 2550 197 2559 
L 166 2591 
L 166 2766 
L 197 2800 
Q 759 2853 1381 3059 
L 1450 3019 
L 1444 2406 
Q 1638 2631 1913 2931 
Q 2041 3056 2263 3056 
Q 2394 3056 2484 3019 
z
" transform="scale(0.015625)"/>
       <path id="PalatinoLinotype-Bold-67" d="M 3491 -216 
Q 3491 -900 2980 -1306 
Q 2469 -1713 1644 -1713 
Q 997 -1713 620 -1470 
Q 244 -1228 244 -819 
Q 244 -544 366 -403 
Q 378 -388 697 -197 
Q 850 -106 922 -69 
Q 491 6 491 347 
Q 491 528 616 716 
Q 625 728 784 841 
Q 859 894 1050 1031 
Q 375 1275 375 1934 
Q 375 2444 756 2755 
Q 1138 3066 1772 3066 
Q 2384 3066 2731 2794 
Q 2928 2784 2984 2788 
Q 3138 2794 3447 2803 
L 3484 2769 
L 3450 2447 
L 3416 2416 
L 2953 2416 
Q 2994 2266 2994 2109 
Q 2994 1366 2272 1094 
Q 1947 972 1631 972 
Q 1525 972 1356 988 
Q 1159 881 1159 709 
Q 1159 550 1388 528 
Q 1519 516 1825 516 
Q 1922 516 2162 525 
Q 2403 534 2519 534 
Q 3225 534 3397 222 
Q 3491 53 3491 -216 
z
M 2206 1969 
Q 2206 2756 1678 2756 
Q 1159 2756 1159 2075 
Q 1159 1269 1700 1269 
Q 2206 1269 2206 1969 
z
M 2775 -572 
Q 2775 -231 2538 -144 
Q 2438 -106 2138 -103 
L 1544 -97 
Q 1444 -97 1269 -103 
Q 841 -369 841 -713 
Q 841 -1028 1094 -1208 
Q 1347 -1388 1772 -1388 
Q 2228 -1388 2501 -1167 
Q 2775 -947 2775 -572 
z
" transform="scale(0.015625)"/>
       <path id="PalatinoLinotype-Bold-3f" d="M 1119 1238 
Q 1066 1300 1019 1423 
Q 972 1547 972 1672 
Q 972 1847 1047 2009 
Q 1122 2172 1288 2369 
L 1459 2572 
Q 1559 2691 1667 2883 
Q 1775 3075 1775 3272 
Q 1775 3503 1611 3658 
Q 1447 3813 1150 3813 
Q 1006 3813 903 3783 
Q 800 3753 751 3711 
Q 703 3669 634 3520 
Q 566 3372 519 3234 
L 472 3209 
L 309 3238 
L 284 3284 
L 413 3741 
Q 472 3944 488 4128 
Q 663 4281 922 4359 
Q 1181 4438 1456 4438 
Q 1803 4438 2068 4317 
Q 2334 4197 2482 3958 
Q 2631 3719 2631 3447 
Q 2631 3163 2497 2922 
Q 2363 2681 2056 2441 
L 1844 2275 
Q 1281 1834 1281 1572 
Q 1281 1469 1341 1328 
L 1322 1284 
L 1169 1219 
L 1119 1238 
z
M 1250 891 
Q 1453 891 1595 745 
Q 1738 600 1738 397 
Q 1738 194 1595 48 
Q 1453 -97 1250 -97 
Q 1050 -97 908 47 
Q 766 191 766 397 
Q 766 603 909 747 
Q 1053 891 1250 891 
z
" transform="scale(0.015625)"/>
      </defs>
      <use xlink:href="#PalatinoLinotype-Bold-53"/>
      <use xlink:href="#PalatinoLinotype-Bold-54" x="61.083984"/>
      <use xlink:href="#PalatinoLinotype-Bold-42" x="127.783203"/>
      <use xlink:href="#PalatinoLinotype-Bold-20" x="193.847656"/>
      <use xlink:href="#PalatinoLinotype-Bold-6c" x="218.847656"/>
      <use xlink:href="#PalatinoLinotype-Bold-69" x="252.148438"/>
      <use xlink:href="#PalatinoLinotype-Bold-63" x="285.449219"/>
      <use xlink:href="#PalatinoLinotype-Bold-65" x="329.833984"/>
      <use xlink:href="#PalatinoLinotype-Bold-6e" x="379.833984"/>
      <use xlink:href="#PalatinoLinotype-Bold-73" x="440.917969"/>
      <use xlink:href="#PalatinoLinotype-Bold-65" x="485.302734"/>
      <use xlink:href="#PalatinoLinotype-Bold-64" x="535.302734"/>
      <use xlink:href="#PalatinoLinotype-Bold-20" x="596.386719"/>
      <use xlink:href="#PalatinoLinotype-Bold-74" x="621.386719"/>
      <use xlink:href="#PalatinoLinotype-Bold-6f" x="654.6875"/>
      <use xlink:href="#PalatinoLinotype-Bold-75" x="710.302734"/>
      <use xlink:href="#PalatinoLinotype-Bold-72" x="771.386719"/>
      <use xlink:href="#PalatinoLinotype-Bold-69" x="810.302734"/>
      <use xlink:href="#PalatinoLinotype-Bold-73" x="843.603516"/>
      <use xlink:href="#PalatinoLinotype-Bold-74" x="887.988281"/>
      <use xlink:href="#PalatinoLinotype-Bold-20" x="921.289062"/>
      <use xlink:href="#PalatinoLinotype-Bold-67" x="946.289062"/>
      <use xlink:href="#PalatinoLinotype-Bold-75" x="1001.855469"/>
      <use xlink:href="#PalatinoLinotype-Bold-69" x="1062.939453"/>
      <use xlink:href="#PalatinoLinotype-Bold-64" x="1096.240234"/>
      <use xlink:href="#PalatinoLinotype-Bold-65" x="1157.324219"/>
      <use xlink:href="#PalatinoLinotype-Bold-3f" x="1207.324219"/>
     </g>
    </g>
   </g>
   <g id="matplotlib.axis_2">
    <g id="ytick_1">
     <g id="line2d_5">
      <path d="M 58.59 224.64 
L 393.39 224.64 
" clip-path="url(#p73711c1fcc)" style="fill: none; stroke: #b0b0b0; stroke-width: 0.8; stroke-linecap: square"/>
     </g>
     <g id="line2d_6">
      <defs>
       <path id="m3c01d5799d" d="M 0 0 
L -3.5 0 
" style="stroke: #000000; stroke-width: 0.8"/>
      </defs>
      <g>
       <use xlink:href="#m3c01d5799d" x="58.59" y="224.64" style="stroke: #000000; stroke-width: 0.8"/>
      </g>
     </g>
     <g id="text_4">
      <!-- 0.00 -->
      <g transform="translate(27.09 229.701875)scale(0.14 -0.14)">
       <defs>
        <path id="PalatinoLinotype-Roman-30" d="M 194 1909 
Q 194 2466 250 2911 
Q 306 3356 498 3704 
Q 691 4053 980 4226 
Q 1269 4400 1638 4400 
Q 2056 4400 2373 4184 
Q 2691 3969 2830 3522 
Q 2969 3075 2969 2306 
Q 2969 1056 2586 465 
Q 2203 -125 1525 -125 
Q 1184 -125 923 22 
Q 663 169 495 447 
Q 328 725 261 1103 
Q 194 1481 194 1909 
z
M 731 2091 
Q 731 1497 820 1009 
Q 909 522 1117 308 
Q 1325 94 1613 94 
Q 1891 94 2077 284 
Q 2263 475 2348 937 
Q 2434 1400 2434 2081 
Q 2434 3150 2231 3662 
Q 2028 4175 1559 4175 
Q 1150 4175 940 3778 
Q 731 3381 731 2091 
z
" transform="scale(0.015625)"/>
        <path id="PalatinoLinotype-Roman-2e" d="M 800 691 
Q 950 691 1061 584 
Q 1172 478 1172 316 
Q 1172 163 1062 53 
Q 953 -56 800 -56 
Q 644 -56 534 51 
Q 425 159 425 316 
Q 425 472 534 581 
Q 644 691 800 691 
z
" transform="scale(0.015625)"/>
       </defs>
       <use xlink:href="#PalatinoLinotype-Roman-30"/>
       <use xlink:href="#PalatinoLinotype-Roman-2e" x="50"/>
       <use xlink:href="#PalatinoLinotype-Roman-30" x="75"/>
       <use xlink:href="#PalatinoLinotype-Roman-30" x="125"/>
      </g>
     </g>
    </g>
    <g id="ytick_2">
     <g id="line2d_7">
      <path d="M 58.59 185.105455 
L 393.39 185.105455 
" clip-path="url(#p73711c1fcc)" style="fill: none; stroke: #b0b0b0; stroke-width: 0.8; stroke-linecap: square"/>
     </g>
     <g id="line2d_8">
      <g>
       <use xlink:href="#m3c01d5799d" x="58.59" y="185.105455" style="stroke: #000000; stroke-width: 0.8"/>
      </g>
     </g>
     <g id="text_5">
      <!-- 0.15 -->
      <g transform="translate(27.09 190.16733)scale(0.14 -0.14)">
       <defs>
        <path id="PalatinoLinotype-Roman-31" d="M 478 3531 
L 422 3550 
L 391 3806 
L 422 3838 
Q 734 3928 1212 4128 
Q 1691 4328 1897 4434 
L 1978 4403 
Q 1928 3034 1928 2759 
L 1928 1600 
Q 1928 1172 1937 795 
Q 1947 419 1965 351 
Q 1984 284 2029 246 
Q 2075 209 2156 198 
Q 2238 188 2641 166 
L 2663 141 
L 2663 0 
L 2641 -25 
Q 1956 0 1675 0 
Q 1463 0 634 -25 
L 613 0 
L 613 141 
L 638 166 
Q 1106 200 1173 215 
Q 1241 231 1277 270 
Q 1313 309 1334 418 
Q 1356 528 1370 1065 
Q 1384 1603 1384 1616 
L 1384 2847 
Q 1384 3753 1379 3831 
Q 1375 3909 1325 3909 
Q 1313 3909 1291 3903 
Q 1269 3897 1153 3847 
L 844 3709 
Q 650 3625 478 3531 
z
" transform="scale(0.015625)"/>
        <path id="PalatinoLinotype-Roman-35" d="M 409 44 
Q 334 288 100 850 
L 106 891 
L 216 953 
L 253 944 
Q 513 472 577 408 
Q 641 344 869 258 
Q 1097 172 1350 172 
Q 1666 172 1909 309 
Q 2153 447 2272 715 
Q 2391 984 2391 1325 
Q 2391 1659 2273 1901 
Q 2156 2144 1915 2269 
Q 1675 2394 1397 2394 
Q 1222 2394 1080 2347 
Q 938 2300 842 2226 
Q 747 2153 616 2009 
L 488 2047 
L 522 2719 
Q 534 2909 534 3103 
L 534 3659 
Q 534 3909 519 4138 
Q 509 4278 509 4316 
L 550 4347 
Q 1028 4309 1641 4309 
Q 2106 4309 2756 4347 
L 2769 4316 
Q 2747 4163 2747 4031 
Q 2747 3966 2756 3813 
L 2725 3794 
Q 2369 3819 1769 3819 
Q 953 3819 822 3813 
Q 775 3444 756 2513 
Q 1013 2700 1219 2767 
Q 1425 2834 1666 2834 
Q 2006 2834 2318 2678 
Q 2631 2522 2786 2225 
Q 2941 1928 2941 1584 
Q 2941 950 2417 417 
Q 1894 -116 1078 -116 
Q 859 -116 717 -78 
Q 575 -41 409 44 
z
" transform="scale(0.015625)"/>
       </defs>
       <use xlink:href="#PalatinoLinotype-Roman-30"/>
       <use xlink:href="#PalatinoLinotype-Roman-2e" x="50"/>
       <use xlink:href="#PalatinoLinotype-Roman-31" x="75"/>
       <use xlink:href="#PalatinoLinotype-Roman-35" x="125"/>
      </g>
     </g>
    </g>
    <g id="ytick_3">
     <g id="line2d_9">
      <path d="M 58.59 145.570909 
L 393.39 145.570909 
" clip-path="url(#p73711c1fcc)" style="fill: none; stroke: #b0b0b0; stroke-width: 0.8; stroke-linecap: square"/>
     </g>
     <g id="line2d_10">
      <g>
       <use xlink:href="#m3c01d5799d" x="58.59" y="145.570909" style="stroke: #000000; stroke-width: 0.8"/>
      </g>
     </g>
     <g id="text_6">
      <!-- 0.30 -->
      <g transform="translate(27.09 150.632784)scale(0.14 -0.14)">
       <defs>
        <path id="PalatinoLinotype-Roman-33" d="M 325 72 
Q 269 441 116 959 
L 131 1006 
L 247 1050 
L 291 1028 
Q 400 741 525 553 
Q 650 366 884 266 
Q 1119 166 1391 166 
Q 1734 166 1936 309 
Q 2138 453 2247 700 
Q 2356 947 2356 1256 
Q 2356 1672 2139 1909 
Q 1922 2147 1538 2147 
Q 1406 2147 1303 2122 
Q 1200 2097 984 2009 
L 950 2041 
L 1019 2381 
Q 1272 2366 1356 2366 
Q 1722 2366 1936 2625 
Q 2150 2884 2150 3238 
Q 2150 3547 1926 3756 
Q 1703 3966 1375 3966 
Q 1159 3966 967 3878 
Q 775 3791 650 3666 
Q 597 3559 481 3247 
L 450 3219 
L 309 3219 
L 284 3247 
L 472 3972 
Q 863 4413 1531 4413 
Q 2041 4413 2355 4142 
Q 2669 3872 2669 3463 
Q 2669 3150 2484 2889 
Q 2300 2628 1972 2397 
Q 2513 2331 2733 2073 
Q 2953 1816 2953 1450 
Q 2953 850 2409 370 
Q 1866 -109 1153 -109 
Q 941 -109 756 -73 
Q 572 -38 325 72 
z
" transform="scale(0.015625)"/>
       </defs>
       <use xlink:href="#PalatinoLinotype-Roman-30"/>
       <use xlink:href="#PalatinoLinotype-Roman-2e" x="50"/>
       <use xlink:href="#PalatinoLinotype-Roman-33" x="75"/>
       <use xlink:href="#PalatinoLinotype-Roman-30" x="125"/>
      </g>
     </g>
    </g>
    <g id="ytick_4">
     <g id="line2d_11">
      <path d="M 58.59 106.036364 
L 393.39 106.036364 
" clip-path="url(#p73711c1fcc)" style="fill: none; stroke: #b0b0b0; stroke-width: 0.8; stroke-linecap: square"/>
     </g>
     <g id="line2d_12">
      <g>
       <use xlink:href="#m3c01d5799d" x="58.59" y="106.036364" style="stroke: #000000; stroke-width: 0.8"/>
      </g>
     </g>
     <g id="text_7">
      <!-- 0.45 -->
      <g transform="translate(27.09 111.098239)scale(0.14 -0.14)">
       <defs>
        <path id="PalatinoLinotype-Roman-34" d="M 1028 -25 
L 1003 0 
L 1003 134 
L 1028 159 
Q 1491 172 1577 187 
Q 1663 203 1703 253 
Q 1744 303 1764 497 
Q 1784 691 1784 909 
L 1784 1141 
L 1100 1141 
Q 503 1141 91 1122 
L 38 1291 
Q 581 2309 1853 4241 
L 2294 4419 
L 2372 4381 
Q 2338 3850 2338 3066 
L 2328 2184 
L 2328 1538 
Q 2759 1541 2994 1556 
L 3022 1525 
Q 3016 1406 3016 1353 
Q 3019 1250 3025 1150 
L 2994 1122 
Q 2691 1141 2488 1141 
L 2328 1141 
L 2328 931 
Q 2328 581 2347 434 
Q 2366 288 2406 245 
Q 2447 203 2570 183 
Q 2694 163 2997 159 
L 3025 134 
L 3025 0 
L 3000 -25 
Q 2450 0 2078 0 
Q 1472 0 1028 -25 
z
M 450 1538 
L 1784 1538 
L 1813 3759 
Q 1513 3331 1056 2584 
Q 600 1838 450 1538 
z
" transform="scale(0.015625)"/>
       </defs>
       <use xlink:href="#PalatinoLinotype-Roman-30"/>
       <use xlink:href="#PalatinoLinotype-Roman-2e" x="50"/>
       <use xlink:href="#PalatinoLinotype-Roman-34" x="75"/>
       <use xlink:href="#PalatinoLinotype-Roman-35" x="125"/>
      </g>
     </g>
    </g>
    <g id="ytick_5">
     <g id="line2d_13">
      <path d="M 58.59 66.501818 
L 393.39 66.501818 
" clip-path="url(#p73711c1fcc)" style="fill: none; stroke: #b0b0b0; stroke-width: 0.8; stroke-linecap: square"/>
     </g>
     <g id="line2d_14">
      <g>
       <use xlink:href="#m3c01d5799d" x="58.59" y="66.501818" style="stroke: #000000; stroke-width: 0.8"/>
      </g>
     </g>
     <g id="text_8">
      <!-- 0.60 -->
      <g transform="translate(27.09 71.563693)scale(0.14 -0.14)">
       <defs>
        <path id="PalatinoLinotype-Roman-36" d="M 2700 4322 
L 2700 4284 
Q 2359 4213 1923 3944 
Q 1488 3675 1191 3222 
Q 894 2769 847 2128 
Q 953 2203 1091 2309 
Q 1269 2444 1351 2494 
Q 1434 2544 1573 2581 
Q 1713 2619 1894 2619 
Q 2216 2619 2472 2476 
Q 2728 2334 2856 2057 
Q 2984 1781 2984 1413 
Q 2984 891 2731 539 
Q 2478 188 2193 36 
Q 1909 -116 1541 -116 
Q 913 -116 566 354 
Q 219 825 219 1578 
Q 219 2078 364 2539 
Q 509 3000 806 3373 
Q 1103 3747 1564 4037 
Q 2025 4328 2472 4431 
L 2700 4322 
z
M 788 1341 
Q 788 1031 877 728 
Q 966 425 1162 259 
Q 1359 94 1625 94 
Q 1853 94 2047 222 
Q 2241 350 2342 623 
Q 2444 897 2444 1200 
Q 2444 1503 2344 1742 
Q 2244 1981 2053 2114 
Q 1863 2247 1609 2247 
Q 1422 2247 1234 2156 
Q 1047 2066 945 1950 
Q 844 1834 816 1704 
Q 788 1575 788 1341 
z
" transform="scale(0.015625)"/>
       </defs>
       <use xlink:href="#PalatinoLinotype-Roman-30"/>
       <use xlink:href="#PalatinoLinotype-Roman-2e" x="50"/>
       <use xlink:href="#PalatinoLinotype-Roman-36" x="75"/>
       <use xlink:href="#PalatinoLinotype-Roman-30" x="125"/>
      </g>
     </g>
    </g>
    <g id="ytick_6">
     <g id="line2d_15">
      <path d="M 58.59 26.967273 
L 393.39 26.967273 
" clip-path="url(#p73711c1fcc)" style="fill: none; stroke: #b0b0b0; stroke-width: 0.8; stroke-linecap: square"/>
     </g>
     <g id="line2d_16">
      <g>
       <use xlink:href="#m3c01d5799d" x="58.59" y="26.967273" style="stroke: #000000; stroke-width: 0.8"/>
      </g>
     </g>
     <g id="text_9">
      <!-- 0.75 -->
      <g transform="translate(27.09 32.029148)scale(0.14 -0.14)">
       <defs>
        <path id="PalatinoLinotype-Roman-37" d="M 422 -25 
L 356 41 
Q 469 209 822 766 
L 1394 1678 
L 1931 2556 
L 2400 3363 
Q 2550 3625 2638 3788 
L 2606 3819 
L 1638 3819 
Q 1272 3819 987 3806 
Q 703 3794 653 3770 
Q 603 3747 583 3712 
Q 563 3678 538 3475 
L 481 3034 
L 453 3009 
L 322 3009 
L 294 3034 
L 309 3891 
Q 309 4038 294 4344 
L 356 4375 
Q 528 4356 1054 4334 
Q 1581 4313 1759 4313 
Q 2394 4313 3144 4356 
L 3169 4331 
L 3169 4169 
L 2719 3372 
Q 2309 2641 1784 1639 
Q 1259 638 1019 0 
L 988 -25 
Q 809 -9 719 -9 
Q 575 -9 422 -25 
z
" transform="scale(0.015625)"/>
       </defs>
       <use xlink:href="#PalatinoLinotype-Roman-30"/>
       <use xlink:href="#PalatinoLinotype-Roman-2e" x="50"/>
       <use xlink:href="#PalatinoLinotype-Roman-37" x="75"/>
       <use xlink:href="#PalatinoLinotype-Roman-35" x="125"/>
      </g>
     </g>
    </g>
    <g id="text_10">
     <!-- Proportion -->
     <g transform="translate(18.84 155.47625)rotate(-90)scale(0.16 -0.16)">
      <defs>
       <path id="PalatinoLinotype-Bold-50" d="M 3744 3431 
Q 3744 2788 3305 2427 
Q 2866 2066 2313 2066 
Q 2125 2066 1934 2109 
Q 1906 2194 1825 2334 
L 1891 2403 
Q 2022 2359 2131 2359 
Q 2447 2359 2637 2582 
Q 2828 2806 2828 3209 
Q 2828 4081 2044 4081 
Q 1950 4081 1669 4044 
Q 1641 3969 1641 3022 
L 1641 1369 
Q 1641 625 1681 400 
Q 1697 309 1788 284 
Q 1816 278 2216 253 
L 2250 219 
L 2250 13 
L 2219 -19 
Q 1791 0 1194 0 
Q 522 0 231 -19 
L 200 9 
L 200 219 
L 234 253 
Q 550 272 597 284 
Q 688 309 703 400 
Q 744 625 744 1369 
L 744 3022 
Q 744 3766 703 3991 
Q 688 4081 597 4106 
Q 550 4119 231 4138 
L 200 4172 
L 200 4378 
L 234 4409 
Q 541 4391 1175 4391 
Q 1438 4391 1931 4400 
Q 2425 4409 2500 4409 
Q 3356 4409 3613 3975 
Q 3744 3750 3744 3431 
z
" transform="scale(0.015625)"/>
       <path id="PalatinoLinotype-Bold-70" d="M 3613 1813 
Q 3613 1428 3475 1078 
Q 3375 822 3213 644 
Q 3141 566 2944 419 
Q 2738 253 2428 19 
Q 2244 -103 1959 -103 
Q 1688 -103 1416 -3 
L 1416 -1175 
Q 1416 -1319 1450 -1366 
Q 1469 -1391 1534 -1406 
Q 1584 -1419 1934 -1444 
L 1969 -1475 
L 1969 -1669 
L 1938 -1700 
Q 1516 -1675 978 -1675 
Q 584 -1675 191 -1700 
L 159 -1669 
L 159 -1481 
L 191 -1447 
Q 506 -1438 553 -1397 
Q 584 -1369 591 -1338 
Q 603 -1278 616 -1031 
Q 625 -844 628 -553 
L 634 -69 
L 634 1747 
Q 634 1778 616 2209 
Q 606 2413 582 2470 
Q 559 2528 453 2544 
Q 416 2550 178 2559 
L 147 2591 
L 147 2766 
L 178 2800 
Q 775 2853 1388 3059 
L 1456 3019 
Q 1456 2884 1428 2478 
Q 1638 2653 1956 2913 
Q 2109 3028 2428 3028 
Q 3203 3028 3484 2434 
Q 3613 2163 3613 1813 
z
M 2809 1428 
Q 2809 2109 2450 2347 
Q 2259 2472 2053 2472 
Q 1669 2472 1416 2156 
L 1416 606 
Q 1700 306 2041 306 
Q 2550 306 2722 834 
Q 2809 1100 2809 1428 
z
" transform="scale(0.015625)"/>
      </defs>
      <use xlink:href="#PalatinoLinotype-Bold-50"/>
      <use xlink:href="#PalatinoLinotype-Bold-72" x="61.035156"/>
      <use xlink:href="#PalatinoLinotype-Bold-6f" x="99.951172"/>
      <use xlink:href="#PalatinoLinotype-Bold-70" x="155.566406"/>
      <use xlink:href="#PalatinoLinotype-Bold-6f" x="216.650391"/>
      <use xlink:href="#PalatinoLinotype-Bold-72" x="272.265625"/>
      <use xlink:href="#PalatinoLinotype-Bold-74" x="311.181641"/>
      <use xlink:href="#PalatinoLinotype-Bold-69" x="344.482422"/>
      <use xlink:href="#PalatinoLinotype-Bold-6f" x="377.783203"/>
      <use xlink:href="#PalatinoLinotype-Bold-6e" x="433.398438"/>
     </g>
    </g>
   </g>
   <g id="patch_3">
    <path d="M 73.808182 224.64 
L 209.080909 224.64 
L 209.080909 26.967273 
L 73.808182 26.967273 
z
" clip-path="url(#p73711c1fcc)" style="fill: #1f77b4; stroke: #000000; stroke-linejoin: miter"/>
   </g>
   <g id="patch_4">
    <path d="M 242.899091 224.64 
L 378.171818 224.64 
L 378.171818 157.431273 
L 242.899091 157.431273 
z
" clip-path="url(#p73711c1fcc)" style="fill: #1f77b4; stroke: #000000; stroke-linejoin: miter"/>
   </g>
   <g id="patch_5">
    <path d="M 58.59 224.64 
L 58.59 7.2 
" style="fill: none; stroke: #000000; stroke-width: 0.8; stroke-linejoin: miter; stroke-linecap: square"/>
   </g>
   <g id="patch_6">
    <path d="M 393.39 224.64 
L 393.39 7.2 
" style="fill: none; stroke: #000000; stroke-width: 0.8; stroke-linejoin: miter; stroke-linecap: square"/>
   </g>
   <g id="patch_7">
    <path d="M 58.59 224.64 
L 393.39 224.64 
" style="fill: none; stroke: #000000; stroke-width: 0.8; stroke-linejoin: miter; stroke-linecap: square"/>
   </g>
   <g id="patch_8">
    <path d="M 58.59 7.2 
L 393.39 7.2 
" style="fill: none; stroke: #000000; stroke-width: 0.8; stroke-linejoin: miter; stroke-linecap: square"/>
   </g>
   <g id="text_11">
    <!-- 50 -->
    <g transform="translate(134.444545 21.053045)scale(0.14 -0.14)">
     <use xlink:href="#PalatinoLinotype-Roman-35"/>
     <use xlink:href="#PalatinoLinotype-Roman-30" x="50"/>
    </g>
   </g>
   <g id="text_12">
    <!-- 17 -->
    <g transform="translate(303.535455 152.821685)scale(0.14 -0.14)">
     <use xlink:href="#PalatinoLinotype-Roman-31"/>
     <use xlink:href="#PalatinoLinotype-Roman-37" x="50"/>
    </g>
   </g>
  </g>
 </g>
 <defs>
  <clipPath id="p73711c1fcc">
   <rect x="58.59" y="7.2" width="334.8" height="217.44"/>
  </clipPath>
 </defs>
</svg>
